<?xml version="1.0" encoding="UTF-8"?>
<svg xmlns="http://www.w3.org/2000/svg" viewBox="0 0 395.18 388.32">
  <defs>
    <style>
      .cls-1 {
        fill: #010101;
      }

      .cls-2 {
        fill: #231f20;
      }

      .cls-3 {
        fill: #fff;
      }
    </style>
  </defs>
  <g id="Layer_2" data-name="Layer 2">
    <rect class="cls-3" width="395.18" height="388.32"/>
  </g>
  <g id="Layer_1" data-name="Layer 1">
    <path class="cls-1" d="M345.46,196.23l.19-64.83c4.85-1.23,8.3-6.03,7.35-11.43-.7-4-3.9-7.24-7.9-7.98-6.32-1.18-11.85,3.67-11.85,9.78,0,1.14.2,2.23.56,3.26l-113.32,57.75c-.86.44-1.9.26-2.56-.44l-17.91-18.79c-.18-.19-.28-.44-.28-.7v-4.34s.03-24.03.03-24.03c0-.75.42-1.43,1.09-1.77l98.84-49.74c2.16,2.25,5.36,3.5,8.83,2.94,4.07-.66,7.38-3.88,8.13-7.93,1.17-6.31-3.67-11.84-9.78-11.84-1.47,0-2.85.33-4.11.9l-56.37-33.1c.5-1.8.55-3.79-.21-5.89-1.31-3.63-4.61-6.32-8.45-6.67-6.52-.59-11.91,5.15-10.71,11.76.7,3.85,3.7,7,7.52,7.85s7.42-.53,9.7-3.1l54.75,32.15c-1.29,1.68-2.07,3.77-2.07,6.05,0,1.05.16,2.06.47,3.01l-98.76,49.7c-.7.35-1.53.35-2.23,0l-98.83-49.74c.3-.95.47-1.96.47-3.01,0-2.28-.78-4.37-2.07-6.05l54.75-32.15c2.28,2.57,5.86,3.96,9.7,3.1s6.82-4,7.52-7.85c1.2-6.61-4.19-12.35-10.71-11.76-3.85.35-7.14,3.03-8.45,6.67-.76,2.1-.71,4.09-.21,5.89l-56.37,33.1c-1.4-.64-2.97-.97-4.63-.88-5.14.27-9.35,4.62-9.43,9.77-.09,5.56,4.41,10.12,9.95,10.12,2.82,0,5.36-1.18,7.18-3.07l98.48,49.56c.89.45,1.46,1.36,1.46,2.36l.04,23.65v3.58c0,.73-.29,1.43-.79,1.96l-17.28,18.13c-.74.78-1.91.98-2.86.49l-113.15-57.66c.47-1.36.68-2.85.49-4.42-.6-4.95-4.93-8.81-9.91-8.79-5.48.01-9.93,4.47-9.93,9.95,0,4.64,3.2,8.54,7.51,9.64l.19,64.83c-4.94,1.15-8.48,5.98-7.55,11.44.69,4.02,3.89,7.28,7.91,8.02,6.32,1.17,11.85-3.67,11.85-9.78,0-4.72-3.3-8.67-7.71-9.69l-.19-64.72c1.9-.4,3.6-1.34,4.93-2.66l113.82,58c.86.44,1.41,1.32,1.41,2.29l.38,114.85c-1.75.36-3.33,1.19-4.61,2.34l-67.84-32.39c.68-1.81.87-3.85.31-6-1.01-3.85-4.32-6.81-8.27-7.34-6.68-.89-12.31,4.9-11.16,11.61.69,4.05,3.94,7.32,7.99,8.05,3.33.6,6.42-.49,8.61-2.54l67.74,32.34c-.55,1.38-.81,2.9-.68,4.49.42,5.04,4.74,9.07,9.79,9.14,5.55.07,10.08-4.42,10.08-9.95,0-4.63-3.18-8.52-7.46-9.63l-.28-84.67h.1s-.05-30.86-.05-30.86c0-.88.34-1.73.95-2.37l17.23-18.08c.37-.39.99-.39,1.35,0l16.92,17.75c.83.87,1.29,2.03,1.29,3.24l-.05,30.36h.1s-.28,84.67-.28,84.67c-4.83,1.25-8.26,6.04-7.3,11.43.71,4,3.9,7.23,7.9,7.97,6.32,1.18,11.85-3.67,11.85-9.78,0-1.3-.26-2.54-.71-3.68l67.74-32.34c2.18,2.05,5.27,3.13,8.61,2.54,4.05-.72,7.3-3.99,7.99-8.05,1.15-6.72-4.48-12.5-11.16-11.61-3.95.53-7.25,3.48-8.27,7.34-.57,2.15-.37,4.19.31,6l-67.84,32.39c-1.28-1.15-2.86-1.98-4.61-2.34l.38-114.72c0-1.05.59-2.01,1.53-2.48l113.7-57.94c1.33,1.32,3.03,2.26,4.93,2.66l-.19,64.72c-4.95,1.15-8.5,5.98-7.56,11.44.69,4.02,3.89,7.28,7.91,8.03,6.32,1.17,11.85-3.67,11.85-9.78,0-4.71-3.29-8.66-7.7-9.69ZM238.06,36.6c-3.97.89-7.45-2.59-6.56-6.56.45-2,2.06-3.62,4.06-4.07,3.97-.89,7.46,2.59,6.57,6.57-.45,2-2.06,3.62-4.07,4.06ZM156.81,26.04c3.97-.89,7.45,2.59,6.56,6.56-.45,2-2.06,3.62-4.07,4.07-3.97.89-7.45-2.59-6.56-6.56.45-2,2.06-3.62,4.07-4.07ZM56.98,204.74c.89,3.97-2.59,7.45-6.56,6.56-2-.45-3.62-2.06-4.07-4.07-.89-3.97,2.59-7.45,6.57-6.56,2,.45,3.62,2.06,4.06,4.07ZM93.74,275.84c-3.97.89-7.45-2.59-6.56-6.56.45-2,2.06-3.62,4.06-4.07,3.97-.89,7.45,2.59,6.57,6.56-.45,2-2.06,3.62-4.07,4.07ZM301.13,265.14c3.97-.89,7.45,2.59,6.56,6.56-.45,2-2.06,3.62-4.06,4.07-3.97.89-7.45-2.59-6.57-6.57.45-2,2.06-3.62,4.07-4.06ZM344.45,211.23c-3.97.89-7.45-2.59-6.56-6.56.45-2,2.06-3.62,4.06-4.07,3.97-.89,7.45,2.59,6.57,6.56-.45,2-2.06,3.62-4.07,4.07Z"/>
    <g>
      <path class="cls-2" d="M24.8,366.62c.06-.37.1-.76.1-1.19v-20.24h3.22l8.54,13.44v-12.34c0-.59-.05-.96-.16-1.1h4.35c-.05.43-.08.9-.08,1.42v20.01h-3.35l-8.41-12.91v12.91h-4.21Z"/>
      <path class="cls-2" d="M62.61,362.76c.67,0,1.13-.06,1.39-.19l.06.02-.16,4.04h-12.07v-21.54c.29.02.61.04.97.05l1.13.03c.75.02,1.57.03,2.45.03,2.46,0,4.89-.04,7.3-.13-.12.95-.18,2.21-.18,3.79,0,.17.01.3.03.39l-.03.05c-.56-.16-1.35-.24-2.38-.24h-5.08v4.11h3.82c1.18,0,1.89-.03,2.13-.1l.05,3.98c-.52-.05-1.18-.08-2-.08h-4v5.8h6.57Z"/>
      <path class="cls-2" d="M85.85,345.11c.67.05,1.22.08,1.66.08h1.34c.45,0,.92-.04,1.42-.13v13.33c0,2.64-.8,4.76-2.4,6.37-1.51,1.51-3.42,2.27-5.7,2.27-2.5,0-4.53-.65-6.07-1.95-1.73-1.46-2.59-3.57-2.59-6.32v-13.65c.89.05,1.73.08,2.52.08s1.44-.04,1.96-.13v13.91c0,1.35.41,2.41,1.24,3.16.77.69,1.74,1.03,2.9,1.03,1.72,0,2.86-.88,3.43-2.64.2-.63.31-1.42.31-2.35v-13.05Z"/>
      <path class="cls-2" d="M107.89,358.29c-.32.02-.67.03-1.03.03s-.91-.03-1.63-.08v8.38h-4.27v-21.54c1.5-.19,3.35-.29,5.54-.29,2.99,0,5.21.55,6.68,1.65,1.47,1.1,2.2,2.8,2.2,5.1,0,1.78-.67,3.31-2.01,4.58-.44.41-.95.76-1.51,1.06l3.29,6.93c.64,1.43,1.14,2.28,1.48,2.55l-.08.08c-1.04-.17-2.68-.17-4.92.02l-3.74-8.46ZM106.81,348.59c-.55,0-1.07.03-1.58.08v6.16c.53.08,1.14.11,1.85.11s1.31-.06,1.79-.19c.48-.12.9-.31,1.26-.57.76-.57,1.14-1.42,1.14-2.56s-.4-1.94-1.19-2.4c-.74-.42-1.83-.63-3.27-.63Z"/>
      <path class="cls-2" d="M127.03,366.75c-.92-.09-2-.13-3.24-.13h-1.27l7.01-19.64c.31-.88.47-1.39.47-1.54s0-.23-.02-.27l.02-.03c.7.03,1.44.05,2.22.05.64,0,1.42-.01,2.32-.03l.02.03s-.03.1-.03.18c0,.21.16.75.48,1.63l7.15,19.67c-.21-.01-.47-.02-.76-.02l-.84-.03h-3.22l-1.51-4.64h-7.28l-1.51,4.77ZM134.57,358.12l-2.43-7.49-2.37,7.49h4.8Z"/>
      <path class="cls-2" d="M153.18,366.62c-1.58,0-2.63.03-3.14.1v-21.62c.26.06.79.1,1.6.1s1.75-.02,2.83-.06v17.63h3.33c.97,0,1.74-.03,2.32-.1-.08,2.51-.11,3.82-.11,3.92v.16c-1.05-.08-2.82-.11-5.3-.11h-1.53Z"/>
      <path class="cls-2" d="M188.26,366.7c-.52-.06-1.51-.1-2.98-.1h-1.29v-21.5c.69.04,1.45.06,2.27.06s1.41-.04,1.76-.13l5.41,9.2,5.2-9.2c.34.09,1,.13,1.97.13s1.79-.02,2.48-.06v21.5h-1.29c-1.47,0-2.47.03-2.98.1v-14.44l-5.27,9.43-5.29-8.67v13.68Z"/>
      <path class="cls-2" d="M215.55,366.74c-.92-.09-2-.13-3.24-.13h-1.27l7.01-19.64c.31-.88.47-1.39.47-1.54s0-.23-.02-.27l.02-.03c.7.03,1.44.05,2.22.05.64,0,1.42-.01,2.32-.03l.02.03s-.03.1-.03.18c0,.21.16.75.48,1.63l7.15,19.67c-.21-.01-.47-.02-.76-.02l-.84-.03h-3.22l-1.51-4.64h-7.28l-1.52,4.77ZM223.09,358.1l-2.43-7.49-2.37,7.49h4.8Z"/>
      <path class="cls-2" d="M248.16,344.77c2.01,0,3.72.35,5.14,1.05v4.93l-.03.03c-.6-.92-1.87-1.54-3.8-1.84-.57-.1-1.29-.14-2.16-.14s-1.72.16-2.56.49c-.84.33-1.53.79-2.06,1.39-1.04,1.17-1.56,2.84-1.56,5.01,0,2.52.66,4.4,1.98,5.64,1.1,1.03,2.55,1.55,4.35,1.55,2.04,0,3.7-.43,4.96-1.3.46-.31.85-.7,1.18-1.16l.05.03v4.51c-1.64,1.36-3.86,2.05-6.64,2.05-3.28,0-5.84-1.04-7.7-3.12-1.78-1.99-2.67-4.62-2.67-7.9,0-3.47.98-6.2,2.93-8.2,1.98-2.01,4.84-3.01,8.6-3.01Z"/>
      <path class="cls-2" d="M267.33,366.7c-1.03-.06-2.26-.1-3.67-.1h-.52v-21.51c.67.05,1.14.08,1.42.08h.66c.85,0,1.55-.04,2.11-.13v8.59h7.57v-8.54c.89.05,1.76.08,2.6.08s1.37-.04,1.59-.13v21.66c-.52-.06-1.54-.1-3.06-.1h-1.13v-9.1h-7.57v9.2Z"/>
      <path class="cls-2" d="M290.74,345.11c1.07.04,1.72.06,1.95.06h1.16c.57,0,1.03-.04,1.37-.13l-.02,21.56h-4.46v-21.5Z"/>
      <path class="cls-2" d="M306.69,366.61c.06-.37.1-.76.1-1.19v-20.24h3.22l8.54,13.44v-12.34c0-.59-.05-.96-.16-1.1h4.35c-.05.43-.08.9-.08,1.42v20.01h-3.35l-8.41-12.91v12.91h-4.21Z"/>
      <path class="cls-2" d="M344.5,362.74c.67,0,1.13-.06,1.39-.19l.06.02-.16,4.04h-12.07v-21.54c.29.02.61.04.97.05l1.13.03c.75.02,1.57.03,2.45.03,2.46,0,4.89-.04,7.3-.13-.12.95-.18,2.21-.18,3.79,0,.17.01.3.03.39l-.03.05c-.56-.16-1.35-.24-2.38-.24h-5.08v4.11h3.82c1.18,0,1.89-.03,2.13-.1l.05,3.98c-.52-.05-1.18-.08-2-.08h-4v5.8h6.57Z"/>
      <path class="cls-2" d="M368.47,346.37l-.31,4.74-.11.03c-.79-1.19-2.15-1.97-4.06-2.32-.6-.12-1.18-.18-1.73-.18s-1.03.05-1.42.15c-.39.1-.73.24-1.01.42-.59.39-.89.89-.89,1.51,0,.82.26,1.43.77,1.84.64.49,1.71.84,3.21,1.04,1.49.2,2.69.47,3.59.81s1.64.78,2.22,1.3c1.1.99,1.64,2.38,1.64,4.19,0,2.36-.89,4.18-2.67,5.46-1.53,1.1-3.45,1.64-5.77,1.64-1.87,0-3.72-.35-5.54-1.06-.6-.24-1.13-.51-1.58-.82l.18-5.38.06-.05c1.33,2.3,3.52,3.45,6.56,3.45,2.16,0,3.59-.52,4.29-1.56.24-.35.35-.75.35-1.18s-.07-.79-.21-1.08c-.14-.29-.37-.53-.69-.73-.62-.41-1.67-.68-3.14-.82-1.47-.14-2.68-.4-3.61-.79-.94-.39-1.68-.86-2.24-1.43-1.01-1.03-1.51-2.47-1.51-4.32s.67-3.46,2.01-4.64c1.36-1.2,3.2-1.8,5.52-1.8s4.34.53,6.08,1.6Z"/>
    </g>
  </g>
</svg>