<?xml version="1.0" encoding="UTF-8"?>
<svg id="Layer_1" data-name="Layer 1" xmlns="http://www.w3.org/2000/svg" viewBox="0 0 311.36 302.4">
  <defs>
    <style>
      .cls-1 {
        fill: #010101;
      }
    </style>
  </defs>
  <path class="cls-1" d="M303.67,174.94l.19-64.83c4.85-1.23,8.3-6.03,7.35-11.43-.7-4-3.9-7.24-7.9-7.98-6.32-1.18-11.85,3.67-11.85,9.78,0,1.14.2,2.23.56,3.26l-113.32,57.75c-.86.44-1.9.26-2.56-.44l-17.91-18.79c-.18-.19-.28-.44-.28-.7v-4.34s.03-24.03.03-24.03c0-.75.42-1.43,1.09-1.77l98.84-49.74c2.16,2.25,5.36,3.5,8.83,2.94,4.07-.66,7.38-3.88,8.13-7.93,1.17-6.31-3.67-11.84-9.78-11.84-1.47,0-2.85.33-4.11.9l-56.37-33.1c.5-1.8.55-3.79-.21-5.89-1.31-3.63-4.61-6.32-8.45-6.67-6.52-.59-11.91,5.15-10.71,11.76.7,3.85,3.7,7,7.52,7.85s7.42-.53,9.7-3.1l54.75,32.15c-1.29,1.68-2.07,3.77-2.07,6.05,0,1.05.16,2.06.47,3.01l-98.76,49.7c-.7.35-1.53.35-2.23,0L55.77,57.76c.3-.95.47-1.96.47-3.01,0-2.28-.78-4.37-2.07-6.05l54.75-32.15c2.28,2.57,5.86,3.96,9.7,3.1s6.82-4,7.52-7.85c1.2-6.61-4.19-12.35-10.71-11.76-3.85.35-7.14,3.03-8.45,6.67-.76,2.1-.71,4.09-.21,5.89l-56.37,33.1c-1.4-.64-2.97-.97-4.63-.88-5.14.27-9.35,4.62-9.43,9.77-.09,5.56,4.41,10.12,9.95,10.12,2.82,0,5.36-1.18,7.18-3.07l98.48,49.56c.89.45,1.46,1.36,1.46,2.36l.04,23.65v3.58c0,.73-.29,1.43-.79,1.96l-17.28,18.13c-.74.78-1.91.98-2.86.49L19.35,103.69c.47-1.36.68-2.85.49-4.42-.6-4.95-4.93-8.81-9.91-8.79-5.48.01-9.93,4.47-9.93,9.95,0,4.64,3.2,8.54,7.51,9.64l.19,64.83c-4.94,1.15-8.48,5.98-7.55,11.44.69,4.02,3.89,7.28,7.91,8.02,6.32,1.17,11.85-3.67,11.85-9.78,0-4.72-3.3-8.67-7.71-9.69l-.19-64.72c1.9-.4,3.6-1.34,4.93-2.66l113.82,58c.86.44,1.41,1.32,1.41,2.29l.38,114.85c-1.75.36-3.33,1.19-4.61,2.34l-67.84-32.39c.68-1.81.87-3.85.31-6-1.01-3.85-4.32-6.81-8.27-7.34-6.68-.89-12.31,4.9-11.16,11.61.69,4.05,3.94,7.32,7.99,8.05,3.33.6,6.42-.49,8.61-2.54l67.74,32.34c-.55,1.38-.81,2.9-.68,4.49.42,5.04,4.74,9.07,9.79,9.14,5.55.07,10.08-4.42,10.08-9.95,0-4.63-3.18-8.52-7.46-9.63l-.28-84.67h.1s-.05-30.86-.05-30.86c0-.88.34-1.73.95-2.37l17.23-18.08c.37-.39.99-.39,1.35,0l16.92,17.75c.83.87,1.29,2.03,1.29,3.24l-.05,30.36h.1s-.28,84.67-.28,84.67c-4.83,1.25-8.26,6.04-7.3,11.43.71,4,3.9,7.23,7.9,7.97,6.32,1.18,11.85-3.67,11.85-9.78,0-1.3-.26-2.54-.71-3.68l67.74-32.34c2.18,2.05,5.27,3.13,8.61,2.54,4.05-.72,7.3-3.99,7.99-8.05,1.15-6.72-4.48-12.5-11.16-11.61-3.95.53-7.25,3.48-8.27,7.34-.57,2.15-.37,4.19.31,6l-67.84,32.39c-1.28-1.15-2.86-1.98-4.61-2.34l.38-114.72c0-1.05.59-2.01,1.53-2.48l113.7-57.94c1.33,1.32,3.03,2.26,4.93,2.66l-.19,64.72c-4.95,1.15-8.5,5.98-7.56,11.44.69,4.02,3.89,7.28,7.91,8.03,6.32,1.17,11.85-3.67,11.85-9.78,0-4.71-3.29-8.66-7.7-9.69ZM196.26,15.3c-3.97.89-7.45-2.59-6.56-6.56.45-2,2.06-3.62,4.06-4.07,3.97-.89,7.46,2.59,6.57,6.57-.45,2-2.06,3.62-4.07,4.06ZM115.01,4.74c3.97-.89,7.45,2.59,6.56,6.56-.45,2-2.06,3.62-4.07,4.07-3.97.89-7.45-2.59-6.56-6.56.45-2,2.06-3.62,4.07-4.07ZM15.18,183.45c.89,3.97-2.59,7.45-6.56,6.56-2-.45-3.62-2.06-4.07-4.07-.89-3.97,2.59-7.45,6.57-6.56,2,.45,3.62,2.06,4.06,4.07ZM51.95,254.55c-3.97.89-7.45-2.59-6.56-6.56.45-2,2.06-3.62,4.06-4.07,3.97-.89,7.45,2.59,6.57,6.56-.45,2-2.06,3.62-4.07,4.07ZM259.33,243.85c3.97-.89,7.45,2.59,6.56,6.56-.45,2-2.06,3.62-4.06,4.07-3.97.89-7.45-2.59-6.57-6.57.45-2,2.06-3.62,4.07-4.06ZM302.66,189.94c-3.97.89-7.45-2.59-6.56-6.56.45-2,2.06-3.62,4.06-4.07,3.97-.89,7.45,2.59,6.57,6.56-.45,2-2.06,3.62-4.07,4.07Z"/>
</svg>