<?xml version="1.0" encoding="UTF-8"?>
<svg version="1.1" xmlns="http://www.w3.org/2000/svg" width="576" height="576">
<path d="M0 0 C1.32 0 2.64 0 4 0 C4 1.32 4 2.64 4 4 C2.98679687 4.36351562 2.98679687 4.36351562 1.953125 4.734375 C-4.78469251 7.19836927 -4.78469251 7.19836927 -10 12 C-8.700625 12.39638672 -8.700625 12.39638672 -7.375 12.80078125 C-2.97701752 14.3634903 0.92853824 16.59177842 5 18.85546875 C8.64871562 20.24749177 10.2699735 20.08871332 14 19 C16.48075473 17.87066078 18.85386119 16.71933273 21.25 15.4375 C27.76174168 12 27.76174168 12 30 12 C25.86042401 7.55378876 22.08818211 4.8697403 16 4 C16 2.68 16 1.36 16 0 C18.475 0.495 18.475 0.495 21 1 C21 1.66 21 2.32 21 3 C21.721875 3.268125 22.44375 3.53625 23.1875 3.8125 C26 5 26 5 28.5625 6.5625 C30.78146478 7.87112025 32.49075157 8.53532436 35 9 C34.67 10.65 34.34 12.3 34 14 C32.7625 14.37125 31.525 14.7425 30.25 15.125 C25.05952093 16.83315448 20.33379617 19.25773917 15.50390625 21.79296875 C13 23 13 23 11 23 C11.66 25.31 12.32 27.62 13 30 C15.55485748 30.95921522 16.68307271 31.1204766 19.27416992 30.13549805 C20.08474854 29.68215088 20.89532715 29.22880371 21.73046875 28.76171875 C22.61541016 28.27123047 23.50035156 27.78074219 24.41210938 27.27539062 C25.32798828 26.75138672 26.24386719 26.22738281 27.1875 25.6875 C28.11498047 25.17509766 29.04246094 24.66269531 29.99804688 24.13476562 C34.74190009 21.82895799 34.74190009 21.82895799 38 18 C39.32 18 40.64 18 42 18 C42 25.26 42 32.52 42 40 C40.35 39.67 38.7 39.34 37 39 C37.33 38.01 37.66 37.02 38 36 C38.22451458 33.77425665 38.40782878 31.54418481 38.5625 29.3125 C38.64628906 28.13300781 38.73007812 26.95351563 38.81640625 25.73828125 C38.90728516 24.38283203 38.90728516 24.38283203 39 23 C38.34402832 23.33322266 37.68805664 23.66644531 37.01220703 24.00976562 C34.05188504 25.5106557 31.08850071 27.00539679 28.125 28.5 C27.09246094 29.02464844 26.05992187 29.54929687 24.99609375 30.08984375 C24.00996094 30.58613281 23.02382813 31.08242188 22.0078125 31.59375 C21.09660645 32.05458984 20.18540039 32.51542969 19.24658203 32.99023438 C17 34 17 34 15 34 C15.495 45.385 15.495 45.385 16 57 C18.79947917 55.69791667 21.59895833 54.39583333 24.3984375 53.09375 C27 52 27 52 29 52 C29.33 51.01 29.66 50.02 30 49 C31.32 49 32.64 49 34 49 C33.67 50.65 33.34 52.3 33 54 C32.360625 54.0825 31.72125 54.165 31.0625 54.25 C27.45769176 55.13281018 24.33564223 56.57930174 20.98828125 58.16015625 C19 59 19 59 17 59 C17 59.99 17 60.98 17 62 C16.01 62.33 15.02 62.66 14 63 C13.01 62.505 13.01 62.505 12 62 C12 52.43 12 42.86 12 33 C10.68 33 9.36 33 8 33 C8 42.57 8 52.14 8 62 C6.515 62.495 6.515 62.495 5 63 C4.34 62.67 3.68 62.34 3 62 C3 61.01 3 60.02 3 59 C1.63875 58.566875 1.63875 58.566875 0.25 58.125 C-3 57 -3 57 -4.9375 56 C-7.8474176 54.58913086 -10.88479399 53.83870931 -14 53 C-14 51.68 -14 50.36 -14 49 C-12.35 49 -10.7 49 -9 49 C-9 49.99 -9 50.98 -9 52 C-8.175 52.2475 -7.35 52.495 -6.5 52.75 C-2.53159474 54.16728759 1.23097419 56.1154871 5 58 C5 50.08 5 42.16 5 34 C3.02 33.34 1.04 32.68 -1 32 C-2.52348949 31.31237354 -4.03276477 30.59207584 -5.5234375 29.8359375 C-6.31621094 29.43632812 -7.10898437 29.03671875 -7.92578125 28.625 C-8.73402344 28.2125 -9.54226563 27.8 -10.375 27.375 C-11.20644531 26.95476562 -12.03789062 26.53453125 -12.89453125 26.1015625 C-14.93156359 25.07133925 -16.96662189 24.03741179 -19 23 C-18.9278125 23.89203125 -18.855625 24.7840625 -18.78125 25.703125 C-18.6884375 26.87359375 -18.595625 28.0440625 -18.5 29.25 C-18.4071875 30.41015625 -18.314375 31.5703125 -18.21875 32.765625 C-18.05595356 35.17268658 -18 37.58743951 -18 40 C-19.32 40 -20.64 40 -22 40 C-22 32.74 -22 25.48 -22 18 C-18 18 -18 18 -16.28125 19.69921875 C-15.5284375 20.45847656 -14.775625 21.21773438 -14 22 C-11.25459968 23.77185927 -8.38910818 25.28946419 -5.5 26.8125 C-4.36111328 27.44188477 -4.36111328 27.44188477 -3.19921875 28.08398438 C-2.46316406 28.47521484 -1.72710937 28.86644531 -0.96875 29.26953125 C-0.30294922 29.62635986 0.36285156 29.98318848 1.04882812 30.35083008 C3.41405729 31.13776005 4.67890756 30.80571924 7 30 C7.99 26.535 7.99 26.535 9 23 C7.73542969 22.61521484 7.73542969 22.61521484 6.4453125 22.22265625 C2.75183521 20.91193245 -0.65901535 19.24502963 -4.125 17.4375 C-9.34770444 14.65672384 -9.34770444 14.65672384 -15 13 C-15 11.68 -15 10.36 -15 9 C-13.948125 8.566875 -12.89625 8.13375 -11.8125 7.6875 C-9.45270359 6.68434768 -7.40094175 5.64056505 -5.1875 4.3125 C-3 3 -3 3 -1 3 C-0.67 2.01 -0.34 1.02 0 0 Z " fill="#FEFEFE" transform="translate(278,256)"/>
</svg>
