<?xml version="1.0" encoding="UTF-8"?>
<svg version="1.1" xmlns="http://www.w3.org/2000/svg" width="574" height="572">
<path d="M0 0 C1.32 0 2.64 0 4 0 C4 1.32 4 2.64 4 4 C2.3962669 4.64690922 0.79199694 5.29248764 -0.8125 5.9375 C-1.70582031 6.29714844 -2.59914063 6.65679687 -3.51953125 7.02734375 C-5.3270909 7.73613486 -7.15807409 8.3860247 -9 9 C-9 9.99 -9 10.98 -9 12 C-8.13375 12.26296875 -7.2675 12.5259375 -6.375 12.796875 C-1.96081403 14.37045055 1.93277731 16.64412879 6 18.953125 C9.88137285 20.3075624 11.29967961 19.68670174 15 18 C17.29445189 16.88049758 19.56556732 15.71205968 21.8125 14.5 C22.95332031 13.8915625 24.09414063 13.283125 25.26953125 12.65625 C28.08060836 11.28278224 28.08060836 11.28278224 29 9 C28.0409375 8.62875 28.0409375 8.62875 27.0625 8.25 C23.00011649 6.59188428 19.00275094 4.7964416 15 3 C15.33 2.01 15.66 1.02 16 0 C17.32 0 18.64 0 20 0 C20.53625 0.556875 21.0725 1.11375 21.625 1.6875 C25.18457972 5.15340657 29.5293851 6.91826329 34 9 C33.77734375 10.87890625 33.77734375 10.87890625 33 13 C31.06640625 14.08984375 31.06640625 14.08984375 28.5625 14.9375 C23.83869098 16.64350873 19.47454595 18.71273852 15.03125 21.046875 C13 22 13 22 11 22 C11.495 25.465 11.495 25.465 12 29 C14.40378124 29.85530205 15.62654408 30.12827934 18.07470703 29.28735352 C18.79513184 28.90506592 19.51555664 28.52277832 20.2578125 28.12890625 C21.04800781 27.71962891 21.83820313 27.31035156 22.65234375 26.88867188 C23.46832031 26.45103516 24.28429687 26.01339844 25.125 25.5625 C26.75086017 24.70631542 28.37838769 23.85328727 30.0078125 23.00390625 C30.72598145 22.62049072 31.44415039 22.2370752 32.18408203 21.84204102 C34 21 34 21 36 21 C36.495 19.515 36.495 19.515 37 18 C38.32 18 39.64 18 41 18 C41 24.6 41 31.2 41 38 C39.02 38.495 39.02 38.495 37 39 C36.67 38.01 36.34 37.02 36 36 C36.495 35.01 36.495 35.01 37 34 C37.22858114 31.9625237 37.41024278 29.91959697 37.5625 27.875 C37.64628906 26.77929688 37.73007812 25.68359375 37.81640625 24.5546875 C37.90728516 23.29011719 37.90728516 23.29011719 38 22 C37.37432129 22.33322266 36.74864258 22.66644531 36.10400391 23.00976562 C33.27990966 24.51077093 30.45251792 26.00545481 27.625 27.5 C26.64015625 28.02464844 25.6553125 28.54929687 24.640625 29.08984375 C23.69960938 29.58613281 22.75859375 30.08242188 21.7890625 30.59375 C20.91975098 31.05458984 20.05043945 31.51542969 19.15478516 31.99023438 C17 33 17 33 15 33 C15.33 40.26 15.66 47.52 16 55 C17.77375 54.236875 19.5475 53.47375 21.375 52.6875 C22.37273437 52.25824219 23.37046875 51.82898438 24.3984375 51.38671875 C27.25774508 50.1261594 27.25774508 50.1261594 29 47 C30.32 47.33 31.64 47.66 33 48 C32.76171875 49.90234375 32.76171875 49.90234375 32 52 C30.14453125 52.94140625 30.14453125 52.94140625 27.8125 53.5625 C23.95814834 54.6936016 20.50373601 55.98535179 17 58 C16.505 58.99 16.505 58.99 16 60 C14.68 60 13.36 60 12 60 C12 50.76 12 41.52 12 32 C10.68 32 9.36 32 8 32 C8 41.24 8 50.48 8 60 C6.35 59.67 4.7 59.34 3 59 C3 58.34 3 57.68 3 57 C2.154375 56.731875 1.30875 56.46375 0.4375 56.1875 C-2.00718041 55.34297404 -4.32344625 54.46359993 -6.6875 53.4375 C-9.9125397 51.98050103 -9.9125397 51.98050103 -13 51 C-13 49.68 -13 48.36 -13 47 C-11.68 47 -10.36 47 -9 47 C-9 47.99 -9 48.98 -9 50 C-8.175 50.2475 -7.35 50.495 -6.5 50.75 C-2.53159474 52.16728759 1.23097419 54.1154871 5 56 C5 48.41 5 40.82 5 33 C3.02 32.34 1.04 31.68 -1 31 C-2.4535737 30.31706415 -3.89063943 29.597348 -5.3046875 28.8359375 C-6.42617188 28.23652344 -6.42617188 28.23652344 -7.5703125 27.625 C-8.33085937 27.2125 -9.09140625 26.8 -9.875 26.375 C-11.050625 25.74464844 -11.050625 25.74464844 -12.25 25.1015625 C-14.16892057 24.0718978 -16.08477603 23.03652433 -18 22 C-17.67 27.61 -17.34 33.22 -17 39 C-18.32 39 -19.64 39 -21 39 C-21 32.07 -21 25.14 -21 18 C-17 18 -17 18 -15.52807617 19.3449707 C-15.02381104 19.89113037 -14.5195459 20.43729004 -14 21 C-12.54637145 21.87755653 -11.05924325 22.70092798 -9.55078125 23.48046875 C-8.70322266 23.92197266 -7.85566406 24.36347656 -6.98242188 24.81835938 C-5.66081055 25.49608398 -5.66081055 25.49608398 -4.3125 26.1875 C-3.41982422 26.65091797 -2.52714844 27.11433594 -1.60742188 27.59179688 C0.59249451 28.73292997 2.79497842 29.8687722 5 31 C8.11990898 28.21466571 8.53816182 26.15654359 9 22 C8.13503906 21.73316406 7.27007812 21.46632813 6.37890625 21.19140625 C1.98634119 19.64258273 -1.98314551 17.50565442 -6.09765625 15.33984375 C-8.78719613 14.0982392 -11.08426752 13.4333474 -14 13 C-13.9375 10.6875 -13.9375 10.6875 -13 8 C-9.75 6.375 -9.75 6.375 -6 5 C-2.32039289 3.16214554 -2.32039289 3.16214554 0 0 Z M17 1 C18 3 18 3 18 3 Z " fill="#010101" transform="translate(277,256)"/>
</svg>
