<?xml version="1.0" encoding="UTF-8"?>
<svg version="1.1" xmlns="http://www.w3.org/2000/svg" width="1472" height="1445">
<path d="M0 0 C1.01126953 0.69802734 1.01126953 0.69802734 2.04296875 1.41015625 C2.62433594 1.78269531 3.20570313 2.15523438 3.8046875 2.5390625 C10.08624858 7.08014066 13.61130648 14.99154268 15.04296875 22.41015625 C16.00967225 31.05099833 14.22156406 38.686207 9.34765625 45.9296875 C3.17493526 53.46440563 -4.37370939 57.53735883 -14.02734375 58.6484375 C-22.07077972 58.93897986 -29.51190469 56.55003928 -35.83203125 51.53515625 C-37.37890625 50.48328125 -37.37890625 50.48328125 -38.95703125 49.41015625 C-42.48016104 50.43893021 -45.52418043 52.2149449 -48.67578125 54.0703125 C-49.59254639 54.60760986 -50.50931152 55.14490723 -51.45385742 55.69848633 C-52.44490479 56.2839624 -53.43595215 56.86943848 -54.45703125 57.47265625 C-55.50802002 58.08971436 -56.55900879 58.70677246 -57.6418457 59.3425293 C-59.90740313 60.67293681 -62.17223555 62.00450169 -64.43603516 63.33789062 C-67.94397046 65.40351645 -71.45585975 67.462346 -74.96875 69.51953125 C-79.82383122 72.36302627 -84.67809326 75.20790894 -89.53125 78.0546875 C-96.23730345 81.988233 -102.94424579 85.92026018 -109.65148926 89.85177612 C-111.45617861 90.90965645 -113.26081287 91.9676307 -115.06542969 93.02563477 C-120.56779115 96.25148237 -126.07042266 99.47686584 -131.57418823 102.70031738 C-143.90368049 109.92150809 -156.22780042 117.15109571 -168.52368164 124.42944336 C-180.97784814 131.79645241 -193.47000428 139.09903755 -205.95703125 146.41015625 C-205.59609375 147.25835937 -205.23515625 148.1065625 -204.86328125 148.98046875 C-204.39921875 150.15351563 -203.93515625 151.3265625 -203.45703125 152.53515625 C-202.99296875 153.67210937 -202.52890625 154.8090625 -202.05078125 155.98046875 C-200.16066853 161.91365071 -200.76304146 168.26175748 -200.95703125 174.41015625 C-199.89279182 174.9406105 -199.89279182 174.9406105 -198.80705261 175.48178101 C-192.02777856 178.86128122 -185.24954037 182.24284705 -178.47237682 185.62657738 C-174.99050842 187.36493336 -171.50828321 189.10256548 -168.02514648 190.83837891 C-164.64604768 192.52238199 -161.26801153 194.20850069 -157.89061928 195.89592361 C-156.6199934 196.53033259 -155.34902411 197.16405437 -154.0776577 197.796978 C-147.59312814 201.02576374 -141.13899265 204.30036013 -134.74148273 207.69877815 C-120.88381154 215.05841205 -106.83174106 222.02860007 -92.79003143 229.02788734 C-89.03184342 230.90190714 -85.27500901 232.77863645 -81.51806641 234.65515137 C-71.99892168 239.40922578 -62.47807449 244.15988544 -52.95703125 248.91015625 C-42.66999368 254.04259953 -32.38327682 259.17568006 -22.09852409 264.31270075 C-18.38037371 266.16971849 -14.66181003 268.02589765 -10.94219971 269.87998962 C3.06920177 276.86437144 17.06405552 283.86395616 30.88998413 291.21121216 C41.47099065 296.8320975 52.191863 302.19077223 62.89088917 307.58243084 C66.79243226 309.54863552 70.69042994 311.52128883 74.58129883 313.50854492 C78.4022254 315.45990726 82.23072714 317.39555264 86.06516075 319.32023048 C87.51159231 320.04955343 88.95526877 320.78436858 90.39600563 321.52487755 C92.39717258 322.55212734 94.40745679 323.55884532 96.42114258 324.5612793 C97.55852371 325.13734421 98.69590485 325.71340912 99.86775208 326.30693054 C104.24119276 327.82647793 107.35126599 327.09241459 111.60226727 325.37799931 C112.45698022 324.94944865 113.31169317 324.520898 114.19230652 324.07936096 C115.67803917 323.3417025 115.67803917 323.3417025 117.19378662 322.58914185 C118.26445374 322.04740326 119.33512085 321.50566467 120.43823242 320.94750977 C121.57901749 320.37821243 122.71980255 319.8089151 123.89515686 319.22236633 C127.0194723 317.66291443 130.13873035 316.09358583 133.25712371 314.52233243 C136.54196268 312.86921513 139.8312186 311.22493176 143.11994934 309.57957458 C148.65644673 306.80810173 154.1899535 304.03073593 159.72143555 301.24926758 C166.76250615 297.70873575 173.80802038 294.17714917 180.85517406 290.64874363 C186.9682969 287.58798295 193.07965181 284.52369806 199.19056535 281.45852923 C200.48784909 280.80787925 201.78518738 280.15733801 203.08258224 279.50690961 C220.76289991 270.65828947 220.76289991 270.65828947 238.2980957 261.52709961 C251.27534734 254.63242005 264.46316266 248.14593432 277.61382675 241.59049606 C281.42806857 239.68844776 285.24095794 237.7836923 289.05395508 235.87915039 C299.53322094 230.6454816 310.01451019 225.41587017 320.49583435 220.18632507 C330.11920624 215.3847927 339.74212192 210.58235153 349.36341 205.77664471 C353.13745189 203.89168168 356.91190748 202.00755786 360.68740845 200.1255188 C375.06564323 192.95796906 389.43593809 185.79070296 403.61450195 178.23266602 C406.07692712 176.92368618 408.53898408 175.6365236 411.04296875 174.41015625 C411.00816406 173.58773437 410.97335937 172.7653125 410.9375 171.91796875 C410.70546562 162.34931293 412.5239605 155.18680602 416.04296875 146.41015625 C415.40721924 146.0447876 414.77146973 145.67941895 414.11645508 145.30297852 C391.79495488 132.46746985 369.57272713 119.46736356 347.41333008 106.35400391 C336.22247784 99.73515482 324.99985597 93.17042099 313.78076172 86.59960938 C309.50480279 84.09512908 305.22955007 81.58944455 300.95492554 79.08268738 C297.96248008 77.32791623 294.96935301 75.57433287 291.97460938 73.82348633 C286.29153476 70.49922355 280.61682638 67.16240408 274.96432495 63.78634644 C272.28497733 62.18698532 269.60187883 60.59397835 266.91845703 59.00146484 C265.63644928 58.23820349 264.35630077 57.47180972 263.078125 56.70214844 C261.30926221 55.63727808 259.53436453 54.58322638 257.7578125 53.53125 C256.748396 52.92724365 255.73897949 52.3232373 254.69897461 51.70092773 C251.93553348 50.11875698 251.93553348 50.11875698 248.04296875 50.41015625 C245.86415404 51.64013457 245.86415404 51.64013457 243.73046875 53.28515625 C236.55931595 58.22917054 229.62741429 59.32290349 221.04296875 58.41015625 C211.52319401 56.24715981 204.57932307 51.52718773 199.16796875 43.41015625 C194.87615505 35.86696854 193.73200277 28.04652494 195.6953125 19.60546875 C198.65562704 10.43230523 204.47452253 3.025311 213.04296875 -1.58984375 C221.05598078 -4.77263454 230.27675785 -4.96372477 238.41796875 -2.02734375 C246.86569449 1.97493943 252.00517951 7.59352128 256.0234375 16.01171875 C257.54498396 21.08354029 257.05467238 25.75954793 256.375 30.96484375 C257.14699517 34.94671357 257.58808968 35.22860504 260.79296875 37.4140625 C262.52858722 38.4375497 264.28002948 39.43448077 266.04296875 40.41015625 C266.97520264 40.95929688 267.90743652 41.5084375 268.86791992 42.07421875 C271.97358943 43.90129355 275.09948986 45.68933216 278.23046875 47.47265625 C280.56173177 48.80897801 282.8925697 50.14600642 285.22265625 51.484375 C285.80414932 51.8181012 286.3856424 52.15182739 286.98475647 52.4956665 C292.30029066 55.5498187 297.58288169 58.65760952 302.85546875 61.78515625 C311.25847104 66.76696922 319.67649788 71.7224561 328.10546875 76.66015625 C328.71572906 77.01768982 329.32598938 77.37522339 329.95474243 77.74359131 C333.07142167 79.56952046 336.18825443 81.39518731 339.30517578 83.22070312 C342.9773799 85.371557 346.64895611 87.52348075 350.3203125 89.67578125 C351.21504524 90.20030632 351.21504524 90.20030632 352.12785339 90.73542786 C354.53577947 92.14707877 356.94367614 93.55877983 359.35153198 94.97055054 C365.41053523 98.52305626 371.46967802 102.07531623 377.53147888 105.62304688 C378.75285271 106.33799145 379.97409498 107.05316081 381.19520569 107.76855469 C384.21551292 109.53798944 387.23727712 111.3048152 390.26245117 113.06591797 C395.78101936 116.28424072 401.2742965 119.53219698 406.70227051 122.9016571 C409.15930514 124.42603843 411.62514939 125.93586479 414.09124756 127.44552612 C415.80884882 128.50636254 417.51234209 129.58993516 419.21533203 130.67407227 C425.36098687 134.6730484 425.36098687 134.6730484 432.40625 135.359375 C433.60636719 135.04613281 434.80648437 134.73289062 436.04296875 134.41015625 C447.14931573 133.60169901 455.22289208 134.96618402 463.91796875 142.16015625 C469.90692086 147.82109154 473.07626179 154.46106521 473.4375 162.75415039 C473.63878967 172.56130327 471.7398067 179.88033209 465.21484375 187.5625 C458.74684876 193.78071469 451.45386917 196.58555236 442.54296875 196.91015625 C435.16125052 196.66642027 428.92950814 194.90307664 423.29296875 190.03515625 C422.55046875 189.49890625 421.80796875 188.96265625 421.04296875 188.41015625 C417.01399954 189.47053757 413.38225615 191.1157674 409.66584778 192.97509766 C408.62487442 193.49348709 407.58390106 194.01187653 406.51138306 194.54597473 C405.38461151 195.11217026 404.25783997 195.67836578 403.09692383 196.26171875 C401.88567164 196.86680777 400.67424623 197.47155014 399.46266174 198.07597351 C396.1790151 199.71537823 392.89788502 201.35976145 389.61723924 203.00516129 C386.16279056 204.73679938 382.70621586 206.46418395 379.24992371 208.19213867 C373.43225656 211.10144043 367.61614452 214.01383154 361.80102539 216.92822266 C355.12747651 220.27280941 348.45188727 223.61329246 341.77506334 226.95133591 C334.61822946 230.52941147 327.46293404 234.11055535 320.30806518 237.69255829 C318.27329356 238.71099741 316.23824742 239.72888608 314.20313454 240.74664307 C296.86767016 249.40137791 296.86767016 249.40137791 279.68066406 258.34570312 C267.5827146 264.77826703 255.29172564 270.83365242 243.02723503 276.94032288 C238.53737763 279.1759307 234.04938175 281.41525869 229.56166077 283.65515137 C216.81567746 290.01619567 204.06727354 296.37237914 191.31713867 302.72509766 C184.24004269 306.2512813 177.16444554 309.78045519 170.0903731 313.31270075 C166.36885499 315.17075702 162.64659837 317.02729623 158.92240715 318.87998962 C151.04632566 322.79912968 143.18840475 326.75033461 135.35144424 330.74715042 C132.30721497 332.27733284 129.24157949 333.7469074 126.16073608 335.20150757 C118.21822177 338.77662561 118.21822177 338.77662561 112.59812927 345.07366943 C112.03817005 348.20635714 112.13807173 350.78611392 112.46484375 353.94921875 C112.54105605 356.25935437 112.61448633 358.56958298 112.68554688 360.87988281 C112.786698 362.71033142 112.786698 362.71033142 112.88989258 364.57775879 C113.13084096 370.61011474 112.84710492 376.615719 112.62644958 382.64415741 C112.48980493 386.87693055 112.44430424 391.11135186 112.39128876 395.3458519 C112.34402796 398.95281899 112.27526211 402.5566727 112.15820312 406.16210938 C110.7079502 423.84567507 110.7079502 423.84567507 116.75091553 439.57168579 C119.00311246 441.78750902 121.46432449 443.59132168 124.04296875 445.41015625 C126.03089636 447.26542738 127.8998676 449.20543206 129.79296875 451.16015625 C131.16582031 452.51753906 131.16582031 452.51753906 132.56640625 453.90234375 C134.61187278 455.97362059 136.53511684 458.06839956 138.41796875 460.28515625 C142.12845754 464.64094744 146.20817773 468.60171356 150.27368164 472.62133789 C153.2443192 475.57134304 156.12733464 478.54296891 158.85546875 481.72265625 C159.63857422 482.62757813 159.63857422 482.62757813 160.4375 483.55078125 C161.62890318 484.93060586 162.81261762 486.31707716 163.9921875 487.70703125 C164.66894531 488.4546875 165.34570312 489.20234375 166.04296875 489.97265625 C166.64109375 490.65457031 167.23921875 491.33648438 167.85546875 492.0390625 C170.4723939 493.6793138 171.92972443 493.49337141 174.91271973 492.98762512 C179.39372729 491.77291156 183.4427707 489.52086436 187.55859375 487.4140625 C189.07425934 486.65270241 189.07425934 486.65270241 190.62054443 485.8759613 C193.84948826 484.2508509 197.07114021 482.61181947 200.29296875 480.97265625 C202.41231703 479.9047186 204.53210505 478.83765314 206.65234375 477.77148438 C216.9367217 472.58833568 227.17006699 467.31791517 237.347229 461.92750549 C244.4807673 458.15753807 251.68846379 454.54563647 258.91778564 450.96359253 C269.26419493 445.83496014 279.58051774 440.66999971 289.765625 435.2265625 C298.1541892 430.77060505 306.67554808 426.57858216 315.17883301 422.34735107 C322.96925704 418.46916143 330.74230931 414.57491744 338.41796875 410.47265625 C347.20586176 405.77708447 356.12396553 401.34957378 365.04296875 396.91015625 C378.3589129 390.28894597 378.3589129 390.28894597 391.54296875 383.41015625 C401.03565916 378.33432742 410.6839481 373.57309531 420.31976318 368.77688599 C429.19068254 364.35961963 438.02510139 359.89794104 446.765625 355.2265625 C454.4522388 351.1434771 462.25140324 347.28770184 470.04296875 343.41015625 C481.03180623 337.93969401 491.96464071 332.38904231 502.79394531 326.60742188 C507.0972583 324.31655704 511.41516569 322.053328 515.73046875 319.78515625 C517.33859559 318.93890455 518.94667389 318.09256059 520.5546875 317.24609375 C521.70582031 316.64023437 522.85695313 316.034375 524.04296875 315.41015625 C523.80513672 314.30027344 523.80513672 314.30027344 523.5625 313.16796875 C521.74861141 303.53935716 523.97494511 294.86415698 529.23046875 286.59765625 C533.67877468 280.8862511 540.14128025 277.27157224 547.04296875 275.41015625 C558.44776896 274.33115425 566.5227419 275.48925917 575.35546875 282.78515625 C581.28262033 288.31166538 584.60592314 294.01209723 585.4140625 302.14453125 C585.67328194 310.70406285 585.05284032 317.15208746 580.04296875 324.41015625 C579.67042969 324.99152344 579.29789063 325.57289063 578.9140625 326.171875 C574.87232029 331.76271701 568.5682772 334.77882914 562.04296875 336.41015625 C562.04296875 402.08015625 562.04296875 467.75015625 562.04296875 535.41015625 C565.01296875 536.40015625 567.98296875 537.39015625 571.04296875 538.41015625 C578.24913095 542.58949749 582.61755517 549.58509929 585.04296875 557.41015625 C586.63557017 567.38252027 585.38816742 576.24132498 579.53515625 584.55078125 C574.81826188 590.47432302 568.61723367 595.03301717 561.04296875 596.41015625 C550.00293176 597.2488141 542.42143321 596.16877887 533.79296875 589.16015625 C526.57658324 582.41815465 523.51445747 575.25661634 522.73046875 565.53515625 C523.01747259 556.925041 526.1244318 549.62195404 532.04296875 543.41015625 C536.80844704 539.05148708 540.78683459 537.12880951 547.04296875 535.41015625 C547.04204696 534.63973558 547.04112516 533.86931492 547.04017544 533.07554817 C547.01784604 514.10886578 547.00142617 495.14218609 546.99115658 476.17549324 C546.9860551 467.00240726 546.97910699 457.82933027 546.9675293 448.65625 C546.86963769 369.59348067 546.86963769 369.59348067 548.04296875 336.41015625 C547.27984375 336.27351563 546.51671875 336.136875 545.73046875 335.99609375 C541.58294745 335.09183765 538.11339287 333.35220847 534.92578125 330.546875 C532.22489829 329.14995595 532.22489829 329.14995595 530.07324219 329.9453125 C527.61849719 331.05689514 525.27661794 332.29431134 522.91796875 333.59765625 C522.0254541 334.06743896 521.13293945 334.53722168 520.21337891 335.02124023 C517.47899968 336.46474709 514.76060115 337.9354173 512.04296875 339.41015625 C509.17231457 340.93925471 506.29494617 342.45549765 503.41796875 343.97265625 C502.67788574 344.36606201 501.93780273 344.75946777 501.17529297 345.16479492 C492.87003871 349.55691618 484.45322157 353.72406936 476.04296875 357.91015625 C462.72701856 364.53135508 462.72701856 364.53135508 449.54296875 371.41015625 C440.04961625 376.48633911 430.40063948 381.24787446 420.76416016 386.04443359 C412.64680992 390.08647838 404.540328 394.13389474 396.54296875 398.41015625 C387.05027834 403.48598508 377.4019894 408.24721719 367.76617432 413.04342651 C358.89525496 417.46069287 350.06083611 421.92237146 341.3203125 426.59375 C332.9317483 431.04970745 324.41038942 435.24173034 315.90710449 439.47296143 C308.11668046 443.35115107 300.34362819 447.24539506 292.66796875 451.34765625 C283.88007574 456.04322803 274.96197197 460.47073872 266.04296875 464.91015625 C256.46140643 469.67937524 246.90410412 474.46938139 237.4675293 479.52124023 C232.32112697 482.25678757 227.12449761 484.88161773 221.90625 487.4765625 C221.16805023 487.84389496 220.42985046 488.21122742 219.66928101 488.58969116 C215.97277207 490.42757014 212.27352968 492.25966175 208.5703125 494.08398438 C201.31176886 497.67378074 194.13278217 501.37711739 187.0546875 505.3125 C186.01995049 505.88225304 186.01995049 505.88225304 184.96430969 506.46351624 C181.3989181 508.31026007 181.3989181 508.31026007 179.04296875 511.41015625 C178.94020958 513.05810324 178.90078136 514.71016085 178.89147949 516.36128235 C178.88313804 517.41673972 178.87479658 518.47219709 178.86620235 519.55963802 C178.85992242 521.31542848 178.85992242 521.31542848 178.85351562 523.10668945 C178.84520249 524.34537309 178.83688936 525.58405672 178.82832432 526.86027622 C178.80610977 530.32353522 178.78837891 533.78676627 178.77248883 537.25005674 C178.75416196 541.01219481 178.73016457 544.77429732 178.70689392 548.53640747 C178.6617489 555.98301735 178.6219731 563.42964721 178.5838626 570.87629604 C178.53889253 579.61857173 178.48832155 588.36081246 178.43763769 597.10305655 C178.31475689 618.3581767 178.20272947 639.6133504 178.09253246 660.86853951 C178.0531132 668.46985646 178.01331696 676.07117138 177.97332764 683.67248535 C177.65119521 744.91831669 177.34132622 806.16420458 177.04296875 867.41015625 C177.66727783 867.60569092 178.29158691 867.80122559 178.93481445 868.00268555 C179.75038818 868.26476807 180.56596191 868.52685059 181.40625 868.796875 C182.62115112 869.1829895 182.62115112 869.1829895 183.8605957 869.5769043 C186.04296875 870.41015625 186.04296875 870.41015625 188.23046875 872.22265625 C189.12765625 872.81046875 189.12765625 872.81046875 190.04296875 873.41015625 C194.57563996 872.18988505 198.66178693 870.23914412 202.86328125 868.171875 C203.51052155 867.8552037 204.15776184 867.53853241 204.82461548 867.21226501 C206.21513999 866.53184153 207.60492033 865.84989549 208.99401855 865.16656494 C212.72197353 863.33356827 216.45627156 861.51362532 220.19140625 859.6953125 C220.94643433 859.32770813 221.7014624 858.96010376 222.47937012 858.58135986 C229.21131659 855.3121968 235.99204544 852.15848003 242.79296875 849.03515625 C254.59739928 843.60559772 266.27752599 837.94226595 277.94866943 832.23342896 C287.89169517 827.3722339 297.85942537 822.59125368 307.91796875 817.97265625 C320.06025562 812.39609239 332.06272594 806.55384056 344.06149292 800.67651367 C358.08758061 793.80927382 372.19914394 787.16313 386.39404297 780.65283203 C388.84663424 779.50226156 391.26114948 778.29784153 393.671875 777.0625 C397.04296875 775.41015625 397.04296875 775.41015625 399.04296875 775.41015625 C398.69234375 774.31703125 398.34171875 773.22390625 397.98046875 772.09765625 C395.86634676 763.48907316 397.50756686 754.94611366 402.04296875 747.41015625 C407.13001364 739.92841204 413.56537587 736.23602054 422.04296875 733.41015625 C433.03438428 732.46979672 441.23396286 734.0186424 449.85546875 741.03515625 C456.83433776 747.72992971 459.71205278 754.91324107 460.10546875 764.52734375 C459.90100302 773.9583256 456.5516222 780.51233482 450.1875 787.42578125 C442.78745912 794.45655861 435.32241982 796.00477791 425.265625 795.76953125 C419.50043649 795.12662538 414.41229895 793.14347673 409.73193359 789.71948242 C407.143508 788.11544374 407.143508 788.11544374 404.52392578 788.96142578 C403.62528809 789.40083496 402.72665039 789.84024414 401.80078125 790.29296875 C400.75470703 790.79119141 399.70863281 791.28941406 398.63085938 791.80273438 C397.48810547 792.37443359 396.34535156 792.94613281 395.16796875 793.53515625 C393.94429472 794.12758691 392.71965561 794.71802765 391.49414062 795.30664062 C388.07682365 796.95504702 384.6736219 798.63094738 381.27209473 800.31164551 C377.35623549 802.24137648 373.42952141 804.14880921 369.50390625 806.05859375 C364.48901949 808.49953024 359.47510179 810.94235231 354.46582031 813.39477539 C343.90774527 818.55982205 333.29908628 823.58345672 322.6171875 828.48828125 C312.85636613 832.98891549 303.19784289 837.68748786 293.54296875 842.41015625 C282.79892321 847.66559134 272.03786988 852.85635869 261.16796875 857.84765625 C249.46180425 863.22538348 237.86960918 868.82253899 226.29296875 874.47265625 C225.44059631 874.88861053 224.58822388 875.30456482 223.71002197 875.73312378 C215.80459301 879.59324061 207.90755691 883.46737752 200.04296875 887.41015625 C200.37296875 888.40015625 200.70296875 889.39015625 201.04296875 890.41015625 C201.86556139 901.65675076 201.0226651 909.74297929 193.79296875 918.66015625 C187.98947043 924.85878637 181.58174686 928.63766582 173.04296875 929.41015625 C162.68733952 929.53004776 154.45383553 926.51665589 146.8359375 919.4765625 C140.76988744 912.48540677 138.6489362 904.46259779 138.76953125 895.41796875 C139.57221996 886.58839292 143.33613583 879.18875303 150.04296875 873.41015625 C157.37223704 868.41015625 157.37223704 868.41015625 162.04296875 868.41015625 C162.1345088 823.06666176 162.20499962 777.72317705 162.24723007 732.37960839 C162.25223294 727.02732341 162.25741023 721.67503861 162.26269531 716.32275391 C162.26374455 715.25720292 162.2647938 714.19165193 162.26587483 713.09381151 C162.28328372 695.83679538 162.31482409 678.5798325 162.35157993 661.32284796 C162.38897587 643.61777836 162.41120176 625.91273668 162.41932273 608.2076292 C162.42481329 597.28115905 162.4421596 586.35483942 162.47463462 575.4284156 C162.49576585 567.93744424 162.50217194 560.4465508 162.49697426 552.9555518 C162.49441032 548.63253861 162.49836199 544.30978862 162.51979065 539.98682213 C162.53927295 536.02759225 162.54022805 532.06880227 162.52656433 528.10955203 C162.5248759 526.67872389 162.52993611 525.24786817 162.54250148 523.81709421 C162.61761939 514.73412384 162.11766992 508.5230531 156.32299805 501.25195312 C155.76008057 500.71634766 155.19716309 500.18074219 154.6171875 499.62890625 C153.98925293 499.01901855 153.36131836 498.40913086 152.71435547 497.78076172 C152.05967285 497.16346191 151.40499023 496.54616211 150.73046875 495.91015625 C149.37061564 494.59167733 148.01251486 493.27138848 146.65625 491.94921875 C146.01896973 491.33079102 145.38168945 490.71236328 144.72509766 490.07519531 C142.85426352 488.2233682 141.11140672 486.30013307 139.41796875 484.28515625 C135.80524605 479.99855782 131.78961721 476.13152952 127.80688477 472.19360352 C124.30835704 468.71933953 120.99847105 465.16023725 117.80859375 461.3984375 C114.08994415 457.21084315 110.0375411 453.33239228 106.04296875 449.41015625 C103.02908802 450.76073739 100.93950105 452.266204 98.6171875 454.60546875 C97.98925293 455.23469238 97.36131836 455.86391602 96.71435547 456.51220703 C96.05967285 457.17978027 95.40499023 457.84735352 94.73046875 458.53515625 C94.05258301 459.2194873 93.37469727 459.90381836 92.67626953 460.60888672 C88.94221796 464.40070462 85.34076381 468.25370512 81.91015625 472.32421875 C78.69947722 475.91104428 75.22902895 479.24306452 71.80688477 482.62670898 C68.30349485 486.10580144 64.98491455 489.66524816 61.80078125 493.44140625 C58.78415747 496.82002488 55.46541407 499.90097761 52.1796875 503.015625 C48.11684487 507.56868264 47.75157098 511.9491321 47.79573059 517.86058044 C47.79331476 518.60413725 47.79089893 519.34769405 47.78840989 520.11378288 C47.78276933 522.60906635 47.79143945 525.10409321 47.80004883 527.59936523 C47.79899575 529.39894968 47.79707772 531.19853379 47.79436493 532.99811649 C47.78954347 537.92853124 47.79732259 542.85885688 47.8073504 547.78926086 C47.81605377 553.05730113 47.81365453 558.32533802 47.81278992 563.59338379 C47.813064 573.80707604 47.82464528 584.02072597 47.84038466 594.23440492 C47.85284949 602.46593145 47.86075305 610.69745126 47.86572266 618.9289856 C47.91735478 701.75849115 48.30983869 784.58396404 49.04296875 867.41015625 C49.73484283 867.74707489 50.42671692 868.08399353 51.13955688 868.43112183 C52.04434784 868.87650299 52.94913879 869.32188416 53.88134766 869.78076172 C54.77947174 870.22080536 55.67759583 870.660849 56.60293579 871.11422729 C63.86225291 874.96973228 68.02726321 881.92677867 70.41796875 889.58984375 C72.57953131 899.34389482 70.9124713 908.18014936 65.640625 916.66796875 C60.28535332 923.55518856 52.03606637 928.08076885 43.41796875 929.41015625 C33.30709112 929.86560119 24.80235937 926.46507205 17.22265625 919.8125 C10.25939681 912.41184989 8.57760009 904.21310297 8.8046875 894.29296875 C9.00642332 891.85229599 9.41613939 889.76163389 10.04296875 887.41015625 C-1.8383341 881.44159017 -13.75864386 875.55571523 -25.70703125 869.72265625 C-27.05495758 869.06428268 -27.05495758 869.06428268 -28.43011475 868.39260864 C-40.34187186 862.57893487 -52.2928635 856.87942686 -64.34082031 851.3527832 C-74.45542107 846.69217729 -84.45587547 841.80837159 -94.45703125 836.91015625 C-106.64940312 830.93883178 -118.87443733 825.07865763 -131.21362305 819.41552734 C-144.10818417 813.46881934 -156.84467894 807.1971111 -169.59274292 800.94415283 C-172.64405906 799.45105074 -175.70089646 797.96941552 -178.75738525 796.48693848 C-180.95274903 795.4122525 -183.13554918 794.31475274 -185.31787109 793.21386719 C-186.66999472 792.54701346 -188.02235846 791.88064631 -189.375 791.21484375 C-190.55215576 790.62429199 -191.72931152 790.03374023 -192.94213867 789.42529297 C-195.83446889 788.11477021 -195.83446889 788.11477021 -198.2434082 789.17016602 C-198.80890381 789.57936279 -199.37439941 789.98855957 -199.95703125 790.41015625 C-201.28930309 791.09971101 -202.62263791 791.78721592 -203.95703125 792.47265625 C-204.61703125 792.81425781 -205.27703125 793.15585938 -205.95703125 793.5078125 C-213.30441439 796.82274513 -222.70620281 796.5789463 -230.20703125 793.91015625 C-237.61684209 790.48281703 -244.01468085 785.07294641 -247.24609375 777.46875 C-250.29857264 768.62997871 -250.85635855 760.62635662 -247.33203125 751.78515625 C-243.26370138 743.53184189 -237.39466372 738.04410887 -228.95703125 734.41015625 C-220.98205638 731.83438797 -211.76824302 732.60210779 -204.23828125 736.0859375 C-196.24451419 740.72615502 -190.19376685 747.42629839 -187.64453125 756.41015625 C-186.27093103 763.09501064 -186.80688572 768.95971967 -188.95703125 775.41015625 C-188.13855713 775.66055664 -187.32008301 775.91095703 -186.47680664 776.16894531 C-182.38387769 777.61227269 -178.54955348 779.39369165 -174.640625 781.26953125 C-173.84002151 781.65041901 -173.03941803 782.03130676 -172.21455383 782.42373657 C-169.60624336 783.66581012 -167.00037553 784.9129181 -164.39453125 786.16015625 C-162.57921881 787.0257993 -160.76378807 787.89119431 -158.94824219 788.75634766 C-147.34040051 794.29251454 -135.75812403 799.8804963 -124.18676758 805.49243164 C-116.35684049 809.27993382 -108.48310253 812.96125136 -100.58203125 816.59765625 C-88.26743476 822.26759736 -76.08654129 828.19422227 -63.91149902 834.15679932 C-52.52931352 839.7285234 -41.11314721 845.19249861 -29.58398438 850.45532227 C-22.70990667 853.61099271 -15.91924052 856.89896517 -9.15234375 860.27734375 C-7.44685053 861.12441494 -5.74128413 861.97133882 -4.03564453 862.81811523 C-0.69432863 864.47758405 2.63576679 866.15731736 5.96142578 867.84790039 C7.4882138 868.60772374 9.01537692 869.36679398 10.54296875 870.125 C11.24267792 870.48774017 11.94238708 870.85048035 12.66329956 871.22421265 C16.37816178 873.14187429 16.37816178 873.14187429 20.36865234 872.68237305 C21.19743896 872.05262573 21.19743896 872.05262573 22.04296875 871.41015625 C23.57986813 870.69153777 25.12166927 869.98331822 26.66796875 869.28515625 C27.44398438 868.93195312 28.22 868.57875 29.01953125 868.21484375 C31.04296875 867.41015625 31.04296875 867.41015625 33.04296875 867.41015625 C32.98238783 852.53905994 32.92105133 837.6679668 32.859375 822.796875 C32.85462339 821.6495676 32.84987178 820.50226019 32.84497619 819.3201859 C32.72447313 790.24173952 32.59855655 761.16332714 32.45996094 732.08496094 C32.45388108 730.80663918 32.44780123 729.52831743 32.44153714 728.21125865 C32.3864317 716.62644447 32.33118625 705.04163098 32.27511215 693.45682144 C32.14647321 666.84361099 32.02565967 640.23053803 31.96591473 613.61707401 C31.93748811 600.9626076 31.89602632 588.30825207 31.84010029 575.6538763 C31.8073156 568.07705747 31.78927569 560.50050344 31.79102236 552.9236123 C31.79090915 547.30030597 31.7657378 541.67735017 31.73015785 536.05416679 C31.72012228 533.81977964 31.71855047 531.5853348 31.72636986 529.3509388 C31.73582187 526.37753178 31.71522255 523.40586294 31.68652344 520.43261719 C31.70181516 519.15160141 31.70181516 519.15160141 31.71741581 517.84470654 C31.64280506 513.62124799 31.44285029 511.92132213 28.76034546 508.49229431 C26.50049432 506.76072649 24.46744404 505.31999317 21.92138672 504.07348633 C21.14221893 503.68570511 20.36305115 503.29792389 19.56027222 502.89839172 C18.72698395 502.49621933 17.89369568 502.09404694 17.03515625 501.6796875 C16.1550589 501.24436203 15.27496155 500.80903656 14.36819458 500.36051941 C11.55604594 498.971661 8.73742765 497.59660454 5.91796875 496.22265625 C2.24672557 494.42066239 -1.42179351 492.61317034 -5.08984375 490.8046875 C-6.00147278 490.35630524 -6.91310181 489.90792297 -7.85235596 489.44595337 C-14.66782118 486.08169311 -21.40153411 482.58014744 -28.11453247 479.01667786 C-35.29436716 475.2113891 -42.55053961 471.57139678 -49.83129883 467.96386719 C-60.13099609 462.85837811 -70.40103281 457.71777268 -80.5390625 452.296875 C-88.60116399 448.01522607 -96.78551348 443.97753053 -104.95703125 439.91015625 C-114.54073659 435.13986537 -124.09792502 430.345138 -133.5390625 425.296875 C-142.34949458 420.61780006 -151.30383755 416.22177124 -160.23382568 411.77688599 C-169.10474504 407.35961963 -177.93916389 402.89794104 -186.6796875 398.2265625 C-194.36628498 394.14348576 -202.16529198 390.2873225 -209.95703125 386.41015625 C-218.45987836 382.17914303 -226.95512355 377.94970003 -235.33203125 373.47265625 C-244.864511 368.37923479 -254.55052456 363.59666812 -264.22521973 358.78118896 C-272.55473474 354.63358617 -280.86602786 350.46728793 -289.08203125 346.09765625 C-289.78690674 345.72825928 -290.49178223 345.3588623 -291.21801758 344.97827148 C-294.47650414 343.26971149 -297.71914389 341.54258034 -300.93408203 339.75292969 C-304.15471056 337.96135416 -307.39750324 336.21583116 -310.64453125 334.47265625 C-311.6495166 333.89668701 -312.65450195 333.32071777 -313.68994141 332.72729492 C-316.48104309 331.25477407 -318.86995952 330.07256435 -321.95703125 329.41015625 C-325.22621068 330.44966492 -327.38675745 332.19857912 -329.95703125 334.41015625 C-333.02143351 335.84021064 -334.57222324 336.41015625 -337.95703125 336.41015625 C-337.88616082 336.98951337 -337.81529039 337.56887049 -337.74227238 338.16578388 C-336.74808024 347.41518256 -336.82358585 356.6275873 -336.84350586 365.91674805 C-336.84378836 367.77056375 -336.84362877 369.62437956 -336.84306335 371.47819519 C-336.84277784 376.48152639 -336.84863472 381.48483335 -336.85563731 386.48815894 C-336.86191189 391.7278479 -336.86247789 396.96753748 -336.86366272 402.20722961 C-336.86676397 412.11625626 -336.87496103 422.0252718 -336.88501221 431.93429357 C-336.89621089 443.22091041 -336.90169324 454.50752779 -336.90670764 465.7941488 C-336.9171447 488.99949076 -336.93472069 512.20482288 -336.95703125 535.41015625 C-336.17312012 535.55638428 -335.38920898 535.7026123 -334.58154297 535.85327148 C-327.07726939 537.44557363 -321.12411942 543.20699715 -316.95703125 549.41015625 C-312.43011741 558.33044665 -311.48792731 566.50725814 -314.51953125 576.03515625 C-317.91897384 584.48008733 -323.77086742 590.46243612 -331.95703125 594.41015625 C-339.76361211 597.44308233 -348.26255604 597.71554906 -356.20703125 594.91015625 C-364.73425352 590.96596875 -370.44486708 585.0442265 -373.95703125 576.41015625 C-376.65045538 568.32988386 -376.03528316 558.50841237 -372.45703125 550.84765625 C-367.09304477 541.60200273 -362.18490455 538.81944735 -351.95703125 535.41015625 C-352.28703125 469.74015625 -352.61703125 404.07015625 -352.95703125 336.41015625 C-356.25703125 334.76015625 -359.55703125 333.11015625 -362.95703125 331.41015625 C-369.25040473 326.81846533 -373.31523042 321.04453011 -374.95703125 313.41015625 C-376.11932212 302.07782028 -374.87469288 294.00081899 -367.70703125 285.16015625 C-360.52078214 277.54940297 -353.454365 274.91544307 -342.95703125 274.41015625 C-334.5307611 274.88420802 -328.55318771 278.31578907 -322.26953125 283.72265625 C-315.88054906 291.1476896 -312.69975425 298.30386417 -312.7890625 308.19921875 C-312.97614809 310.66178717 -313.4284292 312.9997309 -313.95703125 315.41015625 C-303.03924328 321.24552568 -292.04212145 326.89891128 -280.95703125 332.41015625 C-273.20391245 336.26511993 -265.47060494 340.14407837 -257.83203125 344.22265625 C-248.95923787 348.95695979 -239.95943903 353.42926509 -230.95703125 357.91015625 C-221.32647295 362.70373331 -211.7226842 367.52271696 -202.234375 372.59375 C-194.54777752 376.67682674 -186.74877052 380.53299 -178.95703125 384.41015625 C-170.45418414 388.64116947 -161.95893895 392.87061247 -153.58203125 397.34765625 C-144.79413837 402.04322795 -135.87603636 406.47074262 -126.95703125 410.91015625 C-117.32647718 415.70374168 -107.7226844 420.52271686 -98.234375 425.59375 C-90.54777752 429.67682674 -82.74877052 433.53299 -74.95703125 437.41015625 C-66.45418414 441.64116947 -57.95893895 445.87061247 -49.58203125 450.34765625 C-40.05021372 455.44072387 -30.36488793 460.22298731 -20.69085693 465.03811646 C-12.31912243 469.2067238 -3.96395688 473.39193776 4.29296875 477.78515625 C6.4317055 478.9166562 8.57094044 480.04720666 10.71044922 481.17724609 C12.4266877 482.08440585 14.14167513 482.99393341 15.85595703 483.90478516 C18.84735671 485.48583545 21.84996557 487.04361284 24.85546875 488.59765625 C25.78198242 489.09249512 26.70849609 489.58733398 27.66308594 490.09716797 C31.32632968 491.97199802 34.13930924 493.35995294 38.27734375 493.58984375 C42.18811856 491.92168839 44.60509482 489.42451125 47.48046875 486.34765625 C48.05539062 485.75275391 48.6303125 485.15785156 49.22265625 484.54492188 C52.63802649 480.98627647 55.91662182 477.32924563 59.10546875 473.56640625 C62.34732484 469.95853415 65.8370799 466.59692079 69.28515625 463.1875 C72.72222334 459.77419143 75.96394035 456.28026817 79.08984375 452.578125 C82.39465376 448.90978589 85.95916407 445.48985281 89.51367188 442.06445312 C90.32481445 441.27071289 90.32481445 441.27071289 91.15234375 440.4609375 C91.63670898 439.99341064 92.12107422 439.52588379 92.62011719 439.04418945 C96.81291771 434.22908755 97.47935489 430.1878488 97.43115234 423.93554688 C97.4364093 423.09428757 97.44166626 422.25302826 97.44708252 421.38627625 C97.46025775 418.6127959 97.45155326 415.83989217 97.44140625 413.06640625 C97.4434277 411.13496796 97.44633973 409.20353041 97.45010376 407.27209473 C97.45452376 403.22705813 97.44810645 399.18222048 97.43408203 395.13720703 C97.41699039 389.95528579 97.4268333 384.77383072 97.44479942 379.59192657 C97.45564599 375.60447688 97.4521869 371.61713749 97.44441605 367.62968445 C97.44241646 365.71913091 97.44486484 363.80856731 97.45185471 361.89802551 C97.45948349 359.22666947 97.44784507 356.55606572 97.43115234 353.88476562 C97.44026138 352.70324165 97.44026138 352.70324165 97.44955444 351.49784851 C97.39652206 346.91095739 97.15810513 343.85465706 94.04296875 340.41015625 C90.97901017 338.40767359 87.74638504 336.82526822 84.45703125 335.2277832 C83.47274139 334.73593033 82.48845154 334.24407745 81.47433472 333.73731995 C78.21194274 332.11111727 74.94011293 330.50491475 71.66796875 328.8984375 C69.38542819 327.76497408 67.10353647 326.63020316 64.82226562 325.4941864 C59.41364513 322.80443464 53.99913653 320.12693386 48.58141708 317.4555847 C40.70249705 313.56992182 32.83395222 309.66335813 24.96524048 305.75707531 C19.30448362 302.94706186 13.64231615 300.14005599 7.97509766 297.34309387 C-1.06951104 292.87368364 -10.09354037 288.38496813 -19 283.64526367 C-32.04661342 276.70784138 -45.30449177 270.18219099 -58.52788925 263.59049606 C-62.34213107 261.68844776 -66.15502044 259.7836923 -69.96801758 257.87915039 C-79.62982215 253.053747 -89.29332891 248.23175764 -98.95703125 243.41015625 C-109.39804634 238.20072293 -119.83874138 232.99065357 -130.2774725 227.77664471 C-134.05151439 225.89168168 -137.82596998 224.00755786 -141.60147095 222.1255188 C-156.54278625 214.67725702 -171.46992702 207.21935323 -186.19559669 199.34983635 C-190.40884192 197.10217822 -194.64412254 194.8990066 -198.89453125 192.72265625 C-199.72919922 192.28244141 -200.56386719 191.84222656 -201.42382812 191.38867188 C-202.22755859 190.97939453 -203.03128906 190.57011719 -203.859375 190.1484375 C-204.90339478 189.6076355 -204.90339478 189.6076355 -205.96850586 189.0559082 C-208.38924238 188.26980039 -209.59199101 188.54822496 -211.95703125 189.41015625 C-213.25514534 190.17831861 -214.52590815 190.99409009 -215.76953125 191.84765625 C-222.7705221 196.30049234 -229.7797774 197.31123105 -237.95703125 196.41015625 C-247.11276298 194.03344713 -254.40380766 189.34618248 -259.39453125 181.28515625 C-263.72151376 173.71588439 -263.82254877 165.94768831 -262.95703125 157.41015625 C-259.88263823 147.51764438 -253.89275189 140.86078739 -244.89453125 135.97265625 C-237.83125374 133.0982094 -228.89291194 133.40787966 -221.59765625 135.265625 C-216.12034998 135.48307171 -212.84751744 132.92723637 -208.33203125 130.03515625 C-206.3654371 128.8241333 -204.39794238 127.61457192 -202.4296875 126.40625 C-201.38312988 125.75640137 -200.33657227 125.10655273 -199.25830078 124.43701172 C-194.08883105 121.26315151 -188.84559542 118.21758596 -183.60342407 115.16610718 C-180.5122257 113.36513291 -177.42590183 111.55585803 -174.33984375 109.74609375 C-173.72520767 109.38571518 -173.11057159 109.02533661 -172.47731018 108.65403748 C-166.0202146 104.86517725 -159.58192706 101.04487453 -153.14453125 97.22265625 C-142.84563546 91.10896614 -132.51457801 85.05313133 -122.1640625 79.02734375 C-114.1411485 74.35557786 -106.13316256 69.65836871 -98.12597656 64.9597168 C-96.90170212 64.24135765 -95.67741822 63.52301463 -94.453125 62.8046875 C-93.53800644 62.26774513 -93.53800644 62.26774513 -92.60440063 61.71995544 C-88.75099031 59.45984825 -84.89469182 57.20475076 -81.03623962 54.95326233 C-78.42754299 53.43088818 -75.81975152 51.90696706 -73.21200562 50.38296509 C-71.98232811 49.66489634 -70.75222218 48.94756063 -69.52163696 48.23104858 C-66.71088301 46.59432872 -63.90747811 44.94729144 -61.11499023 43.27954102 C-58.99401799 42.02401071 -56.85205034 40.80334617 -54.69165039 39.61694336 C-51.91280555 38.0232824 -49.3810963 36.50415095 -46.95703125 34.41015625 C-45.85750123 30.87127801 -45.85750123 30.87127801 -46.64453125 27.22265625 C-47.24583912 19.11702618 -45.6376588 14.03688694 -40.95703125 7.41015625 C-38.53446227 4.6066802 -36.03704646 2.46159495 -32.95703125 0.41015625 C-32.31378906 -0.02167969 -31.67054688 -0.45351563 -31.0078125 -0.8984375 C-21.78069162 -5.97774785 -8.88745466 -5.34438229 0 0 Z M-30.26953125 17.97265625 C-33.19324661 22.19580067 -33.6205156 26.39716336 -32.95703125 31.41015625 C-30.90472592 36.94245757 -27.20970152 40.78382111 -21.95703125 43.41015625 C-16.72862791 43.93128796 -12.31666371 44.05289159 -7.51953125 41.78515625 C-2.69575931 37.31434323 -0.25718928 33.27310176 0.20703125 26.71875 C-0.17472348 21.34691563 -2.71940004 17.55938523 -6.58203125 13.97265625 C-14.97242905 8.4526577 -23.8096316 10.81438907 -30.26953125 17.97265625 Z M214.16796875 15.84765625 C210.52409956 20.24173381 209.58743442 23.45833132 209.7265625 29.09765625 C210.40963586 34.0899949 212.92990221 37.3785336 216.60546875 40.78515625 C221.17651388 43.83251967 225.70458393 44.17771077 231.04296875 43.41015625 C235.12025385 41.71304794 238.15039431 39.47548703 240.98046875 36.09765625 C243.0300386 30.91345017 243.67115301 26.52480215 241.98046875 21.22265625 C239.88331542 16.43588026 236.83385375 13.53684686 231.93359375 11.55859375 C224.75845386 9.50501923 219.77608825 11.09294624 214.16796875 15.84765625 Z M-355.95703125 553.41015625 C-360.12617782 558.64831476 -361.50430549 562.73341047 -360.95703125 569.41015625 C-359.5320261 573.77474346 -357.67652207 576.75759481 -354.26953125 579.84765625 C-348.72272055 582.46407639 -344.20690878 583.02029253 -338.26953125 581.41015625 C-333.44175828 578.49527446 -329.91598296 575.54205174 -328.22265625 570.01171875 C-327.4090435 564.72323588 -327.94569195 560.74019254 -330.64453125 556.1015625 C-333.40120171 552.54906753 -336.7741516 550.80444947 -340.95703125 549.41015625 C-346.889939 548.82849863 -351.15022415 549.99314337 -355.95703125 553.41015625 Z M541.23046875 555.41015625 C537.93254618 559.93302149 537.48081775 563.93438911 538.04296875 569.41015625 C539.78774745 574.35369589 542.57090767 577.6985898 547.04296875 580.41015625 C551.45864897 582.45962808 555.03951765 582.71925888 559.73046875 581.41015625 C565.18198393 579.28594516 567.45839884 576.07511474 570.41796875 571.09765625 C571.52348742 566.34392598 571.19662666 561.8097647 569.06640625 557.37890625 C566.40118504 553.32089202 563.74712364 550.94805304 559.04296875 549.41015625 C551.75423448 548.47940061 546.20239516 549.71581318 541.23046875 555.41015625 Z M-232.33203125 754.97265625 C-235.17866378 759.24260505 -235.59105284 763.40049271 -234.95703125 768.41015625 C-233.56618622 772.80522655 -231.68645645 775.74858456 -228.26953125 778.84765625 C-223.44934937 781.12132695 -218.96350911 782.35929124 -213.7421875 780.7109375 C-208.76563897 778.36630663 -205.10355461 775.75779932 -202.64453125 770.72265625 C-201.46107603 765.02055383 -202.03596318 760.36282055 -204.51953125 755.09765625 C-208.51006587 750.69783603 -213.02735983 748.25921478 -219.01953125 747.91015625 C-224.84994047 748.65052568 -228.26957739 750.58948235 -232.33203125 754.97265625 Z M415.23046875 754.41015625 C411.93254618 758.93302149 411.48081775 762.93438911 412.04296875 768.41015625 C414.04593543 774.0852285 417.65647054 777.71690714 423.04296875 780.41015625 C428.27137209 780.93128796 432.68333629 781.05289159 437.48046875 778.78515625 C442.30424069 774.31434323 444.74281072 770.27310176 445.20703125 763.71875 C444.8270702 758.37215516 442.28108212 754.58787385 438.48046875 750.97265625 C430.6809639 745.97297366 421.25368484 747.51177201 415.23046875 754.41015625 Z " fill="#010101" transform="translate(630.95703125,259.58984375)"/>
</svg>
