<?xml version="1.0" encoding="UTF-8"?>
<svg version="1.1" xmlns="http://www.w3.org/2000/svg" width="1485" height="1485">
<path d="M0 0 C1.18078125 -0.03222656 2.3615625 -0.06445312 3.578125 -0.09765625 C11.56060252 -0.10654542 16.62793902 1.25808964 22.625 6.625 C25 9.1875 25 9.1875 26.625 11.625 C27.429375 12.7696875 27.429375 12.7696875 28.25 13.9375 C32.38704062 22.02353394 32.75210368 30.96963349 30.5625 39.6875 C27.60960919 48.39579373 22.09350219 54.10558062 14.109375 58.47265625 C5.44676022 62.49069298 -2.60209637 62.25492887 -11.66015625 59.6953125 C-15.20166594 58.29909141 -17.74545947 56.30431062 -20.5234375 53.734375 C-22.34518931 52.41465777 -22.34518931 52.41465777 -24.6796875 52.70703125 C-28.12577216 53.88069777 -31.0619092 55.63656088 -34.125 57.5625 C-35.47477848 58.39141029 -36.82505713 59.21950655 -38.17578125 60.046875 C-38.8713916 60.47548828 -39.56700195 60.90410156 -40.28369141 61.34570312 C-43.60247652 63.37587286 -46.95616699 65.3452308 -50.3125 67.3125 C-51.0024707 67.71782959 -51.69244141 68.12315918 -52.40332031 68.54077148 C-59.7612459 72.85973249 -67.13427121 77.1528678 -74.50512695 81.44970703 C-84.84481538 87.47866554 -95.16472215 93.54041473 -105.46484375 99.63671875 C-116.20517322 105.99266632 -126.96480154 112.31364934 -137.74853516 118.59570312 C-145.62517453 123.18473523 -153.48729577 127.79781778 -161.34082031 132.42626953 C-164.95555635 134.55641282 -168.57140028 136.68467269 -172.1875 138.8125 C-172.88987793 139.22580566 -173.59225586 139.63911133 -174.31591797 140.06494141 C-180.32677726 143.60015849 -186.34773952 147.11780797 -192.375 150.625 C-192.0140625 151.305625 -191.653125 151.98625 -191.28125 152.6875 C-188.20024341 159.12338044 -187.00832933 163.98589096 -187.21875 171.0625 C-187.2300293 171.79404297 -187.24130859 172.52558594 -187.25292969 173.27929688 C-187.28204942 175.06142455 -187.32687443 176.84328427 -187.375 178.625 C-186.58589737 179.01844101 -185.79679474 179.41188202 -184.98377991 179.81724548 C-177.46808667 183.56498297 -169.95341162 187.31475307 -162.43981266 191.06668758 C-158.57898516 192.99451598 -154.71779765 194.92161522 -150.85571289 196.84692383 C-119.5681528 212.44537166 -119.5681528 212.44537166 -109.42066956 217.94786072 C-104.37499994 220.67896739 -99.20233668 223.08591345 -93.99477482 225.48710251 C-88.84515297 227.88220606 -83.82099477 230.46073628 -78.81347656 233.13818359 C-68.60231339 238.55175964 -58.2797357 243.73090108 -47.93462372 248.88277054 C-44.64310196 250.52201841 -41.35292843 252.16394617 -38.06304932 253.80648804 C-31.08483891 257.28994497 -24.10504361 260.77021816 -17.125 264.25 C-9.00927483 268.29598278 -0.89423953 272.34333729 7.21910858 276.39408493 C10.43237183 277.99751877 13.64684579 279.59850583 16.86138916 281.19937134 C26.46214282 285.98787715 36.02398108 290.82091654 45.4577179 295.93174744 C50.18779061 298.46047948 54.99432132 300.82974638 59.80029297 303.21044922 C64.7349201 305.66838339 69.63898475 308.18508915 74.54483032 310.69985962 C78.85071102 312.90593187 83.16418488 315.09698758 87.47915077 317.28522682 C90.67432727 318.90650038 93.86568282 320.53458395 97.05004883 322.17700195 C100.1793702 323.79062765 103.31721911 325.38638736 106.46168327 326.97028923 C108.21547009 327.85941997 109.95999216 328.76675058 111.70423889 329.67445374 C119.40117106 333.63205178 119.40117106 333.63205178 127.625 332.625 C129.90394635 331.77872563 129.90394635 331.77872563 131.90234375 330.62109375 C132.66482422 330.20923828 133.42730469 329.79738281 134.21289062 329.37304688 C135.37594727 328.72432617 135.37594727 328.72432617 136.5625 328.0625 C142.2705861 324.93770787 148.01146006 321.90457442 153.83813477 319.00610352 C155.2711783 318.29141571 156.70420692 317.57669801 158.13722229 316.86195374 C158.87713472 316.49323717 159.61704716 316.12452061 160.37938118 315.74463081 C164.03712023 313.92093869 167.69227275 312.09207949 171.34765625 310.26367188 C172.87165044 309.50164235 174.39565786 308.73963929 175.91967773 307.97766113 C176.69624725 307.58937637 177.47281677 307.20109161 178.2729187 306.80104065 C194.62538656 298.62480672 210.97785441 290.44857279 227.33032227 282.27233887 C228.09245246 281.89127235 228.85458265 281.51020584 229.6398077 281.11759186 C231.13105283 280.37197212 232.62230244 279.62636135 234.11355686 278.88076019 C237.791058 277.04206028 241.4684737 275.20318982 245.14573669 273.36401367 C245.87321861 273.00019341 246.60070053 272.63637314 247.35022736 272.26152802 C248.71929574 271.57683864 250.08833662 270.89209426 251.45734406 270.20728302 C254.68897907 268.59116723 257.92234863 266.97871346 261.16015625 265.375 C267.53231948 262.21361669 273.86124036 258.99640072 280.125 255.625 C287.05543339 251.89476936 294.07118218 248.36070633 301.12388611 244.86755371 C304.38185464 243.24899451 307.63539916 241.62162263 310.88891602 239.99414062 C312.32983809 239.27351693 313.77076118 238.55289524 315.21168518 237.83227539 C315.94612917 237.46494293 316.68057316 237.09761047 317.43727303 236.71914673 C320.82913788 235.02277516 324.22121437 233.32682693 327.61328125 231.63085938 C328.97550571 230.94975003 330.337729 230.26863834 331.69995117 229.58752441 C346.98331706 221.94584147 362.26668294 214.30415853 377.55004883 206.66247559 C378.56980946 206.15259315 378.56980946 206.15259315 379.61017132 205.63241005 C380.94857679 204.96321015 382.28698676 204.29401925 383.6254015 203.62483788 C387.09483331 201.8901746 390.5641692 200.15531983 394.03337097 198.42019653 C394.75669365 198.05845589 395.48001633 197.69671524 396.22525787 197.32401276 C397.60205723 196.63545752 398.97882906 195.94684725 400.35556793 195.25817108 C403.66799991 193.60165365 406.98213805 191.94872742 410.30078125 190.3046875 C417.83362652 186.56984912 425.28480991 182.73053005 432.625 178.625 C432.55539062 177.30048828 432.55539062 177.30048828 432.484375 175.94921875 C432.23203351 167.55886412 433.25095477 161.28096608 436.625 153.625 C436.955 152.635 437.285 151.645 437.625 150.625 C437.1302417 150.34527344 436.6354834 150.06554687 436.12573242 149.77734375 C424.53827314 143.21546855 413.03146994 136.52893054 401.58554077 129.72314453 C393.61992305 124.98683887 385.63646343 120.28341644 377.625 115.625 C369.13971908 110.69055204 360.68727765 105.70355708 352.25 100.6875 C343.16278086 95.28632174 334.03957351 89.955917 324.875 84.6875 C318.28481876 80.89873838 311.70007669 77.10841276 305.1875 73.1875 C304.07890625 72.52105469 302.9703125 71.85460937 301.828125 71.16796875 C298.77223452 69.32479593 295.7273821 67.46394531 292.68336487 65.60124207 C290.22608444 64.10186048 287.7622612 62.613446 285.29733276 61.12667847 C284.06402959 60.37954886 282.83345295 59.62789864 281.60574341 58.87161255 C279.87568903 57.80657184 278.13527435 56.75841701 276.39453125 55.7109375 C274.87243042 54.7835376 274.87243042 54.7835376 273.31958008 53.83740234 C270.77514249 52.42919205 270.77514249 52.42919205 268.39331055 52.81884766 C266.451909 53.60101777 266.451909 53.60101777 264.5625 55.4375 C258.35475332 60.06029008 250.90813228 62.36857844 243.16796875 62.01171875 C235.37816843 60.82709474 228.61672104 57.68467554 222.625 52.625 C222.625 51.965 222.625 51.305 222.625 50.625 C221.965 50.625 221.305 50.625 220.625 50.625 C215.1603217 41.1996833 212.38535197 32.86420805 214.1875 21.9375 C216.78130587 12.39229441 223.65304671 5.93963552 231.625 0.625 C236.17063738 0.09880151 240.73979106 0.16200725 245.3125 0.125 C247.19485352 0.063125 247.19485352 0.063125 249.11523438 0 C256.12726115 -0.05907974 260.82235021 0.25291305 266.13745117 5.06103516 C266.87378784 5.83519775 266.87378784 5.83519775 267.625 6.625 C268.28113281 7.31464844 268.93726563 8.00429688 269.61328125 8.71484375 C275.8131286 17.36536822 278.45493541 25.6298301 277.1875 36.3125 C277.001875 37.075625 276.81625 37.83875 276.625 38.625 C277.43839844 38.85058594 278.25179687 39.07617188 279.08984375 39.30859375 C283.48797837 40.94635217 287.2076128 43.22457021 291.1875 45.6875 C292.97434521 46.77624304 294.76216589 47.86338621 296.55078125 48.94921875 C297.52096191 49.53880371 298.49114258 50.12838867 299.49072266 50.73583984 C305.25444511 54.20987664 311.06602479 57.60241443 316.875 61 C318.12818759 61.73370045 319.38136138 62.46742448 320.63452148 63.20117188 C327.3619661 67.13868425 334.09560733 71.0654869 340.83178711 74.98803711 C351.3167615 81.09411146 361.76744517 87.25533942 372.20092773 93.44897461 C380.55735273 98.40682219 388.92914786 103.33782638 397.3125 108.25 C397.91712067 108.60430084 398.52174133 108.95860168 399.14468384 109.32363892 C405.51251232 113.05425468 411.88430108 116.7779825 418.26171875 120.4921875 C419.3069873 121.10175293 420.35225586 121.71131836 421.42919922 122.33935547 C423.44732625 123.51287917 425.46841065 124.68133446 427.49267578 125.84423828 C431.73544662 128.2914633 435.9006985 130.75757599 439.91796875 133.5625 C446.23478122 137.90944235 450.43474181 140.26610208 458.4375 139.0625 C459.67242188 138.80082031 460.90734375 138.53914062 462.1796875 138.26953125 C469.00578337 136.99254053 475.63162404 138.95706109 481.67578125 142.23046875 C488.49991629 147.11266556 493.97751356 154.3307579 495.625 162.625 C496.42909919 173.94829836 495.62044969 182.01451656 488.25 190.9375 C481.83883953 197.76884223 474.0662846 201.57953793 464.625 202 C457.06162642 201.64927905 450.50961767 199.0433231 444.51171875 194.515625 C441.84702739 193.25775827 440.45780479 193.87228272 437.625 194.625 C435.59674968 195.5106347 433.59686366 196.46246069 431.61987305 197.45727539 C431.04012222 197.74693176 430.4603714 198.03658813 429.86305237 198.33502197 C427.95137371 199.29190364 426.04409128 200.25722358 424.13671875 201.22265625 C422.79240459 201.8976175 421.44782062 202.5720416 420.10298157 203.24595642 C416.55712488 205.02460702 413.01491946 206.81041237 409.47344971 208.59777832 C405.92646873 210.38644654 402.37621591 212.16859304 398.82617188 213.95117188 C393.43109853 216.66105464 388.03766989 219.37417658 382.64575195 222.09033203 C373.47316013 226.71066065 364.29225295 231.31429421 355.08984375 235.875 C348.11847754 239.33366231 341.21393966 242.88530247 334.36180401 246.57423973 C330.19731906 248.80756894 326.00178871 250.96328774 321.77075195 253.06884766 C320.35323071 253.77530901 318.93572051 254.48179253 317.51821899 255.18829346 C316.74060337 255.57541756 315.96298775 255.96254166 315.16180801 256.36139679 C310.32099691 258.77264132 305.48349676 261.19052166 300.64526367 263.60693359 C298.40302048 264.72645115 296.16076654 265.84594717 293.91850281 266.96542358 C285.17965916 271.32873847 276.44179271 275.69400912 267.70406628 280.05956078 C261.09842122 283.35980892 254.49239847 286.6592969 247.88549805 289.95703125 C242.0668007 292.86134936 236.24884141 295.76714008 230.43171293 298.67459929 C227.37404684 300.20279034 224.31605426 301.73031832 221.25716209 303.25605392 C208.6268966 309.55756868 196.03539641 315.9115606 183.57319641 322.54019165 C178.59458574 325.18437405 173.5552417 327.70494158 168.50390625 330.20703125 C167.77703613 330.56748535 167.05016602 330.92793945 166.30126953 331.29931641 C164.83936031 332.02346958 163.37740473 332.7475293 161.91522217 333.47113037 C157.88426075 335.46609378 153.85532025 337.46506356 149.82827759 339.46792603 C148.44702426 340.15385731 147.06500822 340.83825494 145.68222046 341.52108765 C143.72641242 342.48696421 141.77314046 343.45780303 139.8203125 344.4296875 C138.67578613 344.99671387 137.53125977 345.56374023 136.35205078 346.14794922 C133.57599107 347.48401032 133.57599107 347.48401032 131.625 349.625 C131.39996051 352.50386748 131.29991812 355.28841541 131.28686523 358.17041016 C131.27532913 359.05518036 131.26379303 359.93995056 131.25190735 360.85153198 C131.21750032 363.78905982 131.19907496 366.726377 131.18359375 369.6640625 C131.17669085 370.66723888 131.16978794 371.67041527 131.16267586 372.70399094 C131.12679316 378.01701779 131.10328142 383.32993782 131.08959961 388.64306641 C131.07307766 394.1245019 131.01470442 399.60464132 130.94645596 405.08564186 C130.90160135 409.30482941 130.88809972 413.52370895 130.88298225 417.74311447 C130.87509887 419.76291246 130.85548459 421.78270097 130.82375908 423.80226517 C130.10311282 436.06705993 130.10311282 436.06705993 135.00634766 446.75976562 C136.80795608 448.34301192 136.80795608 448.34301192 138.625 449.625 C139.50027344 450.50929688 140.37554688 451.39359375 141.27734375 452.3046875 C142.81806776 453.78483603 144.35975595 455.26398149 145.90234375 456.7421875 C147.625 458.625 147.625 458.625 147.625 460.625 C148.615 460.955 149.605 461.285 150.625 461.625 C152.02734375 463.05078125 152.02734375 463.05078125 153.5625 464.9375 C156.74342456 468.69923032 160.1188479 472.17201252 163.625 475.625 C166.9101712 478.86894947 170.13239876 482.10429266 173.125 485.625 C176.2204849 489.21484981 179.41304536 492.69843134 182.6875 496.125 C183.1825 496.66640625 183.6775 497.2078125 184.1875 497.765625 C186.46910189 500.11379883 188.17505996 501.51871996 191.38671875 502.27734375 C196.21217178 501.30526817 200.09169639 499.05847979 204.375 496.6875 C206.4253706 495.58405113 208.47757438 494.48400424 210.53125 493.38671875 C211.6553125 492.78520996 212.779375 492.18370117 213.9375 491.56396484 C220.11258909 488.2937043 226.3852535 485.21357222 232.6439209 482.10739136 C242.89326135 477.02015307 253.11676238 471.90694797 263.20800781 466.51123047 C272.01673945 461.83293697 280.96943683 457.43776783 289.89776611 452.9937439 C298.86369307 448.52920738 307.79291273 444.0187154 316.62890625 439.30078125 C324.16613278 435.29536105 331.8146847 431.51389581 339.45684814 427.71420288 C347.75485666 423.5863592 355.99717292 419.37012841 364.18334961 415.0246582 C370.80656443 411.51297225 377.49642072 408.14984705 384.21289062 404.82080078 C404.24633926 394.89165639 404.24633926 394.89165639 424.08129883 384.57470703 C431.53121764 380.62882552 439.07746692 376.87927646 446.625 373.125 C454.71109276 369.10275768 462.78460481 365.07063649 470.75 360.8125 C480.73564258 355.47821034 490.88789244 350.47700129 501.02148438 345.43188477 C512.04720022 339.94054375 523.00513114 334.34715421 533.87548828 328.55322266 C536.4674046 327.17805299 539.07276184 325.8312061 541.6875 324.5 C542.42097656 324.12617187 543.15445313 323.75234375 543.91015625 323.3671875 C545.625 322.625 545.625 322.625 547.625 322.625 C547.295 321.635 546.965 320.645 546.625 319.625 C545.82628697 308.82273355 546.7455264 300.55831256 552.75 291.375 C560.7193043 283.75218719 569.48917448 280.08519636 580.46484375 280.31640625 C589.39109104 281.18806699 596.75470491 284.83413591 602.625 291.625 C607.92308799 299.26127478 610.58289187 307.31976473 609.625 316.625 C607.7818743 326.59956262 602.7452258 333.70400202 594.625 339.625 C589.34913793 342.625 589.34913793 342.625 585.625 342.625 C585.625 409.285 585.625 475.945 585.625 544.625 C587.275 544.955 588.925 545.285 590.625 545.625 C597.9860574 548.98799289 604.16102975 554.90869639 607.5 562.3125 C610.67068457 571.64840456 610.53372117 580.49481735 606.625 589.625 C602.28519637 597.23655589 595.34543235 603.3975939 586.94921875 606.15234375 C577.88319531 607.99602247 569.74490239 606.96519561 561.625 602.625 C560.67173828 602.13386719 560.67173828 602.13386719 559.69921875 601.6328125 C553.69611117 597.98569171 549.28649696 591.28295391 546.94921875 584.73046875 C545.34546674 574.31574183 546.03813571 564.53243764 551.9453125 555.63671875 C557.02363076 549.15700665 562.55210444 545.97048259 570.625 544.625 C570.625 477.965 570.625 411.305 570.625 342.625 C568.645 342.295 566.665 341.965 564.625 341.625 C562.49454857 340.41530425 560.61930668 339.04205321 558.65234375 337.5859375 C555.81233365 336.23980555 554.60735007 336.64654991 551.625 337.625 C549.05608241 338.88124525 546.5652864 340.18541131 544.0625 341.5625 C534.35279473 346.79323772 524.49926713 351.7152792 514.625 356.625 C504.53335993 361.64760455 494.46247088 366.68726046 484.51953125 372 C477.01300337 375.99254306 469.39292679 379.75706923 461.78051758 383.54211426 C454.51775314 387.15511953 447.2842091 390.81014613 440.125 394.625 C431.75842539 399.08321027 423.28292973 403.31468604 414.7947998 407.53497314 C406.50065689 411.66089601 398.26161251 415.87416555 390.07983398 420.21875 C382.6599744 424.15385718 375.15108399 427.89822413 367.625 431.625 C358.07141051 436.35977016 348.53515854 441.11007534 339.125 446.125 C329.71347616 451.13527361 320.1687232 455.87346118 310.625 460.625 C300.67459306 465.57910454 290.74271346 470.54434024 280.94140625 475.7890625 C272.16987887 480.45140588 263.25197172 484.82651295 254.35974121 489.25250244 C245.21542389 493.80578738 236.09972588 498.39411193 227.09375 503.21728516 C223.14655797 505.32469972 219.17244156 507.35110237 215.1484375 509.30859375 C214.22724121 509.75855713 213.30604492 510.20852051 212.35693359 510.67211914 C210.58554021 511.5331208 208.81002529 512.38571381 207.02978516 513.22827148 C205.8394165 513.80750366 205.8394165 513.80750366 204.625 514.3984375 C203.92375 514.73278809 203.2225 515.06713867 202.5 515.41162109 C200.16815051 516.92064349 199.07718199 518.24603603 197.625 520.625 C197.16663561 523.50464154 197.16663561 523.50464154 197.22462177 526.73944473 C197.21168184 528.00143133 197.1987419 529.26341794 197.18540984 530.56364655 C197.18611049 531.96676795 197.1870867 533.36988922 197.18830872 534.77301025 C197.17874173 536.26139932 197.16786636 537.74978047 197.15579242 539.23815131 C197.12636816 543.33369286 197.11555761 547.42910678 197.10771716 551.52473879 C197.0960293 555.93922074 197.06717731 560.35359389 197.04039001 564.76800537 C196.9963265 572.41813179 196.96318348 580.06824337 196.93741798 587.71845245 C196.90014954 598.77941338 196.84647305 609.84024657 196.78876742 620.90111753 C196.69559489 638.84581822 196.61572708 656.79055255 196.54418945 674.73535156 C196.47466121 692.16898198 196.3988898 709.60256678 196.31469727 727.03613281 C196.30951144 728.11040033 196.30432562 729.18466784 196.29898266 730.29148892 C196.27292881 735.68067253 196.24675196 741.06985554 196.22051394 746.45903826 C196.00293806 791.18094745 195.80693889 835.90293259 195.625 880.625 C196.24930908 880.82053467 196.87361816 881.01606934 197.5168457 881.2175293 C198.33241943 881.47961182 199.14799316 881.74169434 199.98828125 882.01171875 C201.20318237 882.39783325 201.20318237 882.39783325 202.44262695 882.79174805 C204.625 883.625 204.625 883.625 206.8125 885.4375 C207.7096875 886.0253125 207.7096875 886.0253125 208.625 886.625 C212.70605896 885.48924382 216.49595343 883.85868592 220.3359375 882.0859375 C221.40706787 881.59230713 222.47819824 881.09867676 223.58178711 880.59008789 C224.70979736 880.06535889 225.83780762 879.54062988 227 879 C228.17248291 878.45657959 229.34496582 877.91315918 230.55297852 877.35327148 C237.20971152 874.25488323 243.82235796 871.09214256 250.37011719 867.77050781 C266.07486662 859.81720283 281.99872178 852.30186079 298.05151367 845.08032227 C303.92807937 842.42637192 309.71513555 839.64032144 315.46435547 836.72216797 C322.04504379 833.38815032 328.70065439 830.21698001 335.36083984 827.04541016 C340.69088223 824.50667478 346.01495811 821.95671266 351.328125 819.3828125 C362.83385018 813.81139456 374.36558335 808.3361561 386.0246582 803.09277344 C394.00648077 799.48860567 401.82508839 795.60436667 409.625 791.625 C411.62402392 790.62305021 413.62388331 789.62276349 415.625 788.625 C416.800625 788.0371875 416.800625 788.0371875 418 787.4375 C418.53625 787.169375 419.0725 786.90125 419.625 786.625 C419.46515625 785.89796875 419.3053125 785.1709375 419.140625 784.421875 C417.31978312 774.54518723 419.12163709 766.31619963 424.4375 757.875 C430.16568323 749.86111835 436.10898582 746.91475244 445.625 744.625 C453.87018442 743.43004574 462.10720091 745.55374884 468.875 750.375 C475.41237661 755.75017632 480.1042925 761.1040109 481.625 769.625 C482.69891926 780.94755615 481.22254466 789.49847094 474.0625 798.4375 C467.53045161 805.27195804 459.54022484 808.2436184 450.1875 808.6953125 C442.10095927 808.47342571 435.26066058 805.04877372 428.625 800.625 C426.1478534 801.52307506 423.98840987 802.49098997 421.66015625 803.69140625 C420.96400711 804.03606934 420.26785797 804.38073242 419.5506134 804.73583984 C418.04544223 805.48282739 416.54338439 806.23611362 415.04412842 806.99490356 C411.86279452 808.60485083 408.66703337 810.18506742 405.47149658 811.7665863 C403.84701993 812.57073062 402.22328492 813.37637481 400.60028076 814.18348694 C393.62410205 817.64756655 386.58202422 820.94470843 379.5 824.1875 C368.51198737 829.23932234 357.62674299 834.48005386 346.75827026 839.78274536 C336.76700759 844.65461645 326.72160105 849.37766997 316.59790039 853.96972656 C310.65773573 856.67124443 304.79406877 859.48038666 298.97485352 862.43212891 C283.24846938 870.39409727 267.30673909 877.92592587 251.23144531 885.15429688 C243.24742163 888.75883564 235.42724362 892.64568199 227.625 896.625 C224.96042525 897.9625626 222.29286327 899.29400008 219.625 900.625 C219.79 901.615 219.955 902.605 220.125 903.625 C221.39043607 912.91106765 220.41489966 920.69617727 215.75 928.9375 C209.63880844 936.66635992 202.53997321 942.22523908 192.625 943.625 C183.50289461 944.36065366 175.5680906 942.12389231 168.44140625 936.29296875 C162.45338573 930.79429184 157.72655469 924.94020054 157.19140625 916.5390625 C157.16783683 915.1095687 157.16708945 913.67954239 157.1875 912.25 C157.19579834 911.50049072 157.20409668 910.75098145 157.21264648 909.97875977 C157.51664427 900.01607061 161.48251531 893.47246902 168.625 886.625 C172.16808928 883.93225215 175.5022552 882.221349 179.625 880.625 C180.00807042 819.48929117 180.33319411 758.3533857 180.59648895 697.21704102 C180.61528285 692.85652534 180.63437386 688.49601115 180.65375519 684.13549805 C180.76184254 659.79947834 180.85634273 635.46353767 180.9014225 611.1273098 C180.9189528 601.76899217 180.9426378 592.41079751 180.98388672 583.05255127 C181.01877451 575.11852907 181.03995041 567.18462308 181.04282683 559.2505219 C181.04465314 555.22353574 181.05279005 551.19683336 181.07834816 547.16992188 C181.10147595 543.4957036 181.10596823 539.82194765 181.09569263 536.14767528 C181.09499704 534.19737555 181.11400949 532.24709927 181.13379669 530.2968998 C181.08441517 522.00497023 180.03207359 516.6051673 174.51171875 510.15625 C173.78597656 509.4859375 173.06023438 508.815625 172.3125 508.125 C169.49985094 505.44476461 166.81966423 502.78054 164.3125 499.8125 C160.64088677 495.50574989 156.61111992 491.5819057 152.53588867 487.66088867 C151.19597688 486.35172545 149.90581058 484.99203921 148.625 483.625 C148.625 482.965 148.625 482.305 148.625 481.625 C148.04878906 481.38652344 147.47257812 481.14804687 146.87890625 480.90234375 C144.15306795 479.35754458 142.5993552 477.56700374 140.5625 475.1875 C136.16876085 470.15666867 131.5153574 465.51088699 126.71484375 460.875 C124.625 458.625 124.625 458.625 124.625 456.625 C119.94057501 459.08586116 116.59737804 462.38637034 112.9375 466.125 C112.35677734 466.70636719 111.77605469 467.28773438 111.17773438 467.88671875 C108.69195375 470.39836299 106.59707915 472.66688128 104.625 475.625 C103.965 475.625 103.305 475.625 102.625 475.625 C102.23671021 476.50333496 102.23671021 476.50333496 101.84057617 477.39941406 C100.53278276 479.7938396 99.12763899 481.33593329 97.17578125 483.234375 C96.49193359 483.90726563 95.80808594 484.58015625 95.10351562 485.2734375 C94.38873047 485.96695312 93.67394531 486.66046875 92.9375 487.375 C88.16058287 492.03238352 83.57572022 496.7434194 79.22583008 501.80371094 C76.26510812 505.17216996 72.99166379 508.22183788 69.76171875 511.328125 C65.98749056 515.3852478 65.3751002 518.27029247 65.37890434 523.78629684 C65.37492225 525.05873363 65.37094015 526.33117042 65.36683738 527.6421659 C65.3725435 529.05707862 65.3784347 530.47199059 65.38449097 531.88690186 C65.38361908 533.38765735 65.38186841 534.88841255 65.37931263 536.38916612 C65.37483176 540.51893884 65.38285294 544.64860821 65.39286876 548.77836776 C65.4014903 553.22960012 65.39858402 557.68082646 65.39706421 562.13206482 C65.39601454 569.84607071 65.40229973 577.56004283 65.41353989 585.27404022 C65.42978078 596.42723779 65.43500145 607.580419 65.43751587 618.73362711 C65.44189519 636.82812395 65.45521072 654.92260278 65.47412109 673.01708984 C65.49247376 690.59619049 65.50663327 708.17528624 65.51513672 725.75439453 C65.51566217 726.83762303 65.51618761 727.92085153 65.51672898 729.03690514 C65.51933902 734.47104044 65.52186645 739.90517577 65.52435279 745.33931112 C65.54509267 790.43455323 65.58032465 835.52977568 65.625 880.625 C66.31424561 880.96418457 67.00349121 881.30336914 67.71362305 881.65283203 C68.61636963 882.09997559 69.51911621 882.54711914 70.44921875 883.0078125 C71.34471436 883.45012207 72.24020996 883.89243164 73.1628418 884.34814453 C79.60708233 887.69007592 84.05946062 892.44607019 86.60546875 899.2421875 C89.40333976 908.72605074 89.25214515 916.35389193 85.625 925.625 C81.34212987 933.42594203 75.65101699 938.94767282 67.234375 941.90625 C57.47709166 944.59388493 49.28658326 943.88452114 40.4375 938.9375 C32.70464978 933.96210024 27.72036077 927.70090552 25.625 918.625 C25.17011371 912.33347412 24.74169631 905.71894203 26.625 899.625 C25.47 899.295 24.315 898.965 23.125 898.625 C18.14353022 896.95177626 13.54923722 894.67548354 8.88085938 892.29614258 C1.83915588 888.71134711 -5.26017393 885.24922386 -12.375 881.8125 C-12.99809052 881.51127228 -13.62118103 881.21004456 -14.26315308 880.89968872 C-23.85232877 876.26873262 -33.50172363 871.78548994 -43.19824219 867.38305664 C-49.18366683 864.65695679 -55.08403109 861.81368158 -60.94067383 858.82275391 C-67.67022651 855.41644769 -74.52651495 852.2826566 -81.375 849.125 C-96.24863519 842.26625131 -96.24863519 842.26625131 -103.375 838.625 C-111.24389707 834.61088112 -119.27292234 830.95750623 -127.30102539 827.2746582 C-134.96583085 823.7419848 -142.55938725 820.08033842 -150.125 816.33984375 C-151.04894058 815.8841098 -151.97288116 815.42837585 -152.92481995 814.95883179 C-157.54850485 812.67722109 -162.16651719 810.38511983 -166.77709961 808.07714844 C-168.48531258 807.23201399 -170.19371851 806.38726941 -171.90234375 805.54296875 C-172.68452271 805.14673813 -173.46670166 804.75050751 -174.27258301 804.3422699 C-179.55286101 801.73118442 -179.55286101 801.73118442 -185.375 801.625 C-187.3395165 802.6108002 -187.3395165 802.6108002 -189.125 804 C-195.65267787 808.30288878 -202.13151303 809.19294694 -209.82421875 808.1640625 C-220.39855371 805.92936384 -227.13365289 800.93659418 -233.078125 792.00390625 C-237.32730606 784.20947472 -237.64026199 775.39875883 -235.7578125 766.80859375 C-232.7505802 758.30584402 -227.13621572 751.74876738 -219.125 747.625 C-210.85405636 743.83195578 -202.47535343 743.33926832 -193.75 746.125 C-185.19861959 749.60663345 -179.45873386 755.42168046 -175.25 763.546875 C-173.38671593 767.97217467 -173.239814 771.81720665 -173.25 776.625 C-173.24742187 777.841875 -173.24484375 779.05875 -173.2421875 780.3125 C-173.34883845 782.97250011 -173.58192126 785.10728971 -174.375 787.625 C-173.51181152 787.89812012 -172.64862305 788.17124023 -171.75927734 788.45263672 C-168.46882062 789.59249916 -165.38329877 790.91573485 -162.2265625 792.3828125 C-160.48451538 793.19093384 -160.48451538 793.19093384 -158.70727539 794.01538086 C-157.47139282 794.59332192 -156.235637 795.17153409 -155 795.75 C-154.36818817 796.04456085 -153.73637634 796.3391217 -153.0854187 796.64260864 C-145.55834853 800.15199979 -138.06263714 803.70830942 -130.65576172 807.46655273 C-110.79763287 817.5241321 -90.59637541 826.89848649 -70.390625 836.23095703 C-61.17626937 840.49050776 -51.99176308 844.78392592 -42.9375 849.375 C-35.83404355 852.97658658 -28.61499042 856.30787497 -21.375 859.625 C-14.34805677 862.84618025 -7.33238061 866.06615983 -0.4375 869.5625 C0.77469009 870.17327532 1.98693222 870.78394737 3.19921875 871.39453125 C5.75197735 872.68050739 8.30367084 873.96849181 10.85400391 875.25927734 C13.90164333 876.79832935 16.95841883 878.31812499 20.02005005 879.82913208 C21.250063 880.43975743 22.47723404 881.05614343 23.7013855 881.67843628 C25.42369906 882.55302267 27.15700127 883.40586524 28.890625 884.2578125 C29.89899414 884.76199707 30.90736328 885.26618164 31.94628906 885.78564453 C34.55782589 886.89842038 34.55782589 886.89842038 36.84033203 885.83984375 C37.42927246 885.43894531 38.01821289 885.03804687 38.625 884.625 C40.16189938 883.90638152 41.70370052 883.19816197 43.25 882.5 C44.02601563 882.14679687 44.80203125 881.79359375 45.6015625 881.4296875 C47.625 880.625 47.625 880.625 49.625 880.625 C49.51861323 848.21081056 49.40856172 815.79663589 49.29388306 783.3824748 C49.2801252 779.49293902 49.26639636 775.60340314 49.25268555 771.71386719 C49.24995724 770.94003022 49.24722894 770.16619326 49.24441796 769.36890669 C49.20649591 758.59603379 49.1701231 747.82315669 49.13504665 737.05027416 C49.01621421 700.57838427 48.8757256 664.10669741 48.69266795 627.63506904 C48.6438688 617.89788844 48.60290521 608.16069704 48.56658936 598.42346191 C48.52767522 588.1077474 48.47461539 577.79223167 48.40128249 567.47670186 C48.36509001 562.35655431 48.33500908 557.23657763 48.32202339 552.11631393 C48.31003568 547.48072609 48.27991305 542.84564185 48.23454022 538.21026373 C48.22143013 536.54555631 48.21505017 534.88077983 48.21599078 533.21602106 C48.21626855 530.97549744 48.19233983 528.73653272 48.16197205 526.49624634 C48.1511933 524.63529548 48.1511933 524.63529548 48.1401968 522.73674965 C47.52403548 519.01518192 46.56533805 517.9082773 43.625 515.625 C41.2785499 514.30905785 38.9745177 513.11145036 36.55078125 511.9609375 C35.10747738 511.25770707 33.6642853 510.55424716 32.22119141 509.85058594 C31.46759338 509.48654663 30.71399536 509.12250732 29.93756104 508.74743652 C26.08203387 506.87609802 22.2513765 504.95519007 18.41796875 503.0390625 C16.83681479 502.25093056 15.25559662 501.46292743 13.67431641 500.67504883 C-11.48219115 488.12995361 -11.48219115 488.12995361 -22.30004883 482.34033203 C-30.61943486 477.91311777 -39.07751545 473.75864772 -47.51397705 469.56063843 C-55.26169385 465.7036911 -62.9926425 461.83208951 -70.625 457.75 C-80.57475272 452.43106677 -90.69348464 447.44946479 -100.79217529 442.42153931 C-110.02996279 437.82049499 -119.23786532 433.18604303 -128.33984375 428.3203125 C-136.27026723 424.10322705 -144.32519776 420.13432605 -152.36645508 416.13439941 C-159.8714528 412.39948967 -167.35412907 408.63557004 -174.75 404.6875 C-183.21167669 400.17152319 -191.78876654 395.89746197 -200.375 391.625 C-209.63883818 387.01535039 -218.86820876 382.36711687 -227.99609375 377.4921875 C-236.41549367 373.02354291 -244.96517403 368.81443521 -253.49822998 364.56851196 C-261.54295789 360.56384459 -269.56567433 356.53321798 -277.5 352.3125 C-284.41717325 348.64771566 -291.34564908 345.00714605 -298.3125 341.4375 C-299.25561035 340.9427417 -300.1987207 340.4479834 -301.17041016 339.93823242 C-302.05132324 339.49068604 -302.93223633 339.04313965 -303.83984375 338.58203125 C-304.619646 338.17960205 -305.39944824 337.77717285 -306.20288086 337.36254883 C-308.75232977 336.49687667 -309.88498391 336.68981038 -312.375 337.625 C-314.68507047 338.86544277 -316.91254732 340.21019556 -319.15625 341.56640625 C-321.375 342.625 -321.375 342.625 -325.375 342.625 C-325.3672694 343.83116266 -325.3672694 343.83116266 -325.35938263 345.06169224 C-325.23277897 364.8284553 -325.10757779 384.59522682 -324.98384857 404.36200809 C-324.92397654 413.92192574 -324.86366737 423.48184022 -324.80224609 433.04174805 C-324.74857509 441.39555198 -324.69580869 449.74936111 -324.64403296 458.10317701 C-324.61670972 462.50698639 -324.58899892 466.91079239 -324.56019592 471.31459236 C-324.40074491 495.75169509 -324.3462804 520.18738729 -324.375 544.625 C-323.59108887 544.77122803 -322.80717773 544.91745605 -321.99951172 545.06811523 C-314.54877756 546.64905706 -308.43251437 552.38978171 -304.375 558.625 C-300.0414802 568.12295047 -299.03483059 576.15563153 -302.34765625 586.109375 C-306.33774155 595.87977398 -313.08210232 601.94469173 -322.75 606.0625 C-334.14497552 607.83068586 -342.98571867 606.42618755 -352.625 600 C-357.90484371 595.80182812 -362.23402808 589.34945155 -363.375 582.625 C-364.31796558 572.02558939 -363.80091578 563.59936 -357.375 554.625 C-352.28878157 548.74972462 -347.78538323 546.91850366 -340.375 543.625 C-340.375 477.295 -340.375 410.965 -340.375 342.625 C-344.83 341.14 -344.83 341.14 -349.375 339.625 C-355.76409391 335.18512118 -360.41485076 329.21859661 -363.015625 321.796875 C-364.69320547 311.6584539 -364.33779419 302.23975514 -358.375 293.625 C-357.99085938 293.04363281 -357.60671875 292.46226562 -357.2109375 291.86328125 C-352.81659124 285.92941913 -346.34961907 282.56860531 -339.375 280.625 C-328.48354933 279.51520763 -319.68510532 280.90799295 -311.0625 287.8125 C-304.06228047 294.43088938 -300.68148155 302.69968996 -300.1875 312.25 C-300.36517668 315.4481803 -300.82331921 318.47379933 -301.375 321.625 C-289.02661811 328.1391874 -276.6267832 334.5348035 -264.125 340.75 C-256.41293052 344.58427557 -248.72431189 348.44623241 -241.125 352.5 C-232.6209087 357.03538773 -224.00292854 361.33181042 -215.375 365.625 C-206.1111595 370.23464503 -196.88179113 374.88288319 -187.75390625 379.7578125 C-180.03245939 383.85601453 -172.2006649 387.73097494 -164.375 391.625 C-155.11116415 396.23465419 -145.88179134 400.88288308 -136.75390625 405.7578125 C-129.03245939 409.85601453 -121.2006649 413.73097494 -113.375 417.625 C-104.11116415 422.23465419 -94.88179134 426.88288308 -85.75390625 431.7578125 C-78.03245924 435.8560146 -70.20066304 439.73097102 -62.375 443.625 C-53.87215084 447.85600899 -45.37690755 452.0854563 -37 456.5625 C-27.46685803 461.6562753 -17.7801567 466.43914522 -8.10479736 471.25497437 C0.18220244 475.38142514 8.45453644 479.52072508 16.625 483.875 C24.21351713 487.90503024 31.84116283 491.85542666 39.5 495.75 C40.62535156 496.33168945 41.75070312 496.91337891 42.91015625 497.51269531 C43.96847656 498.04733398 45.02679687 498.58197266 46.1171875 499.1328125 C47.05933105 499.61379395 48.00147461 500.09477539 48.97216797 500.59033203 C52.53008005 501.97800287 55.20551522 502.1116805 58.8125 500.875 C60.73467702 499.7830301 60.73467702 499.7830301 61.3828125 497.90625 C63.13529944 494.6878463 65.69426064 492.38696396 68.3125 489.875 C71.68269161 486.62102189 74.92107999 483.33177003 77.9765625 479.77734375 C81.8693206 475.26993963 86.06607835 471.10935762 90.3125 466.9375 C95.90486042 461.48975299 95.90486042 461.48975299 101.01953125 455.60546875 C101.54933594 454.95191406 102.07914063 454.29835938 102.625 453.625 C103.285 453.625 103.945 453.625 104.625 453.625 C104.88152344 453.05007813 105.13804687 452.47515625 105.40234375 451.8828125 C106.74140179 449.41004717 108.29650867 447.57653746 110.1875 445.5 C114.49563245 440.75299335 114.7772736 437.8189558 114.78613281 431.4909668 C114.79109772 430.65014557 114.79606262 429.80932434 114.80117798 428.94302368 C114.8158171 426.15341379 114.82260485 423.36386079 114.828125 420.57421875 C114.83387544 418.63849383 114.83963318 416.70276894 114.84539795 414.76704407 C114.85591321 410.70414972 114.8617523 406.64127519 114.86523438 402.57836914 C114.87071727 397.37286707 114.89473874 392.16762682 114.92320633 386.96220684 C114.94183363 382.96191138 114.94703838 378.96167893 114.94857025 374.96134377 C114.95159759 373.04240298 114.95962883 371.12346332 114.97275543 369.20456505 C114.98981626 366.51858009 114.98793552 363.833234 114.98144531 361.1472168 C114.9906601 360.35482101 114.99987488 359.56242523 115.0093689 358.74601746 C114.97468152 354.16176426 114.69942202 351.10387808 111.625 347.625 C109.00990714 345.83750518 106.24428114 344.44759708 103.40625 343.04882812 C102.56799683 342.62211067 101.72974365 342.19539322 100.86608887 341.75574493 C98.12568513 340.36524756 95.37579525 338.99480828 92.625 337.625 C90.78595176 336.69753699 88.94741269 335.7690637 87.109375 334.83959961 C82.18266063 332.35414063 77.24643529 329.88819529 72.30688477 327.42835999 C69.03106431 325.7969691 65.75659647 324.16288962 62.48242188 322.52819824 C55.53108723 319.0581793 48.57817155 315.59133641 41.625 312.125 C33.55243663 308.10061773 25.48057053 304.07484916 17.41040039 300.04566956 C14.22170153 298.4545042 11.03178653 296.86579723 7.84179688 295.27722168 C-0.98305182 290.87577871 -9.78372391 286.44441404 -18.4921875 281.81640625 C-30.85366823 275.25375422 -43.40134696 269.05709955 -55.92656708 262.81498528 C-59.46054007 261.05307993 -62.99315445 259.28845486 -66.52587891 257.52404785 C-75.47438411 253.05528908 -84.42459303 248.58994822 -93.375 244.125 C-103.04612764 239.30051723 -112.71693177 234.47539189 -122.3857708 229.64632368 C-125.8803551 227.90108692 -129.37535098 226.15668611 -132.87139893 224.41438293 C-146.44311097 217.65054002 -159.99846843 210.86912014 -173.38134766 203.73620605 C-177.68085877 201.44870138 -182.02353852 199.24921374 -186.375 197.0625 C-187.36821762 196.56238277 -187.36821762 196.56238277 -188.38150024 196.05216217 C-191.02396376 194.73542968 -193.56951336 193.56016221 -196.375 192.625 C-198.55429235 193.76307198 -198.55429235 193.76307198 -200.75 195.4375 C-208.32296132 200.91553559 -216.13448216 202.50314766 -225.375 201.0625 C-235.20824207 198.71610629 -242.10582838 193.12885754 -247.375 184.625 C-251.70315092 177.25168576 -251.55916861 167.97982533 -249.75390625 159.81640625 C-246.85916492 151.56960984 -241.28628811 144.93715781 -233.6875 140.625 C-227.58134915 137.91428173 -219.70859954 136.23714058 -213.19702148 138.32250977 C-209.0739636 139.59674307 -206.45853313 140.03961102 -202.35009766 138.4675293 C-198.95037699 136.59125609 -195.68688115 134.55797527 -192.4375 132.4375 C-191.23371409 131.68308822 -190.02795607 130.93181474 -188.8203125 130.18359375 C-186.42076229 128.69376379 -184.02981149 127.19155479 -181.64501953 125.67822266 C-177.45103799 123.04485064 -173.18048162 120.56997024 -168.875 118.125 C-161.06140302 113.63438725 -153.30993339 109.0408603 -145.5625 104.4375 C-137.72432526 99.78037879 -129.87146763 95.16057792 -121.9375 90.66796875 C-114.22974576 86.27554866 -106.62734633 81.69706376 -98.99511719 77.17529297 C-95.39720993 75.04645295 -91.79278122 72.92881893 -88.1875 70.8125 C-82.4667868 67.4536785 -76.75876082 64.07387478 -71.05479431 60.68669128 C-60.20955432 54.24683259 -49.36065564 47.82361017 -38.375 41.625 C-36.04033732 40.29397941 -33.70762703 38.9595876 -31.375 37.625 C-31.42140625 36.65820312 -31.4678125 35.69140625 -31.515625 34.6953125 C-31.83584042 23.14468487 -30.21448271 15.25104569 -22.44921875 6.4140625 C-15.23524757 0.19184254 -9.33045507 -0.050599 0 0 Z M-13.125 19.25 C-15.9714602 22.97442682 -17.19571948 26.95555741 -17.375 31.625 C-15.52471769 37.79260771 -12.76881264 42.21687492 -7.1875 45.5 C-1.17564011 47.27399144 3.36029555 46.77871736 8.9375 43.9375 C12.72333679 40.67991951 14.97986103 37.56041691 16.5625 32.8125 C16.66643275 27.51192957 15.53923555 22.79205911 11.96875 18.75 C7.39890723 14.72234197 3.94028985 13.29939945 -2.3203125 13.4140625 C-7.01179755 13.89569785 -9.79571778 16.07204879 -13.125 19.25 Z M233.625 17.625 C230.55560369 21.48981913 228.72398731 25.67563458 228.625 30.625 C229.51770508 35.45762463 230.83382598 39.36326674 234.625 42.625 C239.8053546 46.07856973 244.55841627 46.27960098 250.625 45.625 C254.56829819 44.32296758 257.20361357 42.06799599 260.0625 39.0625 C262.27779689 34.18884685 262.40239838 29.89403347 261.625 24.625 C259.16932448 19.62269802 255.6279693 16.12648465 250.625 13.625 C243.80644874 12.86461311 239.07921962 13.3707087 233.625 17.625 Z M-343.84765625 562.98828125 C-347.02207548 566.56991461 -349.3800034 569.88813988 -349.37109375 574.76171875 C-349.01308508 579.37012816 -348.39723218 582.97747841 -345.375 586.625 C-339.81443206 590.79542596 -335.32587271 592.33858769 -328.375 591.625 C-323.10905656 589.76643173 -320.58104232 587.02185804 -317.375 582.625 C-315.84122821 578.02368463 -315.47025168 573.27720508 -317.05859375 568.62109375 C-319.3293642 564.25857625 -322.00565149 561.76845399 -326.375 559.625 C-332.85418516 557.91061706 -338.6631696 558.18884932 -343.84765625 562.98828125 Z M564.8125 564.6875 C561.10969382 569.65983973 560.9758753 573.52688489 561.625 579.625 C562.93953319 583.61366927 565.16389329 586.21751035 568.3125 589 C573.87472204 591.72863723 578.40050273 592.25527423 584.375 590.5625 C588.94244091 587.83960254 591.31914662 584.88056494 594 580.25 C595.12360444 575.53086136 594.38337413 571.34132039 592.4375 566.9375 C589.46280942 563.14220513 586.27636607 560.17545536 581.625 558.625 C574.49555104 558.15749515 569.65771512 559.02552004 564.8125 564.6875 Z M-218.1875 766.625 C-221.46670101 771.12218996 -222.05534132 775.17255024 -221.375 780.625 C-220.01647525 785.15068786 -218.12360542 788.52888243 -214.0625 791.0625 C-209.06669107 793.44348128 -204.58830593 794.245118 -199.25 792.5625 C-193.99465395 790.32184858 -191.46092954 786.89557994 -189 781.75 C-187.8623071 776.0615355 -188.41268341 771.62867118 -191.5625 766.8125 C-194.59364036 763.03005135 -197.63191624 760.97528588 -202.546875 760.34765625 C-209.13313201 760.07138708 -213.76994335 761.56557614 -218.1875 766.625 Z M437.6875 765 C433.93930919 769.77042467 433.00776626 773.55553487 433.625 779.625 C435.45177136 784.89795086 437.85020824 788.56423605 442.625 791.625 C446.97549665 793.07516555 451.07834185 793.13570107 455.625 792.625 C460.04984878 790.41257561 462.81976657 787.67700384 465.625 783.625 C467.29119387 778.6264184 467.25322535 774.3112891 465.4375 769.4375 C462.42316318 764.7600808 459.81379304 761.67894087 454.375 760.125 C447.8464957 758.98251175 442.75605577 760.90201874 437.6875 765 Z " fill="#FEFEFE" transform="translate(619.375,255.375)"/>
</svg>
