<?xml version="1.0" encoding="UTF-8"?>
<svg version="1.1" xmlns="http://www.w3.org/2000/svg" width="3279" height="1444">
<path d="M0 0 C6.89192109 7.20519024 10.26600015 14.87340187 11.0625 24.75 C10.74091837 34.39744879 6.85666253 42.03190715 -0.06640625 48.59765625 C-6.59629063 53.9666723 -14.42903273 56.55619253 -22.89453125 56.2265625 C-29.25770531 55.27683503 -35.08552382 52.9987148 -40.125 49 C-41.671875 47.948125 -41.671875 47.948125 -43.25 46.875 C-46.94580514 47.94389602 -50.15897787 49.8678505 -53.4765625 51.7890625 C-54.49443848 52.37695557 -55.51231445 52.96484863 -56.56103516 53.57055664 C-57.65464355 54.20727295 -58.74825195 54.84398926 -59.875 55.5 C-61.03296274 56.1712765 -62.19100463 56.84241648 -63.34912109 57.51342773 C-72.69599539 62.93739992 -81.99436776 68.44255822 -91.28417969 73.96362305 C-99.5201133 78.85734405 -107.78295131 83.70255826 -116.06225586 88.52246094 C-126.94729277 94.85965828 -137.81106744 101.23295223 -148.67514038 107.60598755 C-152.97870252 110.13024046 -157.28391384 112.65166364 -161.58984375 115.171875 C-177.84196071 124.68585158 -194.05926393 134.25691547 -210.25 143.875 C-209.8890625 144.72320312 -209.528125 145.57140625 -209.15625 146.4453125 C-208.6921875 147.61835938 -208.228125 148.79140625 -207.75 150 C-207.2859375 151.13695312 -206.821875 152.27390625 -206.34375 153.4453125 C-204.45363728 159.37849446 -205.05601021 165.72660123 -205.25 171.875 C-204.39017014 172.30380463 -203.53034027 172.73260925 -202.64445496 173.17440796 C-194.45239184 177.2602047 -186.26144626 181.34823437 -178.07152843 185.4383297 C-173.86324794 187.53988531 -169.65460743 189.64071247 -165.44506836 191.73974609 C-161.36572288 193.77389651 -157.28742205 195.81012829 -153.20977211 197.84767532 C-151.67120037 198.61605313 -150.13228326 199.38373988 -148.59297752 200.15064621 C-140.54905326 204.15885567 -132.547421 208.22921547 -124.6105957 212.44580078 C-111.55592799 219.36524282 -98.30541327 225.90183369 -85.08300018 232.49273109 C-81.32481217 234.36675089 -77.56797776 236.2434802 -73.81103516 238.11999512 C-64.29189043 242.87406953 -54.77104324 247.62472919 -45.25 252.375 C-34.96296243 257.50744328 -24.67624557 262.64052381 -14.39149284 267.7775445 C-10.67334246 269.63456224 -6.95477878 271.4907414 -3.23516846 273.34483337 C10.83903519 280.3605115 24.89518419 287.39369736 38.78277588 294.77450562 C44.55903439 297.84342689 50.39656468 300.78820797 56.2421875 303.72265625 C57.98195358 304.59681435 57.98195358 304.59681435 59.75686646 305.4886322 C62.16383584 306.69726288 64.57166072 307.90417002 66.97998047 309.11010742 C70.05663004 310.65122484 73.12946431 312.19980478 76.20159721 313.74990177 C79.17084421 315.24604968 82.14428867 316.73377815 85.1171875 318.22265625 C86.76084793 319.05374657 86.76084793 319.05374657 88.43771362 319.90162659 C89.96683884 320.66393837 89.96683884 320.66393837 91.52685547 321.44165039 C92.41774872 321.88891983 93.30864197 322.33618927 94.22653198 322.79701233 C97.62817083 324.2501414 100.41188832 325.28235792 104.01635742 324.18505859 C104.78826416 323.80172363 105.5601709 323.41838867 106.35546875 323.0234375 C107.24331055 322.59087646 108.13115234 322.15831543 109.04589844 321.71264648 C110.00012695 321.22997314 110.95435547 320.7472998 111.9375 320.25 C113.44425293 319.50762085 113.44425293 319.50762085 114.98144531 318.75024414 C118.244265 317.13817809 121.49689577 315.50656865 124.75 313.875 C126.9590552 312.7813793 129.16869145 311.6889315 131.37890625 310.59765625 C142.97082282 304.86988588 142.97082282 304.86988588 154.44549561 298.91249084 C169.26250149 291.01241527 184.29441568 283.54582959 199.320858 276.05533981 C203.13509982 274.15329151 206.94798919 272.24853605 210.76098633 270.34399414 C221.24025219 265.11032535 231.72154144 259.88071392 242.2028656 254.65116882 C251.82623749 249.84963645 261.44915317 245.04719528 271.07044125 240.24148846 C274.84448314 238.35652543 278.61893873 236.47240161 282.3944397 234.59036255 C302.43115237 224.61078117 302.43115237 224.61078117 322.2910738 214.28531075 C330.67664209 209.83287117 339.17090527 205.60179701 347.66796875 201.3671875 C349.38968112 200.50726768 351.111303 199.64716666 352.83283997 198.78689575 C357.29182163 196.55928389 361.75200021 194.33407958 366.21246338 192.10943604 C370.792782 189.8244575 375.37192187 187.53711915 379.95117188 185.25 C388.88298539 180.78940235 397.81606962 176.33135619 406.75 171.875 C406.73404785 170.85237061 406.7180957 169.82974121 406.70166016 168.77612305 C406.68875674 167.41715842 406.67624491 166.05819003 406.6640625 164.69921875 C406.64678101 163.69127258 406.64678101 163.69127258 406.62915039 162.66296387 C406.58074079 155.45213382 408.58084517 150.18634161 411.75 143.875 C411.18418213 143.55974365 410.61836426 143.2444873 410.03540039 142.91967773 C397.66901518 136.01506105 385.43118209 128.93537936 373.30957031 121.60961914 C365.77738224 117.06692091 358.19004479 112.63053194 350.5625 108.25 C341.76447159 103.19725426 333.00033228 98.09414741 324.27294922 92.92041016 C316.75758686 88.46611425 309.22554501 84.04074824 301.6875 79.625 C301.0828894 79.27078979 300.47827881 78.91657959 299.85534668 78.55163574 C297.38502446 77.10444425 294.91464662 75.65734781 292.44415283 74.21044922 C287.92031239 71.56091589 283.39741715 68.90977441 278.875 66.2578125 C278.22785538 65.87834473 277.58071075 65.49887695 276.91395569 65.10791016 C271.88234799 62.15750821 271.88234799 62.15750821 269.39059448 60.69616699 C266.58842797 59.05283454 263.78507953 57.41190412 260.97607422 55.78027344 C258.76054923 54.47181597 256.5649327 53.12923528 254.38720703 51.75878906 C252.78981689 50.76830566 252.78981689 50.76830566 251.16015625 49.7578125 C249.74101929 48.85506592 249.74101929 48.85506592 248.29321289 47.93408203 C245.82518939 46.57915044 245.82518939 46.57915044 243.53027344 47.61865234 C242.9427832 48.03324707 242.35529297 48.4478418 241.75 48.875 C241.12480469 49.2771875 240.49960937 49.679375 239.85546875 50.09375 C239.22253906 50.5165625 238.58960938 50.939375 237.9375 51.375 C231.23307409 55.56063607 224.55307496 56.77360484 216.75 55.875 C208.87888785 54.04425386 203.316712 50.66596343 197.75 44.875 C196.986875 44.09125 196.22375 43.3075 195.4375 42.5 C190.30836379 34.52134367 189.54729647 25.66864969 191.18359375 16.42578125 C193.8508146 6.93312568 200.01492393 0.73268092 208.41796875 -4.03125 C215.44495509 -7.32698899 224.19280886 -7.20125972 231.64453125 -5.44140625 C240.49064587 -2.16657734 246.59702544 3.41350876 250.75 11.875 C252.66733684 16.55887476 253.00096753 20.75005787 252.875 25.75 C252.86146484 26.78253906 252.86146484 26.78253906 252.84765625 27.8359375 C252.82432513 29.51577838 252.78846326 31.19543746 252.75 32.875 C253.59175781 33.3390625 254.43351563 33.803125 255.30078125 34.28125 C264.80220947 39.5567523 274.16480433 45.05251549 283.50582886 50.60647583 C291.5263082 55.37515899 299.56056111 60.11836552 307.625 64.8125 C316.40420507 69.92329586 325.17487281 75.04835017 333.9375 80.1875 C334.54430603 80.54335175 335.15111206 80.89920349 335.77630615 81.26583862 C338.8657704 83.07762838 341.95513252 84.88959218 345.04443359 86.70166016 C350.51094193 89.90798618 355.97841856 93.11266034 361.4458313 96.31744385 C363.2463842 97.37288051 365.04690417 98.42837335 366.84741211 99.48388672 C372.39645432 102.73689833 377.94553935 105.98983661 383.49514771 109.24188232 C384.77574143 109.99240943 386.05623928 110.74310018 387.3366394 111.49395752 C390.44583932 113.31706818 393.5564058 115.13774285 396.67041016 116.95263672 C401.85202862 119.97594762 407.01618205 123.01574332 412.1015625 126.19921875 C413.27090332 126.92153687 413.27090332 126.92153687 414.46386719 127.65844727 C415.84187328 128.51386338 417.2108978 129.38404437 418.56738281 130.27319336 C423.05362358 133.03905938 425.6851023 132.98347929 430.75 131.875 C441.37299855 131.12931195 450.00730581 131.9056844 458.5625 138.625 C464.38102129 144.05927931 468.27975514 151.00766029 469.05078125 158.98828125 C469.09064387 169.8707769 467.29062746 177.76660765 459.75 185.875 C452.63737697 192.44181023 444.27270568 194.48554122 434.75 194.23046875 C428.70203034 193.51384734 423.63145018 191.42197015 418.9375 187.5625 C416.89298399 185.58000951 416.89298399 185.58000951 414.38235474 186.14613342 C411.87470993 186.84046936 409.76532399 187.68318493 407.44482422 188.84936523 C406.62561493 189.25746933 405.80640564 189.66557343 404.96237183 190.08604431 C404.085336 190.53073563 403.20830017 190.97542694 402.3046875 191.43359375 C401.38019806 191.89677505 400.45570862 192.35995636 399.50320435 192.83717346 C397.53995352 193.82216 395.57814394 194.81002366 393.61767578 195.80053711 C390.68689362 197.28123004 387.75214195 198.75376662 384.81640625 200.22460938 C382.89558809 201.18961617 380.97500841 202.15509783 379.0546875 203.12109375 C377.78164261 203.7608036 377.78164261 203.7608036 376.48287964 204.41343689 C372.27928947 206.53862149 368.09067318 208.68802172 363.93243408 210.90066528 C349.14680609 218.76319613 334.16517713 226.22431288 319.179142 233.69466019 C315.36490018 235.59670849 311.55201081 237.50146395 307.73901367 239.40600586 C297.25974781 244.63967465 286.77845856 249.86928608 276.2971344 255.09883118 C266.67376251 259.90036355 257.05084683 264.70280472 247.42955875 269.50851154 C243.65551686 271.39347457 239.88106127 273.27759839 236.1055603 275.15963745 C216.08172867 285.13417758 216.08172867 285.13417758 196.23604012 295.4571619 C188.54968153 299.53644872 180.75883738 303.39780859 172.95602036 307.2484417 C169.44386751 308.98294976 165.93581612 310.72568442 162.42740059 312.46773624 C155.94198173 315.68778094 149.45477273 318.90412294 142.96142578 322.1081543 C138.39652692 324.36101425 133.83650241 326.62347339 129.27960587 328.89247322 C127.55177098 329.75051673 125.82212729 330.60492782 124.09066391 331.45562553 C121.69104906 332.63505968 119.29783443 333.82660127 116.90576172 335.02124023 C116.19114777 335.3687735 115.47653381 335.71630676 114.74026489 336.07437134 C110.68934117 337.97851143 110.68934117 337.97851143 108.75 341.875 C108.61257289 344.66604611 108.5301987 347.43415162 108.49365234 350.22680664 C108.47174835 351.50547104 108.47174835 351.50547104 108.44940186 352.80996704 C108.32333302 360.67796107 108.25462026 368.54695655 108.20155907 376.41574955 C108.16582729 381.69808458 108.11258842 386.97889293 108.01611328 392.26049805 C107.92300833 397.37346351 107.87459291 402.48507936 107.85716629 407.59884453 C107.84311975 409.54172631 107.81358837 411.48456362 107.76786423 413.42695808 C107.21636653 426.13057907 107.21636653 426.13057907 113.10351562 436.9387207 C114.61638749 438.29211481 116.16247502 439.61000146 117.75 440.875 C118.84987097 441.96792533 119.93944612 443.07157089 121.0078125 444.1953125 C121.96153663 445.13225367 122.91723557 446.06718932 123.875 447 C127.07479962 450.15576109 130.21998899 453.31680517 133.125 456.75 C137.02260932 461.33881097 141.34494277 465.49505103 145.62084961 469.72631836 C149.32206013 473.40370454 152.84438266 477.16374009 156.2421875 481.125 C157.90251465 483.05201182 159.57866612 484.95106795 161.3125 486.8125 C161.82941406 487.37839844 162.34632813 487.94429687 162.87890625 488.52734375 C165.63710672 490.51393908 167.31626065 490.74307199 170.75 490.875 C174.12406227 489.71415323 177.19611078 488.046235 180.3359375 486.36328125 C181.26182678 485.8835788 182.18771606 485.40387634 183.1416626 484.90963745 C186.14399637 483.35022035 189.13425295 481.76900685 192.125 480.1875 C194.18319459 479.11393818 196.24227926 478.04208109 198.30224609 476.97192383 C202.33031263 474.87822428 206.3548776 472.77803468 210.37695312 470.67285156 C216.66943184 467.38665738 223.00906875 464.20412841 229.375 461.0625 C236.58628671 457.48441889 243.72606819 453.79747994 250.83056641 450.01245117 C259.06458388 445.6558327 267.41098555 441.52565794 275.75 437.375 C285.38056253 432.58143131 294.98434725 427.76243918 304.47265625 422.69140625 C312.86122045 418.2354488 321.38257933 414.04342591 329.88586426 409.81219482 C337.67628829 405.93400518 345.44934056 402.03976119 353.125 397.9375 C361.91289301 393.24192822 370.83099678 388.81441753 379.75 384.375 C393.06594415 377.75378972 393.06594415 377.75378972 406.25 370.875 C415.7433525 365.79881714 425.39232927 361.03728179 435.02880859 356.24072266 C443.8492731 351.84856123 452.6338866 347.41367017 461.32324219 342.76611328 C470.88525392 337.68696006 480.61002138 332.92079818 490.31054688 328.11328125 C491.71243986 327.41706979 493.11413487 326.72045955 494.515625 326.0234375 C495.19786133 325.68431335 495.88009766 325.34518921 496.58300781 324.99578857 C502.14995323 322.21182 507.64132033 319.29605353 513.09332275 316.29330444 C517.53683356 313.875 517.53683356 313.875 519.75 313.875 C519.51216797 313.07449219 519.51216797 313.07449219 519.26953125 312.2578125 C517.35936113 303.49688189 518.17372951 294.61352482 522.75 286.875 C527.96530912 279.55972128 533.23980622 275.71173126 541.75 272.875 C552.34210765 271.90538644 560.7860102 272.47019508 569.75 278.875 C576.31842159 284.45398603 580.10839745 291.49744462 581.12890625 300.05078125 C581.53093488 311.08711553 578.45723379 318.48208382 571.3359375 326.76953125 C568.81323031 328.82351792 566.49874392 330.08195505 563.58837891 331.5065918 C562.68358795 331.95165573 561.778797 332.39671967 560.84658813 332.85527039 C560.15471405 333.19178116 559.46283997 333.52829193 558.75 333.875 C558.74576806 334.57858989 558.74153612 335.28217978 558.73717594 336.00709057 C558.63222136 353.41710709 558.52339716 370.82709555 558.41066074 388.23706341 C558.35622037 396.65762537 558.30294048 405.07819124 558.25268555 413.4987793 C558.01447929 453.29821335 557.65238266 493.08392919 556.75 532.875 C557.69166016 533.01671631 558.63332031 533.15843262 559.60351562 533.30444336 C566.04966514 534.47333313 571.11575976 538.69357014 575.125 543.75 C580.58284847 551.80032649 581.77946922 559.15353503 580.75 568.875 C578.59914023 577.9777458 572.60587393 585.82479533 564.75 590.875 C557.27888943 594.44813984 549.03488871 595.27526966 541.0078125 593.1484375 C531.54103208 589.60918524 525.60541995 584.79470118 520.75 575.875 C517.44274545 567.90752313 517.52307779 558.08222728 520.6484375 550.03515625 C524.2427257 542.98678257 529.33786303 536.9783994 536.75 533.875 C538.73 533.545 540.71 533.215 542.75 532.875 C542.75 467.205 542.75 401.535 542.75 333.875 C539.78 332.885 536.81 331.895 533.75 330.875 C530.6875 328.6875 530.6875 328.6875 528.75 326.875 C525.37742794 328.18363762 522.12984926 329.62194817 518.89404297 331.23828125 C517.95470917 331.70637207 517.01537537 332.17446289 516.0475769 332.65673828 C515.0392984 333.16188965 514.0310199 333.66704102 512.9921875 334.1875 C511.93452179 334.71585449 510.87685608 335.24420898 509.78713989 335.78857422 C507.54233411 336.91063688 505.29803309 338.03370987 503.05419922 339.15771484 C499.68734265 340.84377985 496.31841693 342.5256513 492.94921875 344.20703125 C482.37215597 349.49409608 471.83458595 354.8385901 461.38839722 360.38000488 C454.27604796 364.14643632 447.08677197 367.74830474 439.87573242 371.32128906 C425.48768077 378.45121807 425.48768077 378.45121807 411.25 385.875 C401.7566475 390.95118286 392.10767073 395.71271821 382.47119141 400.50927734 C374.35384117 404.55132213 366.24735925 408.59873849 358.25 412.875 C348.7566475 417.95118286 339.10767073 422.71271821 329.47119141 427.50927734 C321.35384117 431.55132213 313.24735925 435.59873849 305.25 439.875 C295.75730959 444.95082883 286.10902065 449.71206094 276.47320557 454.50827026 C267.60228621 458.92553662 258.76786736 463.38721521 250.02734375 468.05859375 C242.34073023 472.14167901 234.54156912 475.99746202 226.75 479.875 C215.69472254 485.37849152 204.68898081 490.95200358 193.80078125 496.78125 C191.65348489 497.92647472 189.49943395 499.05815053 187.34375 500.1875 C185.95828504 500.91657489 184.57286605 501.64573718 183.1875 502.375 C182.56093506 502.70177734 181.93437012 503.02855469 181.28881836 503.36523438 C178.77783349 504.69460015 176.77242258 505.85257742 174.75 507.875 C174.42005951 510.81822203 174.42005951 510.81822203 174.44007874 514.35345459 C174.4309255 515.03223624 174.42177226 515.71101789 174.41234165 516.41036868 C174.38384203 518.71856741 174.36980854 521.02663224 174.35571289 523.33496094 C174.33844524 525.01135806 174.32038778 526.68774721 174.30161095 528.36412811 C174.25225693 533.0330326 174.21623222 537.70196156 174.18269229 542.37100315 C174.15224038 546.40905256 174.11462882 550.44702448 174.07734376 554.48501563 C173.55851499 611.16396856 173.41835767 667.84687483 173.23258936 724.52771139 C173.19737491 735.25464524 173.16040277 745.98157208 173.12231445 756.70849609 C173.11822804 757.85957099 173.11822804 757.85957099 173.11405908 759.03389993 C173.10036877 762.88778053 173.08665065 766.74166103 173.07291877 770.59554148 C172.96097741 802.02201353 172.85382661 833.44850003 172.75 864.875 C173.53615189 865.01007965 174.32230377 865.1451593 175.13227844 865.28433228 C178.07760194 865.94892073 179.24430039 867.00507072 181.54296875 868.8984375 C183.88867214 870.3911054 183.88867214 870.3911054 186.75 870.875 C192.60950933 869.26619147 197.73804019 866.37682704 203.0625 863.5 C204.63552816 862.68638874 206.21076001 861.877025 207.78808594 861.07177734 C210.96753627 859.44652453 214.138681 857.80658641 217.30517578 856.15625 C223.27781867 853.06503199 229.37472728 850.27562123 235.5 847.5 C247.69654158 841.90331858 259.74835226 836.02845507 271.79919434 830.12652588 C283.15200423 824.56907852 294.54687095 819.14005091 306.03515625 813.8671875 C317.03116199 808.79602842 327.89711741 803.46655859 338.77108765 798.14007568 C350.75047107 792.27479677 362.77342122 786.52918541 374.8984375 780.97070312 C381.24662284 778.05880084 387.52643841 775.0450862 393.75 771.875 C393.50987183 770.7161731 393.50987183 770.7161731 393.26489258 769.53393555 C391.23393262 759.04593889 393.50212427 750.41762929 399.375 741.625 C403.5797987 736.33682205 410.02133853 732.03341425 416.75 730.875 C427.02503662 729.89936551 435.10793723 730.77089241 443.75 736.875 C450.1231997 742.38227583 454.23205279 749.01590766 455.12890625 757.4296875 C455.42185843 766.8230575 454.21680773 774.6093349 448.4375 782.1875 C441.38353735 789.24146265 433.91156518 792.83159213 423.8125 793.3125 C417.78458548 793.12204456 410.28620586 791.50701808 405.9921875 787.05078125 C403.87473315 785.63560676 403.87473315 785.63560676 401.84312439 786.2837677 C396.63907868 788.10520325 391.69170984 790.18357088 386.76171875 792.6484375 C385.66391335 793.18797813 385.66391335 793.18797813 384.54393005 793.73841858 C382.98249862 794.50620222 381.42224444 795.27638407 379.86309814 796.04879761 C375.70796526 798.10649854 371.5434308 800.14498377 367.37890625 802.18359375 C366.54752136 802.59092239 365.71613647 802.99825104 364.85955811 803.41792297 C357.90893335 806.81542472 350.90822675 810.08909141 343.875 813.3125 C331.72177582 818.89294299 319.70972703 824.74205481 307.70025635 830.62374878 C296.34762966 836.1811036 284.95294249 841.61003472 273.46484375 846.8828125 C262.47223787 851.95240363 251.60976379 857.28041145 240.73898315 862.60488892 C225.83511563 869.90129851 210.84262503 876.9772946 195.75 883.875 C195.91081055 884.64231445 196.07162109 885.40962891 196.23730469 886.20019531 C197.99437575 895.36708605 197.22266903 904.28014435 192.2734375 912.25390625 C187.10103506 919.422053 181.24794084 923.48136107 172.75 925.875 C161.87306483 926.9833133 153.09605296 925.5704244 144.4375 918.75 C139.14996334 913.80497584 135.07199722 906.34580756 134.546875 899.0546875 C134.38066055 887.33656912 136.07351876 880.72082808 144.26171875 872.1171875 C147.88193457 868.85501501 152.64489391 864.875 157.75 864.875 C157.81865545 819.78628437 157.87152337 774.69757427 157.90319599 729.60881668 C157.90694814 724.28657432 157.91083111 718.96433206 157.91479492 713.64208984 C157.91558185 712.58252008 157.91636878 711.52295032 157.91717956 710.43127239 C157.93023612 693.27126643 157.95389135 676.11129061 157.98145839 658.95130253 C158.00950561 641.34567258 158.02617482 623.74005842 158.03226548 606.13440704 C158.03638334 595.26938432 158.0493928 584.40444675 158.0737494 573.53945023 C158.08959814 566.09053572 158.09440231 558.64166528 158.09050413 551.19273514 C158.08858125 546.89407 158.09154444 542.59555376 158.10761642 538.29691505 C158.12222864 534.35995099 158.12294383 530.42323576 158.11269668 526.48626018 C158.11143043 525.0635112 158.11522485 523.64074663 158.12464955 522.21802831 C158.22750462 510.20744783 158.22750462 510.20744783 153.05175781 499.625 C152.44170898 499.0475 151.83166016 498.47 151.203125 497.875 C150.5225 497.215 149.841875 496.555 149.140625 495.875 C148.43421875 495.215 147.7278125 494.555 147 493.875 C145.60688762 492.54426578 144.21624801 491.21093794 142.828125 489.875 C142.14363281 489.21693359 141.45914063 488.55886719 140.75390625 487.88085938 C138.17045545 485.29489059 135.80378162 482.55424076 133.42480469 479.78125 C130.83810424 476.83708716 128.05177217 474.11252879 125.25 471.375 C121.73589959 467.90474488 118.27215286 464.44607211 115.0625 460.6875 C112.31075254 457.48171421 109.47737599 454.3714251 106.5625 451.3125 C105.74394531 450.44496094 104.92539062 449.57742188 104.08203125 448.68359375 C101.97886372 446.69862613 101.97886372 446.69862613 99.76171875 446.765625 C96.79217428 448.40319904 94.97467613 450.6350814 92.75 453.1875 C91.77854525 454.2847737 90.80449907 455.37975754 89.828125 456.47265625 C89.32474609 457.0361377 88.82136719 457.59961914 88.30273438 458.18017578 C85.79244975 460.92017513 83.14932215 463.52035515 80.5 466.125 C77.32208871 469.26139285 74.20436362 472.4065273 71.3125 475.8125 C67.62992096 480.14654266 63.57099384 484.08036237 59.5300293 488.07543945 C55.89592657 491.68416954 52.41974604 495.37048267 49.1171875 499.2890625 C47.75 500.875 47.75 500.875 46.1328125 502.3984375 C43.27140061 505.45384341 43.6255707 508.88276534 43.62695217 512.83516216 C43.62496112 514.08819092 43.62297007 515.34121969 43.62091869 516.63221902 C43.62377192 518.0304222 43.62671752 519.42862519 43.62974548 520.826828 C43.62930966 522.30609589 43.62843455 523.7853637 43.62715632 525.26463109 C43.62491355 529.33962628 43.62892968 533.41459533 43.63393438 537.48958719 C43.6382418 541.88016853 43.63679225 546.27074832 43.6360321 550.66133118 C43.63550706 558.27166787 43.63865187 565.88199601 43.64426994 573.49233055 C43.65238751 584.49567722 43.65500043 595.49901974 43.65625793 606.50236908 C43.65844805 624.35338838 43.66510704 642.20440311 43.67456055 660.05541992 C43.68373571 677.39884417 43.69081604 694.74226718 43.69506836 712.08569336 C43.69533108 713.15424961 43.69559381 714.22280585 43.69586449 715.32374259 C43.6971695 720.68422819 43.69843322 726.0447138 43.69967639 731.40519941 C43.71004774 775.8951361 43.72766496 820.38506781 43.75 864.875 C45.14412109 865.31972656 45.14412109 865.31972656 46.56640625 865.7734375 C54.40099482 868.48430127 60.34011223 874.14709702 64.08203125 881.48828125 C67.85401725 890.91158198 67.86611007 898.84576866 64.07421875 908.265625 C59.95830663 916.3760359 53.28384201 921.72505317 44.89453125 924.984375 C36.92478349 927.24164517 28.52677866 926.69629503 21.02734375 923.18359375 C12.76720638 918.43720263 7.60254582 912.04314541 4.75 902.875 C4.05844779 896.11390222 4.22249531 889.527851 5.75 882.875 C5.19806473 882.70475311 4.64612946 882.53450623 4.07746887 882.35910034 C-1.41959675 880.60406693 -6.51960218 878.46077541 -11.67578125 875.8828125 C-12.45213425 875.50087738 -13.22848724 875.11894226 -14.02836609 874.72543335 C-15.68404802 873.91052764 -17.33854987 873.09322049 -18.99194336 872.27368164 C-23.38026011 870.09932049 -27.77798402 867.94416862 -32.17578125 865.7890625 C-33.48677292 865.14611237 -33.48677292 865.14611237 -34.82424927 864.49017334 C-41.92132308 861.01740605 -49.06654127 857.66581896 -56.25 854.375 C-67.50220687 849.21156266 -78.6320557 843.82006479 -89.75 838.375 C-101.99727992 832.37690999 -114.27742314 826.48935372 -126.67138672 820.79907227 C-135.66468419 816.65269293 -144.57020359 812.33997964 -153.46624756 807.98965454 C-159.66740926 804.95915397 -165.8764528 801.94481676 -172.08459473 798.9286499 C-174.174596 797.91169032 -176.26276289 796.89105132 -178.35058594 795.86962891 C-181.97350665 794.09958754 -185.61030727 792.36028732 -189.25 790.625 C-190.83288818 789.84564087 -190.83288818 789.84564087 -192.44775391 789.05053711 C-193.41374512 788.59557861 -194.37973633 788.14062012 -195.375 787.671875 C-196.20257813 787.27323242 -197.03015625 786.87458984 -197.8828125 786.46386719 C-200.9842781 785.69233924 -202.44615338 786.45511087 -205.25 787.875 C-205.930625 788.21660156 -206.61125 788.55820313 -207.3125 788.91015625 C-207.951875 789.24917969 -208.59125 789.58820312 -209.25 789.9375 C-216.62593382 793.63233463 -224.28875128 793.83067036 -232.25 791.8125 C-240.94325038 788.89675142 -246.75578569 783.39924052 -251.09375 775.41015625 C-254.81945202 767.24130284 -255.31125254 758.73374686 -252.30859375 750.19921875 C-248.37448203 741.64285036 -242.6535705 735.99750628 -234.25 731.875 C-227.21251949 729.54481201 -217.18163503 729.62739931 -210.3125 732.4375 C-202.15363767 736.8165504 -195.78372466 743.22397278 -192.46875 751.92578125 C-191.16572791 756.61494627 -191.29073791 760.84348595 -191.7109375 765.67578125 C-191.85861572 767.42048706 -191.85861572 767.42048706 -192.00927734 769.20043945 C-192.12843506 770.52434692 -192.12843506 770.52434692 -192.25 771.875 C-163.11183417 786.19356408 -163.11183417 786.19356408 -133.72949219 800.00073242 C-123.999378 804.48372814 -114.3731522 809.16776105 -104.75 813.875 C-94.00596972 819.13045422 -83.2449534 824.32132613 -72.375 829.3125 C-60.23407373 834.88843898 -48.23300233 840.73011854 -36.23550415 846.60662842 C-22.12721395 853.5138355 -7.94177258 860.22484387 6.34448242 866.75610352 C7.89182491 867.47583056 9.4230921 868.23177724 10.9309082 869.03100586 C13.61739521 870.27744064 14.9353034 869.77058528 17.75 868.875 C19.82444789 867.87031641 21.86035245 866.82050771 23.8828125 865.71484375 C25.75 864.875 25.75 864.875 28.75 864.875 C28.60942797 819.60768247 28.44275794 774.34052665 28.24096211 729.07343842 C28.21717435 723.73230939 28.19360324 718.39117941 28.17016602 713.05004883 C28.16549634 711.98670152 28.16082666 710.92335421 28.15601548 709.82778426 C28.0808676 692.59790325 28.02328005 675.36800585 27.97215316 658.13803873 C27.91932368 640.4656525 27.84769034 622.79341507 27.75850838 605.12117451 C27.70404951 594.2116405 27.66435413 583.30225604 27.64339145 572.39260539 C27.62762377 564.91696933 27.59363315 557.44155628 27.5451673 549.96606121 C27.51772451 545.64951024 27.49845624 541.33332033 27.5007782 537.01667404 C27.502726 533.06665632 27.48185477 529.11744865 27.44263007 525.16763129 C27.43248597 523.73690063 27.43080343 522.30608043 27.43832556 520.87533358 C27.88601637 512.62480739 27.88601637 512.62480739 24.38495159 505.59860516 C21.57705606 503.7618719 18.82668955 502.13884412 15.8046875 500.67578125 C14.65597168 500.11205811 13.50725586 499.54833496 12.32373047 498.9675293 C11.41950348 498.53239517 11.41950348 498.53239517 10.49700928 498.08847046 C7.9425236 496.85903417 5.39910211 495.60747396 2.85501099 494.35670471 C1.57922668 493.72953326 0.30292173 493.10341975 -0.97390747 492.4783783 C-5.82647323 490.09927657 -10.61329595 487.61733097 -15.375 485.0625 C-24.246705 480.32628757 -33.24767459 475.85585507 -42.25 471.375 C-51.83371165 466.60472159 -61.39089407 461.80998159 -70.83203125 456.76171875 C-78.89413274 452.48006982 -87.07848223 448.44237428 -95.25 444.375 C-104.83370534 439.60470912 -114.39089377 434.80998175 -123.83203125 429.76171875 C-131.89413274 425.48006982 -140.07848223 421.44237428 -148.25 417.375 C-157.83370534 412.60470912 -167.39089377 407.80998175 -176.83203125 402.76171875 C-184.89413274 398.48006982 -193.07848223 394.44237428 -201.25 390.375 C-210.83370534 385.60470912 -220.39089377 380.80998175 -229.83203125 375.76171875 C-238.64246333 371.08264381 -247.5968063 366.68661499 -256.52679443 362.24172974 C-264.68650981 358.17860676 -272.83442744 354.10827628 -280.875 349.8125 C-289.54872742 345.18159427 -298.33325159 340.77624142 -307.125 336.375 C-308.1951535 335.83805008 -308.1951535 335.83805008 -309.28692627 335.29025269 C-311.33335577 334.26408365 -313.38124595 333.24089566 -315.4296875 332.21875 C-316.04346252 331.91087051 -316.65723755 331.60299103 -317.28961182 331.28578186 C-322.16624436 328.8317435 -322.16624436 328.8317435 -327.25 326.875 C-329.84174493 327.89991187 -329.84174493 327.89991187 -332.25 329.6875 C-335.67730851 332.02770909 -338.17389702 333.16635251 -342.25 333.875 C-342.17912957 334.81403419 -342.10825914 335.75306839 -342.03524113 336.72055817 C-341.27888029 347.32209835 -341.11279103 357.86511223 -341.13647461 368.49023438 C-341.13675747 370.29552712 -341.13659682 372.10081999 -341.1360321 373.90611267 C-341.13574798 378.75419446 -341.14158191 383.60225095 -341.14860606 388.45032692 C-341.15490423 393.53650404 -341.15544847 398.62268189 -341.15663147 403.7088623 C-341.15972587 413.31668691 -341.16791351 422.92449999 -341.17798096 432.53231955 C-341.18920116 443.48048555 -341.19466736 454.42865214 -341.19967639 465.37682247 C-341.21009792 487.87622135 -341.22766035 510.37561002 -341.25 532.875 C-339.83074219 533.08648682 -339.83074219 533.08648682 -338.3828125 533.30224609 C-331.89757226 534.48790488 -326.62906647 539.8084915 -322.5703125 544.83203125 C-317.63433831 552.46964812 -316.0509975 560.53316859 -317.72265625 569.375 C-319.95997467 578.16350828 -324.70642255 584.45755612 -332.12109375 589.62109375 C-340.40521593 594.50036571 -349.07055002 595.11583428 -358.3125 592.8125 C-367.23709262 589.78626451 -372.63006078 584.2062246 -377.15625 576.109375 C-380.73716978 568.79406745 -380.53938741 559.10951953 -378.19140625 551.3984375 C-374.15492198 542.7566419 -368.22259036 536.42230316 -359.25 532.875 C-358.26 532.875 -357.27 532.875 -356.25 532.875 C-356.25 466.875 -356.25 400.875 -356.25 332.875 C-358.23 332.545 -360.21 332.215 -362.25 331.875 C-369.38058367 327.96890821 -376.22571905 321.20931813 -378.77734375 313.37109375 C-380.50357742 304.25486802 -380.50463035 294.76469572 -375.25 286.875 C-369.75823472 279.24214142 -363.08203447 273.76441074 -353.6640625 272.09765625 C-343.13436821 271.12647085 -335.66483927 274.33452817 -327 280 C-320.75826318 286.52545213 -317.09311765 294.3204126 -317.125 303.375 C-317.12113281 304.47328125 -317.12113281 304.47328125 -317.1171875 305.59375 C-317.26269157 308.09299631 -317.73940306 310.42697418 -318.25 312.875 C-294.87761473 324.97166543 -294.87761473 324.97166543 -271.375 336.8125 C-264.28732222 340.33493567 -257.23392876 343.90102182 -250.25 347.625 C-241.33458151 352.37835834 -232.2941221 356.8733639 -223.25 361.375 C-213.61943959 366.16857288 -204.01565285 370.98756077 -194.52734375 376.05859375 C-186.84074627 380.14167049 -179.04173927 383.99783375 -171.25 387.875 C-162.74715289 392.10601322 -154.2519077 396.33545622 -145.875 400.8125 C-137.08710712 405.5080717 -128.16900511 409.93558637 -119.25 414.375 C-109.61944593 419.16858543 -100.01565315 423.98756061 -90.52734375 429.05859375 C-82.84074627 433.14167049 -75.04173927 436.99783375 -67.25 440.875 C-58.74715289 445.10601322 -50.2519077 449.33545622 -41.875 453.8125 C-32.3469427 458.90355845 -22.66604018 463.68549618 -12.99490356 468.49691772 C-4.38411579 472.78216413 4.1979201 477.10263724 12.6875 481.625 C14.77006719 482.72604897 16.85363264 483.82514375 18.93847656 484.921875 C20.66603664 485.83082305 22.39166301 486.74344354 24.1171875 487.65625 C25.08914063 488.1409375 26.06109375 488.625625 27.0625 489.125 C27.84238281 489.52203125 28.62226562 489.9190625 29.42578125 490.328125 C32.90344856 491.14639966 34.54936723 490.4573353 37.75 488.875 C40.21708791 486.72790475 42.34604071 484.33147998 44.5 481.875 C45.7341818 480.50776333 46.96986579 479.1418812 48.20703125 477.77734375 C49.10929443 476.77550049 49.10929443 476.77550049 50.02978516 475.75341797 C52.34024313 473.23047394 54.74607358 470.83406101 57.1875 468.4375 C59.91209389 465.74811895 62.52364067 463.04378581 65 460.125 C68.94403952 455.50483941 73.29483639 451.30437408 77.609375 447.03515625 C81.4074667 443.26162118 85.06142897 439.42330587 88.515625 435.328125 C89.75 433.875 89.75 433.875 91.75 431.875 C91.95924877 429.00471245 92.04363599 426.23014019 92.04052734 423.35791016 C92.04724457 422.47646835 92.05396179 421.59502655 92.06088257 420.68687439 C92.07993635 417.76254698 92.08379056 414.83844819 92.0859375 411.9140625 C92.09236062 409.88626001 92.0990886 407.85845847 92.10610962 405.83065796 C92.11810108 401.57523449 92.12178856 397.31989231 92.12060547 393.06445312 C92.12040225 387.60764779 92.14769952 382.15136309 92.18214989 376.69468117 C92.20437282 372.50482788 92.20844441 368.31510075 92.20738602 364.12519455 C92.20974912 362.11331768 92.21861232 360.1014377 92.23405075 358.08961868 C92.25361634 355.2763334 92.24790978 352.4641819 92.23583984 349.65087891 C92.24707886 348.81748489 92.25831787 347.98409088 92.26989746 347.1254425 C92.23348145 343.79031767 92.11214153 341.4218577 90.24552917 338.60314941 C86.76505578 336.19292792 83.13348393 334.3096349 79.33569336 332.44873047 C78.48780746 332.02529861 77.63992157 331.60186676 76.76634216 331.16560364 C73.96117413 329.76696106 71.15054789 328.37966647 68.33984375 326.9921875 C66.37287623 326.01371151 64.40629386 325.03446091 62.44007874 324.05447388 C57.25089269 321.47035481 52.05716568 318.8955016 46.86224365 316.32293701 C38.60129493 312.23002324 30.34757226 308.122553 22.09329414 304.01620865 C19.23746023 302.59698659 16.37989305 301.18131087 13.5219574 299.7663269 C5.25468379 295.66648357 -2.9786914 291.52244361 -11.12670898 287.18994141 C-24.09890992 280.30226574 -37.27314121 273.80900973 -50.41699982 267.25726891 C-54.17518783 265.38324911 -57.93202224 263.5065198 -61.68896484 261.63000488 C-71.20810957 256.87593047 -80.72895676 252.12527081 -90.25 247.375 C-100.53703757 242.24255672 -110.82375443 237.10947619 -121.10850716 231.9724555 C-124.82665754 230.11543776 -128.54522122 228.2592586 -132.26483154 226.40516663 C-146.99886699 219.06057218 -161.7085503 211.68848561 -176.23627663 203.94082451 C-182.1191289 200.82714553 -188.05001371 197.80541552 -193.98999023 194.80249023 C-195.48430844 194.04429101 -196.97609056 193.28107711 -198.46557617 192.51342773 C-200.66803719 191.3789842 -202.87780673 190.26016222 -205.08984375 189.14453125 C-205.75330307 188.79888626 -206.41676239 188.45324127 -207.10032654 188.09712219 C-210.66894453 186.30439425 -210.66894453 186.30439425 -214.57910156 186.10058594 C-216.54778342 187.01301417 -218.27308579 188.08432772 -220.0625 189.3125 C-226.74199047 193.56867625 -233.43184765 194.78673788 -241.25 193.875 C-250.98427866 191.48888155 -258.39863336 187.29757436 -263.6875 178.6875 C-267.92833054 171.16493684 -268.3397711 163.34029377 -267.25 154.875 C-264.23612708 144.97704096 -258.1662284 138.31504231 -249.1875 133.4375 C-241.97432424 130.50205108 -233.17561402 131.0735919 -225.671875 132.60546875 C-221.28921204 132.9506785 -219.77172921 131.91024609 -216.125 129.5 C-214.80403508 128.65579239 -213.48091593 127.81495083 -212.15625 126.9765625 C-211.39699219 126.4909082 -210.63773438 126.00525391 -209.85546875 125.50488281 C-205.12911571 122.54825492 -200.29986789 119.76412934 -195.4831543 116.9581604 C-192.96324543 115.48924821 -190.44657907 114.01482512 -187.92980957 112.5405426 C-185.98996642 111.40427908 -184.04973495 110.26868154 -182.109375 109.13330078 C-181.4690332 108.75860657 -180.82869141 108.38391235 -180.16894531 107.99786377 C-179.53569336 107.62731873 -178.90244141 107.25677368 -178.25 106.875 C-173.37440788 104.02184393 -168.4993004 101.16786233 -163.625 98.3125 C-163.02658295 97.96198578 -162.42816589 97.61147156 -161.81161499 97.25033569 C-153.00389057 92.0900705 -144.21532494 86.89846674 -135.4375 81.6875 C-125.15410953 75.58312966 -114.83882457 69.53615545 -104.50390625 63.51953125 C-99.96638337 60.87732766 -95.43301239 58.22814932 -90.90234375 55.57421875 C-90.27663986 55.2079689 -89.65093597 54.84171906 -89.00627136 54.46437073 C-85.866608 52.6256429 -82.73005455 50.78194937 -79.59936523 48.92797852 C-74.32898079 45.81192148 -69.0583802 42.7328714 -63.6328125 39.890625 C-62.82448975 39.45588867 -62.01616699 39.02115234 -61.18334961 38.57324219 C-59.74363972 37.80510477 -58.28931451 37.06341689 -56.81860352 36.35644531 C-54.67463941 35.29250378 -54.67463941 35.29250378 -52.25 32.875 C-51.69823789 29.81493798 -51.97231963 26.95491773 -52.25 23.875 C-51.34670508 14.38366235 -47.87381873 7.05362529 -40.9375 0.5 C-28.74097438 -9.52071336 -12.90136407 -8.43550728 0 0 Z M209.9375 13.3125 C205.97749671 17.951361 205.30101232 21.39589204 205.43359375 27.40625 C206.06174943 32.30741527 208.77409927 34.9943091 212.3125 38.1875 C216.57242647 41.13667987 220.70550565 41.39287585 225.75 40.875 C231.42507225 38.87203332 235.05675089 35.26149821 237.75 29.875 C238.51325018 23.03077297 237.94112923 18.38964372 233.75 12.875 C225.90894044 6.10317584 217.73230682 6.55700075 209.9375 13.3125 Z M-34.5625 15.4375 C-37.51167987 19.69742647 -37.76787585 23.83050565 -37.25 28.875 C-35.24703332 34.55007225 -31.63649821 38.18175089 -26.25 40.875 C-19.40577297 41.63825018 -14.76464372 41.06612923 -9.25 36.875 C-5.58840385 32.63525708 -4.01842885 28.47481134 -4.25 22.875 C-5.04455441 17.95984948 -7.00765129 14.64859456 -10.75 11.375 C-19.28469464 5.61171912 -28.03894509 8.20869591 -34.5625 15.4375 Z M-362.625 553.4375 C-365.48440207 557.72660311 -365.76612199 561.84758953 -365.25 566.875 C-363.5052213 571.81853964 -360.72206108 575.16343355 -356.25 577.875 C-351.83431978 579.92447183 -348.2534511 580.18410263 -343.5625 578.875 C-338.11098482 576.75078891 -335.83456991 573.53995849 -332.875 568.5625 C-331.6227534 563.17783964 -332.45967644 558.48604418 -334.875 553.5625 C-338.25053276 549.7428182 -341.44325957 547.36183285 -346.45703125 546.4921875 C-353.4099482 546.13684251 -357.85537175 548.29132215 -362.625 553.4375 Z M535.3125 554 C533.0918979 558.47004318 532.95268038 563.00249123 533.75 567.875 C536.24334503 572.86169007 539.74350949 576.37175474 544.75 578.875 C549.70482094 579.41860446 553.62125852 579.43937074 558.125 577.1875 C561.70033737 574.03779803 565.43763119 570.67607768 565.98828125 565.73828125 C566.17010008 559.48945502 565.63514409 555.85595396 561.75 550.875 C556.97985957 547.15429047 553.21351785 546.21182515 547.1796875 546.49609375 C541.76029007 547.34124094 538.71769885 549.63436045 535.3125 554 Z M-236.5625 752.4375 C-239.51167987 756.69742647 -239.76787585 760.83050565 -239.25 765.875 C-237.24703332 771.55007225 -233.63649821 775.18175089 -228.25 777.875 C-221.40577297 778.63825018 -216.76464372 778.06612923 -211.25 773.875 C-207.54058115 769.57988344 -205.9772847 765.50384385 -206.25 759.875 C-208.0181687 754.07933593 -210.84781535 749.91631079 -216.10546875 746.76171875 C-224.18516037 743.42093551 -230.98359406 746.25546909 -236.5625 752.4375 Z M413 748.625 C408.97679891 752.64820109 407.56574421 756.25297845 407.3125 761.875 C407.46855508 766.59921273 408.56934565 769.26452749 411.75 772.875 C416.51933488 777.17903392 420.18705459 778.23153915 426.46875 778.16015625 C431.63272296 777.51465963 435.45059802 773.66320227 438.75 769.875 C440.52485039 764.55044883 441.00113067 758.70504835 438.69140625 753.48046875 C435.17744429 748.34760833 431.70601167 746.43723257 425.75 744.875 C420.95295171 744.875 417.04888802 746.0484349 413 748.625 Z " fill="#010101" transform="translate(635.25,262.125)"/>
<path d="M0 0 C23.43 0 46.86 0 71 0 C77.8844247 14.91625352 77.8844247 14.91625352 80.7421875 22.0859375 C81.06732834 22.89327835 81.39246918 23.7006192 81.72746277 24.53242493 C82.4203684 26.25367592 83.11186894 27.97549314 83.80203247 29.69784546 C85.66952283 34.35740893 87.54844478 39.01236566 89.42578125 43.66796875 C90.00008125 45.09333702 90.00008125 45.09333702 90.58598328 46.54750061 C94.37398186 55.94294041 98.21152127 65.31773105 102.0625 74.6875 C102.55447876 75.8850441 102.55447876 75.8850441 103.05639648 77.10678101 C104.71193426 81.13655101 106.36815048 85.1660415 108.02490234 89.1953125 C110.98299416 96.39012807 113.936101 103.58698906 116.88885498 110.78399658 C117.86796476 113.17035321 118.84731038 115.55661296 119.82666016 117.94287109 C123.5487726 127.01383536 127.26360288 136.08775042 130.97265625 145.1640625 C131.38777466 146.17968765 131.80289307 147.19531281 132.23059082 148.24171448 C134.26329012 153.21501534 136.29518536 158.18864188 138.32568359 163.1628418 C139.05953928 164.95883429 139.79342445 166.75481474 140.52734375 168.55078125 C140.86508316 169.37901398 141.20282257 170.2072467 141.55079651 171.06057739 C143.17566428 175.07475199 143.17566428 175.07475199 145 179 C145.66 179 146.32 179 147 179 C147.46148438 177.87134521 147.92296875 176.74269043 148.3984375 175.57983398 C156.58898194 155.54912701 164.78234439 135.51960227 173 115.5 C178.67660997 101.67072494 184.34168824 87.83677166 190 74 C195.5856903 60.34157449 201.17470549 46.68452366 206.77416992 33.03173828 C207.45462242 31.37260533 208.13496498 29.71342728 208.81518555 28.05419922 C210.60858497 23.67994442 212.40433047 19.30667073 214.2041626 14.93505859 C214.97838752 13.05255021 215.74974254 11.16888347 216.52099609 9.28515625 C217.19702881 7.64353516 217.19702881 7.64353516 217.88671875 5.96875 C218.27432373 5.02451172 218.66192871 4.08027344 219.0612793 3.10742188 C220 1 220 1 221 0 C244.1 0 267.2 0 291 0 C291 88.77 291 177.54 291 269 C272.85 269 254.7 269 236 269 C236 211.25 236 153.5 236 94 C235.34 94 234.68 94 234 94 C233.85096222 94.55718719 233.70192444 95.11437439 233.54837036 95.68844604 C231.55863635 102.73460391 228.88354232 109.39836391 226.04388809 116.14056015 C224.47560625 119.86935973 222.92840717 123.60688023 221.38183594 127.34472656 C220.86811652 128.58620233 220.86811652 128.58620233 220.34401894 129.85275841 C215.63139725 141.27537362 211.07513304 152.76090796 206.5078125 164.2421875 C206.04779594 165.39814674 205.58777939 166.55410599 205.11382294 167.7450943 C202.26417235 174.90698094 199.41751477 182.070054 196.57183838 189.23352051 C194.1508446 195.32680593 191.72772316 201.41924507 189.3046875 207.51171875 C186.15309415 215.43611972 183.00224088 223.3608131 179.85311699 231.28619576 C178.66434098 234.27689027 177.47443202 237.26713166 176.28424072 240.25726318 C174.73684542 244.1448031 173.19439893 248.03426211 171.65472412 251.92486572 C170.92207389 253.77041624 170.18935039 255.61593767 169.45654297 257.46142578 C169.12057665 258.31336454 168.78461033 259.16530331 168.43846321 260.0430584 C166.11335714 265.88664286 166.11335714 265.88664286 165 267 C162.1156618 267.08865208 159.25537842 267.11521296 156.37109375 267.09765625 C155.07474754 267.09553383 155.07474754 267.09553383 153.75221252 267.09336853 C150.98060708 267.08775239 148.2090812 267.07519719 145.4375 267.0625 C143.5631522 267.05748708 141.68880315 267.05292381 139.81445312 267.04882812 C135.20960456 267.03777772 130.60481579 267.0205023 126 267 C125.74874863 266.34043304 125.49749725 265.68086609 125.2386322 265.00131226 C115.15512711 238.60091802 104.56340705 212.40512115 94.00061035 186.19378662 C71.29489629 129.84772913 71.29489629 129.84772913 64.00135612 111.41785812 C63.44201785 110.00509129 62.88160527 108.59274924 62.32003975 107.18086624 C61.57179209 105.29822069 60.8285704 103.41357981 60.08569336 101.52880859 C59.47460976 99.98270401 59.47460976 99.98270401 58.85118103 98.40536499 C58 96 58 96 58 94 C57.34 94 56.68 94 56 94 C56 151.75 56 209.5 56 269 C37.85 269 19.7 269 1 269 C0 268 0 268 -0.1241985 266.15737766 C-0.12381878 265.34363699 -0.12343906 264.52989632 -0.12304783 263.69149685 C-0.12503888 262.75595579 -0.12702993 261.82041472 -0.12908131 260.85652393 C-0.12471205 259.29673198 -0.12471205 259.29673198 -0.12025452 257.70542908 C-0.12110894 256.61018262 -0.12196337 255.51493616 -0.12284368 254.38650042 C-0.12450171 250.68595477 -0.11897186 246.98545363 -0.11352539 243.28491211 C-0.11324356 240.64440305 -0.11335705 238.00389678 -0.1139679 235.36338806 C-0.11449332 229.66284149 -0.1113446 223.96230632 -0.10573006 218.26176262 C-0.09761754 210.01964187 -0.09500009 201.77752667 -0.09374207 193.53540237 C-0.09155115 180.16446759 -0.08489001 166.79353889 -0.07543945 153.42260742 C-0.06626635 140.43074575 -0.05918502 127.43888574 -0.05493164 114.44702148 C-0.05453756 113.24664335 -0.05453756 113.24664335 -0.05413551 112.02201515 C-0.05283051 108.0075547 -0.05156679 103.99309423 -0.05032361 99.97863376 C-0.03994977 66.65241712 -0.02151082 33.32621178 0 0 Z " fill="#1E1E1E" transform="translate(1365,794)"/>
<path d="M0 0 C16.83 0 33.66 0 51 0 C57.35920515 8.67164339 63.5879406 17.22031425 69.47265625 26.1875 C72.07978658 30.13738898 74.75114287 34.04119169 77.4375 37.9375 C77.89656738 38.60346191 78.35563477 39.26942383 78.82861328 39.95556641 C79.75800416 41.30293903 80.68769172 42.65010705 81.61767578 43.99707031 C83.87391614 47.26626775 86.12459005 50.53928748 88.375 53.8125 C89.04776978 54.79077759 89.04776978 54.79077759 89.73413086 55.78881836 C93.88555046 61.8279797 98.02246795 67.87702862 102.15917969 73.92626953 C107.42615184 81.62667659 112.71119245 89.31458053 118 97 C124.39969408 106.29970186 130.7868389 115.60779944 137.15917969 124.92626953 C141.08464906 130.66537565 145.0150303 136.40106488 148.96118164 142.12597656 C151.31722797 145.54494315 153.66098485 148.97154005 155.98828125 152.41015625 C156.48183105 153.13630127 156.97538086 153.86244629 157.48388672 154.6105957 C158.42523968 155.99606362 159.36328587 157.38378647 160.29736328 158.77416992 C160.72388184 159.4004126 161.15040039 160.02665527 161.58984375 160.671875 C161.95972412 161.2194043 162.32960449 161.76693359 162.71069336 162.33105469 C164.29068379 164.37627616 166.17252898 166.17252898 168 168 C168 112.56 168 57.12 168 0 C186.81 0 205.62 0 225 0 C225 88.44 225 176.88 225 268 C208.5 268 192 268 175 268 C165.83381465 255.39649514 165.83381465 255.39649514 161.6875 249.3125 C160.73699477 247.92446848 159.7864735 246.53644795 158.8359375 245.1484375 C158.3625293 244.45588867 157.88912109 243.76333984 157.40136719 243.04980469 C155.20900832 239.84300241 153.01182082 236.63953074 150.8125 233.4375 C150.37188232 232.79594971 149.93126465 232.15439941 149.47729492 231.4934082 C144.64811835 224.47230092 139.77384323 217.48261478 134.90356445 210.48999023 C130.65326873 204.38481851 126.42416214 198.26593482 122.21826172 192.13012695 C118.21475365 186.29667652 114.17001826 180.49221547 110.125 174.6875 C104.69071041 166.88781607 99.29469874 159.06389694 93.93847656 151.21044922 C88.94706533 143.90148735 83.89038309 136.63854369 78.8293457 129.37768555 C74.31181758 122.89429288 69.81803839 116.39539159 65.36083984 109.87036133 C63.29969942 106.8592218 61.19077008 103.92102677 59 101 C58.67 156.11 58.34 211.22 58 268 C38.86 268 19.72 268 0 268 C0 179.56 0 91.12 0 0 Z " fill="#1E1E1E" transform="translate(1365,376)"/>
<path d="M0 0 C18.15 0 36.3 0 55 0 C55 33.66 55 67.32 55 102 C55.66 102 56.32 102 57 102 C57.26425781 101.12214844 57.52851563 100.24429688 57.80078125 99.33984375 C62.88774948 85.17255438 73.84935557 75.83911225 87.10546875 69.51953125 C105.38750725 61.92613889 126.49031313 62.04568889 145.05859375 68.74609375 C162.02534538 75.9789321 174.34183562 88.20388416 181.375 105.25 C187.75131574 123.12621366 187.41239799 141.05587544 187.30418181 159.79184079 C187.28520081 163.64213008 187.28364795 167.49242932 187.28010559 171.34275818 C187.27084715 178.60607318 187.24631909 185.86924984 187.21605712 193.1325044 C187.18231784 201.41325349 187.16597844 209.69400981 187.15097082 217.97481072 C187.11976261 234.98328665 187.06712531 251.99162862 187 269 C179.71578452 269.02312916 172.4315769 269.04091801 165.14733219 269.05181217 C161.76528187 269.05703975 158.3832566 269.06413511 155.0012207 269.07543945 C151.11670223 269.08834267 147.23219403 269.09322924 143.34765625 269.09765625 C142.12788589 269.10281754 140.90811554 269.10797882 139.65138245 269.11329651 C137.96975258 269.11340981 137.96975258 269.11340981 136.25415039 269.11352539 C135.26153702 269.115746 134.26892365 269.11796661 133.24623108 269.12025452 C131 269 131 269 130 268 C129.9004683 266.36948861 129.8709127 264.73466493 129.86869812 263.10112 C129.86268585 261.5095533 129.86268585 261.5095533 129.85655212 259.88583374 C129.8573452 258.12416367 129.8573452 258.12416367 129.8581543 256.3269043 C129.85467987 255.09757675 129.85120544 253.86824921 129.84762573 252.60166931 C129.84025027 249.91975554 129.83458554 247.23789172 129.83133507 244.55597496 C129.8254269 240.30573331 129.80888415 236.05557554 129.78999329 231.80537415 C129.78365498 230.34963136 129.77732937 228.89388853 129.77101612 227.43814564 C129.76785031 226.70880019 129.7646845 225.97945474 129.76142275 225.22800791 C129.71939595 215.33130129 129.68642636 205.43463158 129.67407227 195.5378418 C129.66565901 188.86666163 129.64304065 182.19568714 129.6047166 175.52460986 C129.58504965 171.99741492 129.57251948 168.47052677 129.57755089 164.94327354 C129.58311442 160.99412821 129.55764476 157.04549454 129.5300293 153.09643555 C129.53663071 151.94425537 129.54323212 150.7920752 129.55003357 149.60498047 C129.42564487 138.70956553 126.98314783 127.89159797 119 120 C110.69347873 113.50430037 101.46001624 111.556538 91.04296875 112.17578125 C82.01751708 113.34684248 72.77247808 116.48788211 66.5 123.375 C59.08121257 133.30308318 57.70392453 143.35757905 57.68115234 155.47460938 C57.66608391 157.31978653 57.66608391 157.31978653 57.65071106 159.20223999 C57.62523103 162.55293564 57.60830821 165.9034642 57.59528303 169.25421715 C57.57958405 172.7642936 57.55281565 176.27428579 57.5272522 179.78430176 C57.48058362 186.42095574 57.44378209 193.05762578 57.41057932 199.6943593 C57.36851109 207.99681866 57.31317615 216.29918298 57.2578125 224.6015625 C57.15918215 239.40098934 57.08052453 254.20043899 57 269 C38.19 269 19.38 269 0 269 C0 180.23 0 91.46 0 0 Z " fill="#1E1E1E" transform="translate(2105,794)"/>
<path d="M0 0 C1.45900205 1.43682128 2.89945506 2.89295872 4.3125 4.375 C4.869375 4.91253906 5.42625 5.45007813 6 6.00390625 C18.97455718 19.48528207 20.80269973 38.56701155 20.65307617 56.31835938 C20.65222669 57.7295683 20.65271128 59.14077853 20.65440369 60.55198669 C20.65525257 64.32583319 20.63781002 68.09938441 20.61668181 71.87316322 C20.5977268 75.83823715 20.59614994 79.80332037 20.59260559 83.76843262 C20.58333972 91.25135784 20.55880121 98.73414909 20.52855712 106.21701574 C20.49484147 114.74683065 20.47848428 123.27665248 20.46347082 131.8065176 C20.43224568 149.32943608 20.37730336 166.8521713 20.3125 184.375 C2.4925 184.375 -15.3275 184.375 -33.6875 184.375 C-34.0175 175.465 -34.3475 166.555 -34.6875 157.375 C-36.6675 160.345 -38.6475 163.315 -40.6875 166.375 C-50.69482245 178.58173398 -64.365528 184.69131732 -79.6875 187.375 C-103.12082027 188.86894629 -124.81641134 187.20035561 -143.43359375 171.51171875 C-154.6803607 160.84970571 -159.98450035 147.2719172 -160.890625 131.9375 C-161.12765063 113.92355212 -157.37416 98.64443943 -144.6875 85.375 C-124.72914967 67.88499689 -97.08616567 65.99639834 -71.93774414 63.16162109 C-55.01542919 61.78637909 -55.01542919 61.78637909 -39.6875 55.375 C-36.2644644 50.4524473 -37.09077135 43.77812576 -38.08203125 38.125 C-40.06265991 31.58253629 -44.81819612 27.54859302 -50.6484375 24.2734375 C-60.65606766 20.17069257 -73.73720794 21.40457088 -83.70703125 24.921875 C-91.634191 28.78675498 -97.08952069 34.47216561 -100.1640625 42.72265625 C-100.33679687 43.26792969 -100.50953125 43.81320312 -100.6875 44.375 C-118.40533319 43.69714095 -136.03705397 41.99959296 -153.6875 40.375 C-149.36960199 21.70812975 -140.8201336 6.03315199 -124.61328125 -4.85546875 C-88.84196319 -26.49019115 -32.94113543 -28.81120203 0 0 Z M-42.18359375 93.19140625 C-47.41992991 94.81583536 -52.56604827 96.00998496 -57.97265625 96.90234375 C-58.68755219 97.02034332 -59.40244812 97.1383429 -60.13900757 97.25991821 C-63.08079397 97.73697462 -66.02441426 98.20086529 -68.9699707 98.65405273 C-81.04053583 100.53145932 -94.2669134 102.62094808 -102.6875 112.375 C-106.11360963 118.08518271 -107.13017436 122.73488456 -106.6875 129.375 C-105.14384697 135.34530512 -102.84376479 140.48659073 -97.3828125 143.75390625 C-86.49033929 149.42639601 -74.6074483 150.09421475 -62.8125 146.75 C-52.8952683 143.27410752 -44.2709684 137.41123279 -39.40234375 127.8515625 C-35.84962094 119.37086933 -35.55218929 111.59573808 -35.625 102.5 C-35.62951172 101.43007813 -35.63402344 100.36015625 -35.63867188 99.2578125 C-35.65040251 96.63015014 -35.66681772 94.00260462 -35.6875 91.375 C-37.84777674 91.375 -40.17211238 92.52527137 -42.18359375 93.19140625 Z " fill="#1E1E1E" transform="translate(1843.6875,878.625)"/>
<path d="M0 0 C11.75393812 10.45001471 19.05125185 24.50478086 20.46484375 40.19140625 C20.60797922 44.86229748 20.59139881 49.532274 20.57836914 54.20483398 C20.57808676 55.62456765 20.578246 57.04430146 20.57881165 58.46403503 C20.57909764 62.30235399 20.57323298 66.14064146 20.56623769 69.97895312 C20.55997111 73.99614472 20.55939774 78.0133371 20.55821228 82.03053284 C20.55510869 89.63057323 20.54690844 97.23059918 20.53686279 104.83063322 C20.52567142 113.48600978 20.52018359 122.14138703 20.51516736 130.79676902 C20.50472499 148.59499128 20.48639162 166.39319374 20.46484375 184.19140625 C2.64484375 184.19140625 -15.17515625 184.19140625 -33.53515625 184.19140625 C-34.03015625 171.32140625 -34.03015625 171.32140625 -34.53515625 158.19140625 C-36.51515625 161.16140625 -38.49515625 164.13140625 -40.53515625 167.19140625 C-50.91083457 179.60910637 -65.48333798 186.56101214 -81.53515625 188.19140625 C-105.03636293 189.35819889 -125.25548869 186.60606653 -143.91015625 171.234375 C-155.578102 160.61102575 -159.81849987 146.17808848 -160.6640625 130.85546875 C-161.06137542 114.48617656 -156.62887163 99.47779069 -145.53515625 87.19140625 C-128.02797311 71.65041444 -105.94159011 67.92715513 -83.53515625 65.19140625 C-78.82657449 64.61554961 -74.11865711 64.03515757 -69.41171265 63.44607544 C-67.39877866 63.19771388 -65.38475799 62.96052424 -63.37036133 62.72436523 C-50.87283722 61.20135017 -50.87283722 61.20135017 -39.41015625 56.31640625 C-36.31115094 51.1513974 -36.68694276 46.0406865 -37.53515625 40.19140625 C-39.75641076 33.39164753 -42.8419658 28.68500396 -49.21875 25.296875 C-58.71726525 21.24195329 -72.82924978 21.60825352 -82.43359375 25.15625 C-91.20004394 29.47429703 -97.01575018 36.14536013 -100.53515625 45.19140625 C-118.2166053 44.01440911 -135.88099612 42.72956112 -153.53515625 41.19140625 C-149.84403787 21.99759068 -139.70221125 6.40001267 -123.7578125 -4.8125 C-87.6996007 -27.14673785 -33.9734097 -26.10588324 0 0 Z M-43.25390625 94.03515625 C-51.6209082 96.64926907 -60.07330735 97.92844963 -68.71875 99.2578125 C-82.02071803 101.40145943 -93.21300483 103.86925483 -102.91015625 113.56640625 C-106.81872926 119.88025496 -107.10498779 126.10737653 -105.53515625 133.19140625 C-103.4077073 139.21917828 -99.2389406 143.15826505 -93.69921875 146.19921875 C-82.75329626 151.12249393 -69.59796208 150.36772652 -58.53515625 146.19140625 C-47.92889141 140.88124982 -40.32750262 133.54805639 -36.53515625 122.19140625 C-35.65012301 118.47659039 -35.41793703 115.04915428 -35.4375 111.234375 C-35.44072266 110.12255859 -35.44394531 109.01074219 -35.44726562 107.86523438 C-35.45564453 106.71474609 -35.46402344 105.56425781 -35.47265625 104.37890625 C-35.47716797 103.20908203 -35.48167969 102.03925781 -35.48632812 100.83398438 C-35.49808695 97.95307267 -35.51452199 95.07226581 -35.53515625 92.19140625 C-38.33574318 92.19140625 -40.59440513 93.15408454 -43.25390625 94.03515625 Z " fill="#1E1E1E" transform="translate(2345.53515625,459.80859375)"/>
<path d="M0 0 C0.8971875 0.64324219 1.794375 1.28648437 2.71875 1.94921875 C22.46759073 16.95500925 32.60310592 40.26539353 36.3125 64.3125 C37.27742891 76.50569265 37 88.7686863 37 101 C-8.21 101 -53.42 101 -100 101 C-96.07921359 124.23678366 -96.07921359 124.23678366 -81.125 140.875 C-70.29181228 147.98736641 -57.52191274 149.38885748 -44.83984375 147.5390625 C-34.75553046 145.32701959 -25.79070405 140.80331333 -20 132 C-18.99039179 130.00483302 -17.98951845 128.00520653 -17 126 C-6.80428925 125.87729153 3.26220406 126.20884752 13.4375 126.9375 C15.38172852 127.06801758 15.38172852 127.06801758 17.36523438 127.20117188 C23.60707626 127.6321942 29.80334218 128.13043108 36 129 C32.29481051 148.26698533 22.14467328 163.76995932 6.15234375 175.0078125 C-12.78114021 186.97321129 -32.79663404 191.40556971 -55.0625 191.375 C-55.73676025 191.37445618 -56.41102051 191.37391235 -57.10571289 191.37335205 C-84.44679196 191.27248926 -109.37324156 183.46442881 -129.18359375 164.00390625 C-149.11813922 143.35716815 -155.6539132 115.38345185 -156.25 87.4375 C-155.69673603 61.69445295 -149.66800284 36.20557133 -133 16 C-132.33613281 15.16210938 -131.67226562 14.32421875 -130.98828125 13.4609375 C-116.04238971 -4.38572781 -93.75291493 -14.07094674 -70.96875 -16.68359375 C-46.28438672 -18.65154004 -20.29863813 -15.2560967 0 0 Z M-89.75 39.75 C-96.46657714 47.97819659 -98.20389959 55.22339756 -100 66 C-72.28 66 -44.56 66 -16 66 C-17.27813515 53.21864855 -19.67481406 44.14863337 -29 35 C-32.17094761 32.57966318 -35.40631269 30.72020103 -39 29 C-39.66128906 28.66097656 -40.32257813 28.32195312 -41.00390625 27.97265625 C-57.59399057 20.92755195 -77.87045394 27.0511749 -89.75 39.75 Z " fill="#1E1E1E" transform="translate(1774,457)"/>
<path d="M0 0 C0.70640625 0.64582031 1.4128125 1.29164063 2.140625 1.95703125 C3.47867188 3.15779297 3.47867188 3.15779297 4.84375 4.3828125 C23.16638213 21.67917698 30.4300893 44.56220998 33.140625 68.95703125 C33.140625 78.52703125 33.140625 88.09703125 33.140625 97.95703125 C-12.069375 97.95703125 -57.279375 97.95703125 -103.859375 97.95703125 C-99.73633087 121.76201014 -99.73633087 121.76201014 -84.0390625 138.67578125 C-72.01749085 145.7422248 -57.89986722 146.77709382 -44.421875 143.83203125 C-35.75101606 141.31430559 -29.01838959 136.34831178 -23.859375 128.95703125 C-22.02336391 125.70760631 -22.02336391 125.70760631 -20.859375 122.95703125 C-9.72787087 122.64444611 1.30169273 123.60109053 12.390625 124.45703125 C14.31116708 124.6019717 16.23173984 124.74650618 18.15234375 124.890625 C22.81547103 125.24141531 27.47814895 125.59769311 32.140625 125.95703125 C31.08132797 132.46962274 29.56995114 138.10401118 26.515625 143.95703125 C26.16226074 144.64418213 25.80889648 145.33133301 25.44482422 146.03930664 C15.17282122 165.42401119 -2.72649809 177.77375343 -23.33105469 184.27734375 C-34.43507965 187.26243505 -45.2415394 188.45006271 -56.71386719 188.34814453 C-58.85936988 188.33203129 -61.00299023 188.34812772 -63.1484375 188.3671875 C-90.26205593 188.41066513 -113.85808986 179.21271183 -133.609375 160.51953125 C-153.92824872 139.28365372 -159.96971704 109.35331555 -159.859375 80.95703125 C-158.91525132 52.68769459 -150.6182669 27.64156493 -130.859375 6.95703125 C-130.31925781 6.34214844 -129.77914062 5.72726562 -129.22265625 5.09375 C-98.66278968 -28.39124234 -33.8276393 -28.59855765 0 0 Z M-93.9609375 37.3125 C-99.86274048 45.21087037 -102.4752788 53.26835785 -103.859375 62.95703125 C-76.139375 62.95703125 -48.419375 62.95703125 -19.859375 62.95703125 C-21.05337475 51.01703371 -23.1017948 41.55243404 -31.859375 32.95703125 C-50.77504144 18.04498746 -77.48670471 18.84788592 -93.9609375 37.3125 Z " fill="#1E1E1E" transform="translate(2789.859375,878.04296875)"/>
<path d="M0 0 C14.03608129 13.15330888 21.15187092 32.29586541 22.10070419 51.2623291 C22.34055949 60.13791213 22.29248333 69.01459353 22.24168181 77.89237595 C22.22272083 81.77336784 22.22114948 85.65436932 22.21760559 89.53540039 C22.20834143 96.85895519 22.18380532 104.18237303 22.15355712 111.50586796 C22.11983604 119.85430741 22.10348294 128.20275396 22.08847082 136.55124474 C22.05724959 153.70090858 22.00460072 170.85043973 21.9375 188 C14.65328452 188.02312916 7.3690769 188.04091801 0.08483219 188.05181217 C-3.29721813 188.05703975 -6.6792434 188.06413511 -10.0612793 188.07543945 C-13.94579777 188.08834267 -17.83030597 188.09322924 -21.71484375 188.09765625 C-22.93461411 188.10281754 -24.15438446 188.10797882 -25.41111755 188.11329651 C-27.09274742 188.11340981 -27.09274742 188.11340981 -28.80834961 188.11352539 C-30.29726967 188.11685631 -30.29726967 188.11685631 -31.81626892 188.12025452 C-34.0625 188 -34.0625 188 -35.0625 187 C-35.16206466 185.35457077 -35.19158782 183.70486431 -35.19380188 182.056427 C-35.19981415 180.45007133 -35.19981415 180.45007133 -35.20594788 178.81126404 C-35.2051548 177.03321129 -35.2051548 177.03321129 -35.2043457 175.21923828 C-35.20782013 173.97855087 -35.21129456 172.73786346 -35.21487427 171.45957947 C-35.22224953 168.75310873 -35.22791431 166.04668748 -35.23116493 163.34021378 C-35.23707178 159.05244157 -35.25361276 154.76475255 -35.27250671 150.47702026 C-35.27884495 149.00869184 -35.28517057 147.54036337 -35.29148388 146.07203484 C-35.29464969 145.33640745 -35.2978155 144.60078006 -35.30107725 143.84286094 C-35.34311539 133.858472 -35.37608098 123.87411986 -35.38842773 113.88964844 C-35.39683581 107.15951498 -35.41943446 100.42958566 -35.4577834 93.69955432 C-35.477466 90.14053377 -35.48997518 86.58181782 -35.48494911 83.02273941 C-35.47939391 79.03978115 -35.5048315 75.05757347 -35.5324707 71.07470703 C-35.52586929 69.90958084 -35.51926788 68.74445465 -35.51246643 67.54402161 C-35.63438351 56.79626318 -38.31929494 46.81424364 -46.0625 39 C-54.35309795 32.50017121 -63.67819246 30.48548051 -74.08984375 31.2109375 C-84.63117165 32.64900797 -92.52549697 36.25340341 -99.37109375 44.5234375 C-103.82054506 51.03833849 -106.16640442 58.45018195 -106.22071838 66.3024292 C-106.23540161 67.91357353 -106.23540161 67.91357353 -106.25038147 69.55726624 C-106.25613693 70.73042892 -106.2618924 71.90359161 -106.26782227 73.11230469 C-106.27772186 74.35159225 -106.28762146 75.59087982 -106.29782104 76.86772156 C-106.32398869 80.26199938 -106.34585901 83.65625393 -106.36582303 87.05057049 C-106.38771026 90.59935202 -106.41508555 94.14809111 -106.44187927 97.69683838 C-106.49176917 104.41509092 -106.53672171 111.13336708 -106.57990164 117.85166574 C-106.63854415 126.93138293 -106.70481111 136.01104427 -106.77065182 145.09071159 C-106.87416857 159.39377008 -106.96749621 173.69687657 -107.0625 188 C-125.8725 188 -144.6825 188 -164.0625 188 C-164.0625 121.34 -164.0625 54.68 -164.0625 -14 C-146.2425 -14 -128.4225 -14 -110.0625 -14 C-110.0625 -2.45 -110.0625 9.1 -110.0625 21 C-109.4025 21 -108.7425 21 -108.0625 21 C-107.85625 20.195625 -107.65 19.39125 -107.4375 18.5625 C-101.91181936 4.24596379 -90.24690984 -5.47203989 -76.69921875 -11.9375 C-51.09814591 -22.25378417 -21.11730206 -17.54360479 0 0 Z " fill="#1E1E1E" transform="translate(2582.0625,875)"/>
<path d="M0 0 C18.81 0 37.62 0 57 0 C57.02578125 9.10078125 57.0515625 18.2015625 57.078125 27.578125 C57.10330272 33.35679212 57.12948102 39.13542627 57.16015625 44.9140625 C57.20861937 54.0784479 57.25309309 63.24272368 57.27099609 72.40722656 C57.28405651 79.08317451 57.31113212 85.7588982 57.35461307 92.4347198 C57.37713003 95.96526607 57.39291662 99.49553676 57.39188385 103.02616119 C57.39099107 106.98023458 57.42140736 110.93375063 57.45410156 114.88769531 C57.4490712 116.04144653 57.44404083 117.19519775 57.43885803 118.38391113 C57.58719737 130.04296436 60.34571207 139.49433354 68.5546875 147.93359375 C72.06530324 150.90023229 75.62206756 152.66904157 80 154 C80.62003906 154.18949219 81.24007813 154.37898437 81.87890625 154.57421875 C92.0145969 156.60882332 102.17730655 154.89613283 111.125 149.875 C120.42124893 143.55204526 125.16351519 135.41563259 127.53038025 124.56954956 C128.20396598 119.44966765 128.17856873 114.37050485 128.20532227 109.21142578 C128.21522186 108.03036758 128.22512146 106.84930939 128.23532104 105.63246155 C128.26142459 102.40772567 128.28332113 99.18299463 128.30332303 95.95821619 C128.32526118 92.58294735 128.3526114 89.20772239 128.37937927 85.83248901 C128.42920068 79.44721399 128.47417844 73.06191448 128.51740164 66.67659175 C128.5717201 58.69061167 128.63252957 50.70468269 128.69335938 42.71875 C128.80179511 28.479206 128.90043709 14.23961494 129 0 C147.48 0 165.96 0 185 0 C185 66.33 185 132.66 185 201 C167.18 201 149.36 201 131 201 C131 189.12 131 177.24 131 165 C130.34 165 129.68 165 129 165 C128.89558594 165.71800781 128.79117187 166.43601562 128.68359375 167.17578125 C125.90741707 178.64535691 115.1786263 188.36893912 105.8125 194.8125 C89.8207616 204.43484046 69.96491542 206.25491587 51.8125 203 C39.07494256 199.81188621 28.04387448 193.51166109 19 184 C18.14535156 183.13955078 18.14535156 183.13955078 17.2734375 182.26171875 C12.81200311 177.46853667 9.87642286 171.84247928 7 166 C6.61714844 165.23042969 6.23429687 164.46085938 5.83984375 163.66796875 C-1.78656884 146.6462798 -0.409309 127.40931249 -0.30418181 109.20815921 C-0.28520081 105.35786992 -0.28364795 101.50757068 -0.28010559 97.65724182 C-0.27084715 90.39392682 -0.24631909 83.13075016 -0.21605712 75.8674956 C-0.18231784 67.58674651 -0.16597844 59.30599019 -0.15097082 51.02518928 C-0.11976258 34.01669951 -0.06483 17.0083999 0 0 Z " fill="#1E1E1E" transform="translate(1838,443)"/>
<path d="M0 0 C0.72316406 0.62003906 1.44632813 1.24007812 2.19140625 1.87890625 C12.4999721 11.35022817 18.2727425 23.39959745 21 37 C21 38.32 21 39.64 21 41 C-14.98759542 44.27767176 -14.98759542 44.27767176 -31 44 C-31.32871094 43.21496094 -31.65742188 42.42992187 -31.99609375 41.62109375 C-36.06240815 32.63993865 -40.7716415 26.9804552 -49.9375 23.0625 C-61.98790872 19.67398437 -74.9389879 21.30100406 -85.890625 26.98046875 C-89.40393318 29.06969328 -91.51518133 31.2054634 -93 35 C-93.66580537 39.90723215 -93.55644383 43.77118653 -91.5 48.3125 C-85.47140608 54.79323846 -78.53062315 57.03068192 -70.0625 58.875 C-68.46656006 59.24226196 -68.46656006 59.24226196 -66.83837891 59.61694336 C-60.42512996 61.07491609 -53.99035146 62.42616066 -47.55078125 63.76171875 C-46.83134842 63.91167297 -46.11191559 64.0616272 -45.37068176 64.21612549 C-41.84489729 64.95035873 -38.31777243 65.6745816 -34.78540039 66.37646484 C-14.93710841 70.39447062 5.13576425 76.71430759 17.91015625 93.51171875 C26.60941239 107.12701644 27.30093695 122.48559634 24 138 C21.36107807 146.8105942 16.80111966 153.9284801 11 161 C10.47921875 161.63550781 9.9584375 162.27101563 9.421875 162.92578125 C-4.53157843 178.25343843 -27.00107628 185.56835602 -47 188 C-49.6267532 188.12293564 -52.22838068 188.20933903 -54.85546875 188.23828125 C-55.59084366 188.2480751 -56.32621857 188.25786896 -57.08387756 188.26795959 C-88.11334666 188.59627593 -88.11334666 188.59627593 -103 184 C-103.72010254 183.78037598 -104.44020508 183.56075195 -105.18212891 183.33447266 C-124.13500179 177.33930602 -139.88304443 165.92336102 -149.5 148.2421875 C-157.09127761 132.38183964 -157.09127761 132.38183964 -155 125 C-149.89981924 124.70906956 -144.79932918 124.42458994 -139.69848633 124.14550781 C-137.97150503 124.05017755 -136.24461197 123.95323215 -134.51782227 123.85449219 C-122.99786195 123.19716694 -111.53875313 122.86538277 -100 123 C-99.74500732 123.70592285 -99.49001465 124.4118457 -99.22729492 125.13916016 C-95.48063002 135.32024957 -91.54499709 139.13790178 -81.83984375 143.80078125 C-71.85596951 148.01680517 -56.72785539 147.80616338 -46.5625 144.375 C-41.15873254 141.91637268 -36.60592434 138.72308909 -33.5625 133.5625 C-32.57082766 129.04488158 -32.57944103 125.37382595 -33.9375 120.9375 C-43.44149711 107.40150412 -66.70971065 106.52376673 -81.8034668 103.65087891 C-104.77325821 99.25697208 -128.38675414 93.43777185 -142.6875 73.24609375 C-150.64327295 59.63130374 -152.48357928 43.38175073 -149.31640625 27.9453125 C-144.59164799 11.59490425 -134.17798871 0.68651421 -120 -8 C-86.19469367 -26.39681035 -29.95075829 -26.8049456 0 0 Z " fill="#1E1E1E" transform="translate(2997,878)"/>
<path d="M0 0 C15.43763822 14.55159276 21.3042048 33.70905132 23.01953125 54.29296875 C5.19953125 54.29296875 -12.62046875 54.29296875 -30.98046875 54.29296875 C-32.30046875 50.00296875 -33.62046875 45.71296875 -34.98046875 41.29296875 C-38.88210151 33.60117846 -44.81814829 26.66229871 -52.98046875 23.29296875 C-62.46671056 20.74666174 -74.43167707 20.9210567 -83.48828125 24.84375 C-96.95735581 32.67608019 -102.67078451 44.90417825 -106.52685547 59.33496094 C-111.25342279 79.73704378 -108.7518064 103.85541449 -98.41796875 122.04296875 C-93.11353628 130.29430814 -85.60256707 135.99313506 -75.98046875 138.29296875 C-63.5923445 140.35479248 -53.83479414 138.34217793 -43.35546875 131.60546875 C-36.01447527 124.45765931 -32.94871757 116.13421286 -30.98046875 106.29296875 C-13.16046875 106.29296875 4.65953125 106.29296875 23.01953125 106.29296875 C21.07433261 129.63535239 13.82923335 148.98689427 -3.7890625 164.81640625 C-27.73091363 183.85293917 -57.41263332 186.90265072 -87.03759766 183.99267578 C-92.17337273 183.23185611 -97.07029734 181.96508118 -101.98046875 180.29296875 C-102.64127441 180.07334473 -103.30208008 179.8537207 -103.98291016 179.62744141 C-117.38090939 175.0446835 -127.79621485 168.0214729 -137.98046875 158.29296875 C-138.59535156 157.75285156 -139.21023438 157.21273438 -139.84375 156.65625 C-155.61498404 142.26273295 -163.42160693 118.88151214 -165.98046875 98.29296875 C-166.09213436 95.69166764 -166.16731938 93.11676641 -166.18359375 90.515625 C-166.18929382 89.78661484 -166.1949939 89.05760468 -166.2008667 88.3065033 C-166.21026294 86.76774519 -166.21682913 85.22896746 -166.22070312 83.69018555 C-166.23031309 81.39268425 -166.26134676 79.09611658 -166.29296875 76.79882812 C-166.38696964 63.78346787 -164.88908136 51.08513491 -160.35546875 38.79296875 C-160.10240967 38.09921143 -159.84935059 37.4054541 -159.58862305 36.69067383 C-154.46913229 23.25789549 -147.25083206 12.29384731 -136.98046875 2.29296875 C-136.24054688 1.555625 -135.500625 0.81828125 -134.73828125 0.05859375 C-99.06682597 -33.65289146 -36.11677256 -31.13023592 0 0 Z " fill="#1E1E1E" transform="translate(2055.98046875,881.70703125)"/>
<path d="M0 0 C18.48 0 36.96 0 56 0 C56 88.44 56 176.88 56 268 C37.52 268 19.04 268 0 268 C0 179.56 0 91.12 0 0 Z " fill="#1E1E1E" transform="translate(2400,376)"/>
<path d="M0 0 C0.76892578 -0.01224609 1.53785156 -0.02449219 2.33007812 -0.03710938 C3.09384766 -0.03904297 3.85761719 -0.04097656 4.64453125 -0.04296875 C5.32491455 -0.04707764 6.00529785 -0.05118652 6.70629883 -0.05541992 C10.26213147 0.29271089 13.72134215 1.32096054 17.1875 2.1875 C17.1875 18.6875 17.1875 35.1875 17.1875 52.1875 C11.9075 51.5275 6.6275 50.8675 1.1875 50.1875 C-13.00380825 49.58103384 -26.29026208 51.50062627 -37.1484375 61.3671875 C-46.06758038 71.12380858 -48.26163874 82.63195523 -48.24487305 95.43017578 C-48.2550647 96.61181808 -48.26525635 97.79346039 -48.27575684 99.01091003 C-48.30575432 102.88492659 -48.31513279 106.75869533 -48.32421875 110.6328125 C-48.33944538 113.33139172 -48.35908304 116.02993408 -48.37861633 118.72848511 C-48.42212119 125.08529228 -48.45076606 131.44207414 -48.47393972 137.79898441 C-48.50374504 145.75409254 -48.55362205 153.70905935 -48.60351562 161.6640625 C-48.69232951 175.83849848 -48.75101861 190.01286065 -48.8125 204.1875 C-67.6225 204.1875 -86.4325 204.1875 -105.8125 204.1875 C-105.8125 137.8575 -105.8125 71.5275 -105.8125 3.1875 C-87.6625 3.1875 -69.5125 3.1875 -50.8125 3.1875 C-50.8125 14.7375 -50.8125 26.2875 -50.8125 38.1875 C-50.1525 38.1875 -49.4925 38.1875 -48.8125 38.1875 C-48.71324219 37.33027344 -48.61398438 36.47304688 -48.51171875 35.58984375 C-46.13423098 24.0211742 -38.4273828 14.53666796 -29 7.9375 C-24.10592547 4.79824872 -19.47581899 2.50278138 -13.8125 1.1875 C-13.08546875 1.00445312 -12.3584375 0.82140625 -11.609375 0.6328125 C-7.73050507 0.01522706 -3.92173997 0.00323843 0 0 Z " fill="#1E1E1E" transform="translate(2163.8125,439.8125)"/>
<path d="M0 0 C18.81 0 37.62 0 57 0 C57 66.66 57 133.32 57 202 C38.52 202 20.04 202 1 202 C-0.75336305 200.24663695 -0.12245719 197.94615396 -0.12908131 195.61012262 C-0.12471205 194.44137097 -0.12471205 194.44137097 -0.12025452 193.24900818 C-0.12110894 192.42735973 -0.12196337 191.60571128 -0.12284368 190.75916439 C-0.124501 187.9845222 -0.11897302 185.20993943 -0.11352539 182.43530273 C-0.11324355 180.45488486 -0.1134012 178.47446688 -0.1139679 176.49404907 C-0.11425598 171.09964316 -0.10835748 165.70525926 -0.10139394 160.31085849 C-0.09516222 154.68006421 -0.09455675 149.04926948 -0.09336853 143.41847229 C-0.09025467 132.74766975 -0.08204056 122.0768774 -0.07201904 111.40607935 C-0.06085958 99.26118582 -0.05534788 87.1162918 -0.05032361 74.97139442 C-0.03985799 49.98092265 -0.02151184 24.99046487 0 0 Z " fill="#1E1E1E" transform="translate(2326,861)"/>
<path d="M0 0 C7.76841887 4.57630493 12.6328972 10.52518837 15.1484375 19.265625 C16.2048959 28.02866941 15.2308205 34.97574231 10.1484375 42.265625 C5.21600379 48.49102677 -0.99906267 52.7096667 -8.8515625 54.265625 C-19.54535269 55.2348987 -28.41935431 53.46302984 -36.7890625 46.515625 C-42.67340024 40.87339775 -45.92250077 34.27019917 -46.1015625 26.078125 C-45.9050798 16.82832399 -42.6151895 11.1040643 -36.26953125 4.4375 C-26.58219128 -4.26389099 -11.62966995 -5.48642237 0 0 Z " fill="#1E1E1E" transform="translate(2369.8515625,781.734375)"/>
</svg>
