<?xml version="1.0" encoding="UTF-8"?>
<svg version="1.1" xmlns="http://www.w3.org/2000/svg" width="3284" height="1485">
<path d="M0 0 C0.886875 0.598125 1.77375 1.19625 2.6875 1.8125 C9.59081052 8.3426586 11.96673165 16.0408575 12.375 25.3125 C12.16516648 34.22425309 9.16568178 41.83578481 2.984375 48.28125 C-3.54256378 53.93450406 -10.78656366 56.50816638 -19.3125 57.3125 C-27.55943564 56.61360715 -34.05327864 54.72704745 -40.24609375 49.109375 C-41.90454979 47.8258478 -41.90454979 47.8258478 -43.7734375 48.08203125 C-47.0613116 49.43755829 -50.11149595 51.16635432 -53.1875 52.9375 C-53.89310059 53.33936523 -54.59870117 53.74123047 -55.32568359 54.15527344 C-62.46330513 58.234365 -69.54864446 62.40265064 -76.62207031 66.59179688 C-80.13462951 68.67192433 -83.64962413 70.74792576 -87.16430664 72.82446289 C-89.06207303 73.94580346 -90.95969567 75.06738736 -92.85717773 76.18920898 C-98.96068431 79.79738849 -105.07005062 83.39538607 -111.18457031 86.98486328 C-115.56939208 89.56194355 -119.94500637 92.154118 -124.31640625 94.75390625 C-135.72769701 101.5381843 -147.15844128 108.27555145 -158.69897461 114.83886719 C-170.40618221 121.49874466 -181.99055419 128.31175481 -193.37280273 135.51416016 C-198.1277878 138.50540186 -202.97426128 141.25248623 -207.9609375 143.84375 C-210.13381304 144.95627532 -210.13381304 144.95627532 -212 147 C-211.72285156 147.54269531 -211.44570313 148.08539063 -211.16015625 148.64453125 C-210.79792969 149.35996094 -210.43570313 150.07539063 -210.0625 150.8125 C-209.70285156 151.52019531 -209.34320313 152.22789062 -208.97265625 152.95703125 C-206.85577814 157.40332544 -206.88280167 161.36983931 -206.9375 166.1875 C-206.94201172 166.93708984 -206.94652344 167.68667969 -206.95117188 168.45898438 C-206.96293646 170.30602383 -206.98087135 172.15302213 -207 174 C-206.21533859 174.3912204 -205.43067719 174.7824408 -204.62223816 175.18551636 C-197.13659467 178.91821492 -189.65197787 182.65296306 -182.168437 186.38987541 C-178.32336246 188.30983096 -174.47792933 190.22906012 -170.6315918 192.14648438 C-166.90237012 194.00556205 -163.17420123 195.86673655 -159.44668007 197.72922134 C-158.04208119 198.43061458 -156.63713782 199.13131849 -155.23180199 199.83123398 C-147.52449389 203.67042753 -139.86589444 207.5844718 -132.26000977 211.62109375 C-120.12353523 218.04933149 -107.81966297 224.1454474 -95.52828121 230.27009058 C-92.14992206 231.95418714 -88.77292293 233.6410064 -85.39581299 235.3276062 C-76.84841188 239.5958167 -68.29930138 243.86059739 -59.75 248.125 C-50.49869032 252.73957835 -41.24770585 257.35480261 -31.99867749 261.97395217 C-28.6562432 263.64310924 -25.3133942 265.3114236 -21.96950531 266.97766495 C3.10702711 279.47352147 3.10702711 279.47352147 14.27046204 285.52218628 C17.7899579 287.42769532 21.35077622 289.22447265 24.9375 291 C26.10152344 291.5775 27.26554687 292.155 28.46484375 292.75 C29.14474365 293.08717041 29.82464355 293.42434082 30.52514648 293.77172852 C31.34184814 294.17705811 32.1585498 294.5823877 33 295 C34.03390869 295.51296631 35.06781738 296.02593262 36.13305664 296.55444336 C43.55415915 300.24675379 50.94659586 303.99135127 58.32081604 307.77651978 C62.88824848 310.11727333 67.46332916 312.44284959 72.03930664 314.7668457 C74.40767734 315.97392536 76.77283227 317.18561707 79.1340332 318.40649414 C82.58230123 320.18508948 86.04160134 321.94032741 89.50390625 323.69140625 C90.5550209 324.24018936 91.60613556 324.78897247 92.68910217 325.35438538 C98.17242468 328.09793126 101.84759839 329.93124714 108 328 C110.27894635 327.15372563 110.27894635 327.15372563 112.27734375 325.99609375 C113.03982422 325.58423828 113.80230469 325.17238281 114.58789062 324.74804688 C115.75094727 324.09932617 115.75094727 324.09932617 116.9375 323.4375 C122.49556893 320.39483215 128.08134108 317.43139379 133.75488281 314.60913086 C135.19071046 313.89301251 136.626537 313.17689196 138.06236267 312.46076965 C138.84987852 312.06836405 139.63739437 311.67595844 140.44877434 311.27166176 C144.18344956 309.41010802 147.91658879 307.54548185 151.64985275 305.68109989 C154.90030595 304.05784477 158.15092847 302.43492908 161.40156555 300.81204224 C169.98128648 296.52829123 178.56002812 292.24258037 187.13863087 287.95659065 C193.62320757 284.71687654 200.10816198 281.47792273 206.59399414 278.24072266 C212.30721651 275.38914316 218.0197 272.53608946 223.73135298 269.68136775 C226.73312854 268.18112175 229.73533848 266.68176285 232.73822975 265.18375015 C244.49117852 259.32018874 256.2292734 253.44330674 267.8116045 247.24760628 C273.3277685 244.3059944 278.94533478 241.6409499 284.62004566 239.02131748 C289.71848346 236.64955952 294.69110084 234.09245965 299.64990234 231.44262695 C309.40512178 226.27186446 319.25880227 221.31166352 329.14220047 216.39131737 C332.18844066 214.87471557 335.23332821 213.35542637 338.27792358 211.83552551 C344.72580688 208.61722444 351.17528378 205.40212582 357.625 202.1875 C365.14462323 198.43954723 372.66356217 194.69023419 380.18082809 190.93755531 C383.1650269 189.44867027 386.15042859 187.96221755 389.13589478 186.47587585 C390.97428222 185.55849915 392.81261326 184.6410094 394.65087891 183.72338867 C395.46764099 183.31759079 396.28440308 182.91179291 397.12591553 182.49369812 C402.50125779 179.8062712 407.76923676 176.9587423 413 174 C412.93039062 172.67548828 412.93039062 172.67548828 412.859375 171.32421875 C412.60703351 162.93386412 413.62595477 156.65596608 417 149 C417.33 148.01 417.66 147.02 418 146 C416.65035156 145.25169922 416.65035156 145.25169922 415.2734375 144.48828125 C406.44973847 139.57257148 397.72419296 134.50624907 389.03686523 129.35375977 C381.35100219 124.79525237 373.6481714 120.26635141 365.9375 115.75 C364.71166644 115.03182561 363.48583637 114.31364525 362.26000977 113.59545898 C359.77027664 112.13688314 357.28043453 110.67849353 354.79052734 109.22021484 C314.25352093 85.47791558 314.25352093 85.47791558 299.9296875 77 C298.09898256 75.91662573 296.26825284 74.83329332 294.4375 73.75 C293.52540771 73.21020508 292.61331543 72.67041016 291.67358398 72.11425781 C283.51127112 67.28962253 275.32119845 62.51314521 267.11889648 57.75683594 C262.21388068 54.90565686 257.37157484 52.01588811 252.65185547 48.86523438 C250.86787175 47.76800139 250.86787175 47.76800139 248 48 C247.46375 48.5775 246.9275 49.155 246.375 49.75 C240.24366765 55.55863065 231.92166358 57.33959368 223.71484375 57.20703125 C214.98966448 56.54165787 208.12768912 53.24485335 202 47 C195.2819137 38.29669763 193.20186794 29.83786552 194.40234375 18.9921875 C196.03930257 10.79669433 200.41287278 4.09621365 207 -1 C215.84873231 -6.4351764 225.70337056 -7.72322558 235.89453125 -5.31640625 C245.79247617 -1.65219008 251.40258283 4.62946818 256 14 C258.79958357 20.57516875 257.85684219 27.0526309 257 34 C257.68964844 34.25652344 258.37929688 34.51304687 259.08984375 34.77734375 C262.38083219 36.16000064 265.46070689 37.80780626 268.5625 39.5625 C269.56724365 40.12819702 269.56724365 40.12819702 270.59228516 40.70532227 C278.40567036 45.15558444 286.05493475 49.87959396 293.72592163 54.56900024 C301.56061712 59.35485105 309.43992177 64.01144497 317.50024414 68.40966797 C325.0656878 72.54857911 332.46207566 76.96266589 339.875 81.3671875 C346.83693341 85.50342205 353.82448331 89.59555884 360.8125 93.6875 C363.29954778 95.14441414 365.78648698 96.60151359 368.2734375 98.05859375 C368.8651474 98.40523575 369.4568573 98.75187775 370.0664978 99.10902405 C380.10282301 104.98897791 390.12902153 110.88601656 400.13867188 116.8112793 C402.03405659 117.92991207 403.93246915 119.04343158 405.83398438 120.15161133 C410.19154468 122.69846982 414.47786759 125.28244996 418.65234375 128.12109375 C425.69278583 132.81314305 430.32554668 135.81762886 438.9375 134.5 C440.76474609 134.09587891 440.76474609 134.09587891 442.62890625 133.68359375 C450.00508784 132.1878443 456.59519205 134.64503246 462.8984375 138.46484375 C469.6206493 143.37530702 474.15128458 149.8612765 476 158 C477.17388031 169.32733992 475.91317477 177.41487139 468.75 186.25 C462.0079984 193.46638551 454.84646009 196.52851128 445.125 197.3125 C437.50063762 197.07330432 430.92522431 194.44897627 424.88671875 189.890625 C422.22202739 188.63275827 420.83280479 189.24728272 418 190 C415.97174968 190.8856347 413.97186366 191.83746069 411.99487305 192.83227539 C411.41512222 193.12193176 410.8353714 193.41158813 410.23805237 193.71002197 C408.32637371 194.66690364 406.41909128 195.63222358 404.51171875 196.59765625 C403.16740459 197.2726175 401.82282062 197.9470416 400.47798157 198.62095642 C396.93212488 200.39960702 393.38991946 202.18541237 389.84844971 203.97277832 C386.30146875 205.76144653 382.75121882 207.54359885 379.20117188 209.32617188 C373.80664148 212.0356817 368.41404523 214.74899589 363.02294922 217.46533203 C356.39784252 220.80309357 349.7625533 224.1199882 343.1184082 227.41967773 C339.55012945 229.22798184 336.02232755 231.10420243 332.5 233 C325.56508138 236.7274233 318.54938982 240.26640776 311.49427795 243.76086426 C308.27508441 245.3601318 305.06023969 246.96805938 301.84545898 248.57617188 C300.40388616 249.29712169 298.96231202 250.01806886 297.52073669 250.73901367 C296.77493284 251.11202606 296.02912899 251.48503845 295.26072502 251.86935425 C291.59974363 253.70030362 287.9385342 255.53079685 284.27734375 257.36132812 C282.75333543 258.12332939 281.22932829 258.88533302 279.70532227 259.64733887 C228.29467773 285.35266113 228.29467773 285.35266113 225.98591614 286.5069809 C224.49218835 287.25388507 222.99852448 288.00091712 221.50492859 288.74808502 C217.86596971 290.56827566 214.22588224 292.38613914 210.58349609 294.19946289 C209.86939072 294.55538765 209.15528534 294.91131241 208.41954041 295.27802277 C207.08953258 295.94084082 205.75913559 296.60287891 204.42823792 297.26390839 C200.07715207 299.43364914 195.78025403 301.69396891 191.5 304 C184.40878445 307.81179827 177.23014101 311.42700634 170.01611328 315 C166.67313939 316.65812801 163.33690967 318.32971148 160 320 C158.6588867 320.67063798 157.3177409 321.34121098 155.9765625 322.01171875 C154.9851123 322.50744385 154.9851123 322.50744385 153.97363281 323.01318359 C148.2109375 325.89453125 148.2109375 325.89453125 146.30126953 326.84912109 C145.0181313 327.49085284 143.73525306 328.1331047 142.45263672 328.77587891 C138.36530472 330.82303835 134.27091821 332.85528592 130.171875 334.87890625 C128.67068115 335.6227356 128.67068115 335.6227356 127.13916016 336.3815918 C125.15605559 337.36414895 123.17139256 338.34356795 121.18505859 339.31958008 C120.28094238 339.76841553 119.37682617 340.21725098 118.4453125 340.6796875 C117.63594238 341.07913574 116.82657227 341.47858398 115.99267578 341.89013672 C113.85697397 342.96057179 113.85697397 342.96057179 112 345 C111.72771251 347.86499714 111.58059314 350.63858593 111.51904297 353.51025391 C111.48005386 354.83276405 111.48005386 354.83276405 111.4402771 356.18199158 C111.18561788 365.45447365 111.07308416 374.73066295 110.97021484 384.00585938 C110.91695444 388.39563365 110.81987747 392.78099418 110.68310547 397.16894531 C110.51793053 402.48217916 110.43365935 407.79125279 110.40408707 413.10691452 C110.3797826 415.12055185 110.32815539 417.13407314 110.24718857 419.14622879 C109.76342503 431.75271905 109.76342503 431.75271905 115.42681885 442.63153076 C118.71804509 446.09727503 122.27293234 449.16899698 125.95978165 452.20304489 C128.74242842 454.65390576 131.1020378 457.3822435 133.48408318 460.21703529 C135.6826003 462.80284895 138.07147027 465.12861215 140.5 467.5 C143.58399758 470.51143293 146.5172346 473.55462682 149.33984375 476.8125 C153.11961248 481.17052078 157.03958108 485.36607761 161.0625 489.5 C161.74376953 490.22703125 162.42503906 490.9540625 163.12695312 491.703125 C166.95953124 495.67427187 166.95953124 495.67427187 171.94140625 497.75 C176.32731888 496.67452717 179.95357478 494.70219926 183.875 492.5 C185.59172346 491.56637499 187.30918148 490.63409949 189.02734375 489.703125 C189.87538574 489.23970703 190.72342773 488.77628906 191.59716797 488.29882812 C194.84305899 486.54429244 198.13008131 484.88479837 201.4375 483.25 C202.36574585 482.78859619 202.36574585 482.78859619 203.31274414 482.31787109 C204.70588032 481.6256232 206.09937942 480.93410539 207.49316406 480.24316406 C212.93630405 477.54385857 218.37567188 474.83699413 223.8125 472.125 C224.42495575 471.81953247 225.0374115 471.51406494 225.66842651 471.19934082 C233.73216636 467.17391254 241.7444512 463.06664333 249.69848633 458.82861328 C257.3396842 454.77752117 265.08659606 450.94013671 272.8302002 447.09002686 C281.12875803 442.96190778 289.37163012 438.74541654 297.55834961 434.3996582 C304.18156443 430.88797225 310.87142072 427.52484705 317.58789062 424.19580078 C337.69136895 414.2309995 337.69136895 414.2309995 357.59692383 403.87939453 C365.2726861 399.8131214 373.05232265 395.9571724 380.82965088 392.09030151 C389.1254486 387.96355475 397.36595337 383.74912328 405.54956055 379.40405273 C412.96820115 375.46993746 420.47591684 371.7273303 428 368 C438.30284601 362.89037757 448.59987122 357.78307086 458.75 352.375 C468.48833163 347.18964069 478.36936047 342.29449198 488.24731445 337.38247681 C497.71659858 332.67257259 507.15539658 327.92539795 516.4453125 322.8671875 C520.21691729 320.83463005 523.88986245 319.21900042 528 318 C527.67 317.01 527.34 316.02 527 315 C526.20128697 304.19773355 527.1205264 295.93331256 533.125 286.75 C541.18694849 279.03857101 549.89787092 275.52118517 560.97265625 275.75390625 C569.88704714 276.47855996 576.61767367 280.38963406 582.7265625 286.81640625 C588.14377114 293.42113107 590.62144606 301.17081719 590.2890625 309.70703125 C588.93503232 320.44778415 584.23800088 327.15685486 576.31640625 334.265625 C572.93772014 336.79536637 570.23240573 338 566 338 C566 404.66 566 471.32 566 540 C567.65 540.33 569.3 540.66 571 541 C578.3610574 544.36299289 584.53602975 550.28369639 587.875 557.6875 C591.04568457 567.02340456 590.90872117 575.86981735 587 585 C582.66019637 592.61155589 575.72043235 598.7725939 567.32421875 601.52734375 C557.23110938 603.57989204 548.55558729 601.94985925 539.828125 596.69140625 C537.875 595.375 537.875 595.375 535 593 C535 592.34 535 591.68 535 591 C534.34 591 533.68 591 533 591 C532.18162558 589.58671871 531.37053781 588.16921654 530.5625 586.75 C530.11003906 585.96109375 529.65757812 585.1721875 529.19140625 584.359375 C525.60112921 577.24944932 525.92088952 567.67408999 527.68359375 560.0390625 C530.70694808 551.88478735 535.58628153 546.5311312 542.875 541.9453125 C545 541 545 541 551 540 C551 473.34 551 406.68 551 338 C549.02 337.67 547.04 337.34 545 337 C542.86954857 335.79030425 540.99430668 334.41705321 539.02734375 332.9609375 C536.16281028 331.60318175 535.01625034 332.00023163 532 333 C529.12364666 334.34365857 526.34740405 335.85240151 523.5625 337.375 C516.43158333 341.20446344 509.253202 344.90754298 502 348.5 C495.41119811 351.77085532 488.86486228 355.09966968 482.375 358.5625 C473.00610605 363.55371607 463.50200381 368.26921513 454 373 C444.04959499 377.95410837 434.11771356 382.91934018 424.31640625 388.1640625 C415.53957626 392.82922439 406.61617635 397.20678043 397.71862793 401.63555908 C389.643811 405.65644129 381.57916075 409.68119387 373.625 413.9375 C363.71844596 419.23722551 353.6407657 424.19583343 343.58428955 429.20272827 C334.2991757 433.82732605 325.044116 438.48616808 315.89453125 443.375 C308.38800337 447.36754306 300.76792679 451.13206923 293.15551758 454.91711426 C285.89275314 458.53011953 278.6592091 462.18514613 271.5 466 C263.13342539 470.45821027 254.65792973 474.68968604 246.1697998 478.90997314 C237.87627141 483.03559032 229.63651663 487.24622114 221.45703125 491.59375 C216.67151492 494.13369013 211.85487503 496.5954913 207 499 C200.85077179 502.05735421 194.72454818 505.15708614 188.625 508.3125 C187.79742188 508.73337891 186.96984375 509.15425781 186.1171875 509.58789062 C185.34890625 509.98814453 184.580625 510.38839844 183.7890625 510.80078125 C183.10537598 511.15309814 182.42168945 511.50541504 181.71728516 511.8684082 C179.68835024 513.04544726 179.68835024 513.04544726 178 516 C177.68615297 519.0539203 177.68615297 519.0539203 177.7215271 522.60871887 C177.71283823 523.62489051 177.71283823 523.62489051 177.70397383 524.66159087 C177.68690234 526.94607245 177.68408769 529.23035221 177.68115234 531.51489258 C177.67184577 533.16055221 177.66167849 534.80620716 177.65071964 536.45185661 C177.62318028 540.97659923 177.60816727 545.5013102 177.59529567 550.02611518 C177.57946665 554.87794332 177.55254193 559.72971162 177.52711487 564.58149719 C177.47946959 574.03772108 177.44294115 583.49395756 177.41032881 592.95024401 C177.38370427 600.59956024 177.35254334 608.24884614 177.31838989 615.89813232 C176.93256145 702.59858225 176.8818953 789.29888916 177 876 C177.55357178 876.19553467 178.10714355 876.39106934 178.67749023 876.5925293 C179.40137939 876.85461182 180.12526855 877.11669434 180.87109375 877.38671875 C181.94895142 877.77283325 181.94895142 877.77283325 183.04858398 878.16674805 C185 879 185 879 187.0625 880.8125 C189.09389379 882.36664534 189.09389379 882.36664534 192.18359375 881.2890625 C195.98642988 880.10272647 199.47819631 878.40602683 203 876.5625 C204.41960282 875.83664126 205.8402382 875.11279958 207.26171875 874.390625 C208.02403809 874.00326172 208.78635742 873.61589844 209.57177734 873.21679688 C213.95553706 871.0200687 218.3850423 868.91938536 222.8125 866.8125 C229.09362911 863.82166095 235.37147911 860.82508925 241.6328125 857.79296875 C252.60355817 852.48219874 263.59114964 847.23145617 274.6875 842.1875 C281.85218041 838.93072195 288.95017834 835.59183124 295.96948242 832.03320312 C307.80553448 826.04147165 319.84021566 820.44633297 331.82600403 814.7620697 C335.18497499 813.16905987 338.54370314 811.57553837 341.9024353 809.98202515 C343.63260611 809.16140499 345.36293223 808.34111223 347.09341431 807.52114868 C356.18066599 803.21497259 365.25811939 798.89181195 374.29296875 794.4765625 C375.01392731 794.12480957 375.73488586 793.77305664 376.47769165 793.41064453 C379.84570881 791.76670552 383.21055739 790.11681343 386.5703125 788.45605469 C387.74722656 787.88016602 388.92414062 787.30427734 390.13671875 786.7109375 C391.15467529 786.20868652 392.17263184 785.70643555 393.22143555 785.18896484 C395.84132728 784.06789703 398.19280612 783.43493998 401 783 C400.67 782.21625 400.34 781.4325 400 780.625 C397.53088377 771.67445366 399.00488238 763.77904106 403.21875 755.6484375 C407.66576959 748.26144385 413.89240478 743.81841365 422 741 C432.05707393 739.11048914 441.36304566 740.34191358 450 746 C456.16606336 750.94543449 460.5116279 757.15094338 462 765 C462.70104065 775.94701934 461.95932828 784.15977219 455 793 C448.53671946 800.31118615 440.61202759 803.51394474 430.91796875 804.2265625 C423.86940045 803.98637538 418.59450034 801.7193395 412.49609375 798.27734375 C410.0222193 796.77222358 410.0222193 796.77222358 407 797 C404.8662339 797.91586476 402.76531601 798.90881226 400.68359375 799.9375 C399.73029427 800.40478767 399.73029427 800.40478767 398.75773621 800.8815155 C397.37571457 801.55945285 395.99494962 802.23995661 394.61529541 802.92269897 C390.88128963 804.76981842 387.13756969 806.59705358 383.39453125 808.42578125 C382.61881775 808.8052742 381.84310425 809.18476715 381.04388428 809.57575989 C372.94385129 813.53100212 364.78888582 817.3662582 356.625 821.1875 C346.34513845 826.00281819 336.09157553 830.86390412 325.875 835.8125 C317.39983607 839.91721582 308.88516526 843.91552645 300.3125 847.8125 C293.3037223 850.9997916 286.35376312 854.25511274 279.48754883 857.73828125 C272.69714169 861.17585531 265.85203224 864.49996687 259 867.8125 C258.37554993 868.11445282 257.75109985 868.41640564 257.10772705 868.72750854 C247.53734041 873.34927418 237.90725105 877.82460129 228.22949219 882.21777344 C220.04720503 885.94411057 212.00341074 889.90594758 204 894 C202.66752743 894.66838543 201.33465215 895.33597752 200 896 C200.165 896.99 200.33 897.98 200.5 899 C201.76543607 908.28606765 200.78989966 916.07117727 196.125 924.3125 C190.01380844 932.04135992 182.91497321 937.60023908 173 939 C164.26836766 939.7041639 155.84303712 937.65294371 149 932 C142.40213522 925.4781183 137.68962944 919.3875919 137.53149414 909.79663086 C137.54172607 909.07999268 137.55195801 908.36335449 137.5625 907.625 C137.57079834 906.87549072 137.57909668 906.12598145 137.58764648 905.35375977 C137.86100697 896.39512376 140.92273374 890.35557912 146.99609375 883.796875 C150.9763595 880.22782579 155.54992523 877 161 877 C161.09153901 831.14692891 161.16203034 785.29386749 161.20426132 739.44072306 C161.20926419 734.02835299 161.21444148 728.61598309 161.21972656 723.20361328 C161.2207758 722.12609983 161.22182505 721.04858638 161.22290608 719.93842101 C161.24031522 702.4874094 161.27185572 685.03645044 161.30861118 667.58547008 C161.34600643 649.68151826 161.36823286 631.77759404 161.37635398 613.87360477 C161.38184468 602.82429749 161.39919177 591.77513905 161.43166587 580.72587758 C161.45279624 573.15080728 161.45920338 565.57581403 161.45400551 558.00071639 C161.45144144 553.62909795 161.45539477 549.25773978 161.4768219 544.88616753 C161.4963023 540.88252904 161.49726051 536.87932558 161.48359558 532.87566698 C161.48190696 531.4286883 161.48696876 529.98168237 161.49953273 528.53475726 C161.57713912 519.04400976 161.09590811 512.6519751 154.640625 505.3203125 C153.85171875 504.59585937 153.0628125 503.87140625 152.25 503.125 C150.8013041 501.78378799 149.375267 500.41640747 148 499 C148 498.34 148 497.68 148 497 C147.42378906 496.76152344 146.84757813 496.52304687 146.25390625 496.27734375 C143.52806795 494.73254458 141.9743552 492.94200374 139.9375 490.5625 C136.54235953 486.68633469 133.04392714 482.99346046 129.375 479.375 C126.34043932 476.37397038 123.38657873 473.37874128 120.625 470.125 C115.46603093 464.06606335 109.66073493 458.58412348 104 453 C99.66727953 454.66562004 96.86478055 457.87449967 93.6875 461.125 C93.10427979 461.71466553 92.52105957 462.30433105 91.92016602 462.91186523 C88.43441429 466.45992337 85.10380629 470.09322893 81.890625 473.890625 C78.77421828 477.36760771 75.42496255 480.61528959 72.08569336 483.87719727 C69.76204308 486.16181353 67.81552867 488.27670699 66 491 C65.34 491 64.68 491 64 491 C63.73574219 491.59167969 63.47148438 492.18335938 63.19921875 492.79296875 C61.95643113 495.08018375 60.68430075 496.5177986 58.8125 498.3125 C58.19632813 498.91320312 57.58015625 499.51390625 56.9453125 500.1328125 C55.6484375 501.37760417 54.3515625 502.62239583 53.0546875 503.8671875 C52.43851563 504.46789062 51.82234375 505.06859375 51.1875 505.6875 C50.62417969 506.22761719 50.06085938 506.76773438 49.48046875 507.32421875 C46.1587116 511.08420244 45.75048611 514.2048661 45.75390434 519.16129684 C45.74992225 520.43373363 45.74594015 521.70617042 45.74183738 523.0171659 C45.7475435 524.43207862 45.7534347 525.84699059 45.75949097 527.26190186 C45.75861908 528.76265735 45.75686841 530.26341255 45.75431263 531.76416612 C45.74983176 535.89393884 45.75785294 540.02360821 45.76786876 544.15336776 C45.7764903 548.60460012 45.77358402 553.05582646 45.77206421 557.50706482 C45.77101454 565.22107071 45.77729973 572.93504283 45.78853989 580.64904022 C45.80478078 591.80223779 45.81000145 602.955419 45.81251587 614.10862711 C45.81689519 632.20312395 45.83021072 650.29760278 45.84912109 668.39208984 C45.86747376 685.97119049 45.88163327 703.55028624 45.89013672 721.12939453 C45.89066217 722.21262303 45.89118761 723.29585153 45.89172898 724.41190514 C45.89433902 729.84604044 45.89686645 735.28017577 45.89935279 740.71431112 C45.92009267 785.80955323 45.95532465 830.90477568 46 876 C46.6899707 876.34135986 47.37994141 876.68271973 48.09082031 877.03442383 C48.99413086 877.48325928 49.89744141 877.93209473 50.828125 878.39453125 C51.7243457 878.83901611 52.62056641 879.28350098 53.54394531 879.74145508 C60.84705624 883.48375496 64.91299126 889.55992984 67.82421875 897.1484375 C70.18837131 905.63255944 69.16411146 912.95450291 66 921 C61.63671855 928.7084639 55.2209011 934.68285702 46.87109375 937.79296875 C38.50139755 940.02388956 29.85946971 939.16829546 22.125 935.2734375 C14.0152515 930.41355145 8.7865488 924.14111396 6 915 C5.14211715 908.38814044 5.26279827 901.44414496 7 895 C6.44888046 894.83016098 5.89776093 894.66032196 5.3299408 894.4853363 C-0.19352407 892.72270933 -5.31541596 890.56285104 -10.49609375 887.97265625 C-11.27895752 887.5874884 -12.06182129 887.20232056 -12.8684082 886.80548096 C-14.53426874 885.98551122 -16.19895003 885.16314187 -17.86251831 884.33853149 C-22.22509077 882.17665987 -26.59673173 880.03331482 -30.96875 877.890625 C-31.83350449 877.46650833 -32.69825897 877.04239166 -33.58921814 876.60542297 C-40.82411093 873.06605251 -48.10961849 869.6549452 -55.4375 866.3125 C-62.71680787 862.98953302 -69.93723484 859.5996637 -77.07397461 855.98095703 C-89.7289981 849.57322712 -102.60809868 843.60928746 -115.421875 837.52734375 C-116.67410355 836.93294495 -116.67410355 836.93294495 -117.95162964 836.32653809 C-118.79952057 835.9240686 -119.6474115 835.52159912 -120.52099609 835.10693359 C-121.81006866 834.49504181 -121.81006866 834.49504181 -123.12518311 833.87078857 C-124.87808932 833.03882558 -126.63105993 832.20699824 -128.38409424 831.37530518 C-140.12716236 825.80367704 -151.84819094 820.1900688 -163.54736328 814.52685547 C-172.65968993 810.13089479 -181.83836117 805.88716376 -191.04443359 801.69165039 C-192.07391113 801.22106201 -193.10338867 800.75047363 -194.1640625 800.265625 C-195.07623535 799.85086914 -195.9884082 799.43611328 -196.92822266 799.00878906 C-199 798 -199 798 -200 797 C-203.77102726 796.31435868 -205.71482755 797.31520233 -208.75 799.375 C-215.27644618 803.67707688 -221.76153369 804.57423768 -229.453125 803.53515625 C-239.04994892 801.5186457 -246.403018 797.2400249 -251.8125 789 C-256.8060109 780.81950433 -257.41325465 771.4490924 -255.3828125 762.18359375 C-252.46813918 753.94254838 -246.91544153 747.31451479 -239.3125 743 C-231.56034734 739.55327367 -222.32085464 738.89162258 -214.12109375 741.1484375 C-205.29465322 744.69201768 -198.64661668 751.00080039 -194.625 759.5625 C-191.95411093 766.77722523 -191.7623829 775.61404435 -194 783 C-193.14164551 783.26772217 -192.28329102 783.53544434 -191.39892578 783.8112793 C-187.98891304 785.00387749 -184.85832713 786.42677414 -181.6171875 788.01953125 C-180.71169159 788.46185593 -180.71169159 788.46185593 -179.78790283 788.91311646 C-178.49071463 789.54687823 -177.19426642 790.18215648 -175.89849854 790.81881714 C-172.43163612 792.52129515 -168.95831405 794.2104563 -165.484375 795.8984375 C-164.77608551 796.24267258 -164.06779602 796.58690765 -163.33804321 796.9415741 C-156.30321976 800.35228363 -149.22165024 803.65777319 -142.125 806.9375 C-140.38307373 807.7428418 -140.38307373 807.7428418 -138.60595703 808.56445312 C-136.39865731 809.5841348 -134.19114912 810.60336538 -131.98339844 811.62207031 C-122.84757522 815.84159455 -113.73731296 820.09610837 -104.75 824.625 C-87.07008684 833.53285179 -69.20222472 842.05798381 -51.17675781 850.24194336 C-45.19283137 852.96736085 -39.29383964 855.80974748 -33.4387207 858.80004883 C-25.4573257 862.84008956 -17.30635835 866.530157 -9.17651367 870.25952148 C0.9465259 874.91915873 0.9465259 874.91915873 5.73828125 877.4609375 C6.38458496 877.80310303 7.03088867 878.14526855 7.69677734 878.49780273 C9.2850333 879.35519364 10.86010076 880.23690147 12.43359375 881.12109375 C15.00380926 882.27090826 15.00380926 882.27090826 17.6875 881.2578125 C19.33667554 880.36079472 20.95963079 879.41485927 22.5625 878.4375 C24.80973999 877.11220462 26.49133144 876.5568926 29 876 C29.02317295 843.58582625 29.04068985 811.17165499 29.05106533 778.7574748 C29.05231497 774.86793892 29.0536094 770.97840305 29.05493164 767.08886719 C29.05519395 766.31503022 29.05545626 765.54119326 29.05572652 764.74390669 C29.05947038 753.97102674 29.06560368 743.19815059 29.07373755 732.42527309 C29.16194017 646.03491008 29.16194017 646.03491008 28.73226738 559.64604568 C28.6987625 555.56933554 28.67161394 551.49266613 28.65028572 547.41587448 C28.62537565 542.77384979 28.58611794 538.13218825 28.53441548 533.49038649 C28.51803119 531.8220634 28.50658199 530.15368333 28.50046611 528.485291 C28.49126904 526.24236444 28.4638624 524.00041302 28.43138123 521.75772095 C28.42046668 520.51486643 28.40955214 519.27201191 28.39830685 517.99149513 C28.25435052 515.01272892 28.25435052 515.01272892 26.57718849 513.14217758 C24.9261484 511.94651772 23.30925298 510.95504036 21.49194336 510.02978516 C20.79433395 509.67108337 20.09672455 509.31238159 19.37797546 508.94281006 C18.622892 508.56207336 17.86780853 508.18133667 17.08984375 507.7890625 C16.29862625 507.38447815 15.50740875 506.9798938 14.69221497 506.56304932 C12.11016278 505.24468181 9.52393032 503.93475442 6.9375 502.625 C5.15440893 501.71672753 3.37153235 500.80803388 1.58886719 499.89892578 C-9.37960319 494.31228825 -20.37828963 488.78737484 -31.40112305 483.30883789 C-38.18912198 479.92879199 -44.90949205 476.44012359 -51.60253906 472.87646484 C-58.67455556 469.12989039 -65.8343347 465.56288118 -73 462 C-80.79477396 458.12426445 -88.56918984 454.22329072 -96.25 450.125 C-104.7540359 445.58951419 -113.37207527 441.29318768 -122 437 C-131.2638405 432.39035497 -140.49320887 427.74211681 -149.62109375 422.8671875 C-157.34254061 418.76898547 -165.1743351 414.89402506 -173 411 C-182.26383585 406.39034581 -191.49320866 401.74211692 -200.62109375 396.8671875 C-208.34254104 392.76898525 -216.17434067 388.89403681 -224 385 C-240.88225965 376.59932864 -240.88225965 376.59932864 -249.125 372.1875 C-259.4839535 366.64711809 -270.02729612 361.47027177 -280.54199219 356.23413086 C-289.7794311 351.63241173 -299.00936173 347.02773881 -308.125 342.1875 C-308.84244385 341.80746826 -309.5598877 341.42743652 -310.29907227 341.03588867 C-312.81829185 339.69868267 -315.33555463 338.35814326 -317.84619141 337.00488281 C-319.53749812 336.09654595 -321.23724476 335.20397428 -322.9375 334.3125 C-323.83339844 333.83425781 -324.72929687 333.35601563 -325.65234375 332.86328125 C-328.38425259 331.85870246 -329.33769774 331.90967343 -332 333 C-334.31007047 334.24044277 -336.53754732 335.58519556 -338.78125 336.94140625 C-341 338 -341 338 -345 338 C-344.9922694 339.20616266 -344.9922694 339.20616266 -344.98438263 340.43669224 C-344.85777897 360.2034553 -344.73257779 379.97022682 -344.60884857 399.73700809 C-344.54897654 409.29692574 -344.48866737 418.85684022 -344.42724609 428.41674805 C-344.37357509 436.77055198 -344.32080869 445.12436111 -344.26903296 453.47817701 C-344.24170972 457.88198639 -344.21399892 462.28579239 -344.18519592 466.68959236 C-344.02574491 491.12669509 -343.9712804 515.56238729 -344 540 C-343.21608887 540.14622803 -342.43217773 540.29245605 -341.62451172 540.44311523 C-334.17377756 542.02405706 -328.05751437 547.76478171 -324 554 C-319.6604808 563.51109961 -318.68946342 571.50511137 -321.95703125 581.4765625 C-325.10171925 589.08505857 -329.92080121 595.48930662 -337.40234375 599.1875 C-345.98177746 602.73251708 -354.42604332 603.59108222 -363.25 600.375 C-372.27196048 596.21101824 -377.69031173 591.0369242 -382 582 C-384.82490335 573.80429274 -384.11196 563.18021101 -380.5 555.4375 C-375.2288744 546.33956191 -369.65161827 543.28960812 -360 539 C-360 472.67 -360 406.34 -360 338 C-364.455 336.515 -364.455 336.515 -369 335 C-375.66633468 330.90253951 -380.14435071 324.55505267 -382.609375 317.17578125 C-384.46463119 306.84200426 -383.53474913 296.82895653 -377.6796875 288.01171875 C-372.83100679 281.82501413 -366.51930455 278.09948602 -359 276 C-347.20420157 274.81074014 -338.96821386 277.04366904 -329.78515625 284.3828125 C-322.84114704 290.67344667 -320.45476091 298.54286903 -319.6875 307.75 C-320.04010304 311.41707157 -320.85826937 314.50344996 -322 318 C-321.41509293 318.12995865 -320.83018585 318.2599173 -320.22755432 318.39381409 C-318.09373019 318.97449314 -316.33149934 319.71048229 -314.35913086 320.69897461 C-313.65921524 321.04741425 -312.95929962 321.39585388 -312.23817444 321.75485229 C-311.11287575 322.32286057 -311.11287575 322.32286057 -309.96484375 322.90234375 C-309.17891342 323.29535675 -308.39298309 323.68836975 -307.58323669 324.09329224 C-305.03253206 325.37050558 -302.48493347 326.65377628 -299.9375 327.9375 C-298.17601069 328.82166605 -296.41445455 329.70569899 -294.65283203 330.58959961 C-285.11515131 335.38434574 -275.62794838 340.25698187 -266.2109375 345.28515625 C-257.74589646 349.74407152 -249.14340707 353.94130724 -240.5791626 358.20529175 C-231.3894325 362.78241645 -222.22942681 367.39212389 -213.17578125 372.234375 C-204.82206695 376.6755902 -196.33311135 380.84864249 -187.86358643 385.06307983 C-180.07334552 388.94117783 -172.30047886 392.83533532 -164.625 396.9375 C-155.09119581 402.03162914 -145.40380673 406.81480233 -135.7277832 411.63098145 C-126.76167307 416.09560968 -117.83226796 420.60618812 -108.99609375 425.32421875 C-101.453562 429.33245824 -93.79950481 433.11633765 -86.15203857 436.91885376 C-78.97378083 440.48986715 -71.82383073 444.10057852 -64.75 447.875 C-56.2459641 452.41048581 -47.62792473 456.70681232 -39 461 C-29.74733201 465.60408564 -20.52870128 470.24609991 -11.41186523 475.11523438 C0.56873472 481.47364591 12.7660124 487.42432081 24.90991211 493.46289062 C26.69218965 494.34945295 28.46744271 495.25116631 30.22094727 496.19335938 C32.55415243 497.25125835 34.51964561 497.37310028 37.03125 496.91015625 C40.69560146 495.21612075 42.92379069 492.00259881 45.47265625 488.95703125 C48.21020938 485.75405177 51.11726604 482.82010205 54.125 479.875 C57.95883967 476.09233372 61.6058559 472.22840482 65.09375 468.125 C68.11725454 464.75453593 71.36614849 461.61373948 74.58666992 458.43286133 C78.02570632 455.01982489 81.27080386 451.50503883 84.40625 447.80859375 C86.63944739 445.27435259 89.06289876 442.95671788 91.51953125 440.640625 C95.36106858 436.38351239 95.29196012 432.16508531 95.2746582 426.63891602 C95.27976913 425.79780273 95.28488007 424.95668945 95.29014587 424.09008789 C95.30403932 421.31128818 95.30308532 418.53273655 95.30078125 415.75390625 C95.30466826 413.8210389 95.30900294 411.8881724 95.31376648 409.95530701 C95.32122812 405.90433991 95.32093777 401.85345997 95.31567383 397.80249023 C95.30987872 392.61271571 95.32681151 387.42329802 95.3500185 382.2335825 C95.36475412 378.24185604 95.36562778 374.25021556 95.36250877 370.25846672 C95.36302205 368.34511546 95.36826104 366.4317594 95.37832069 364.51843452 C95.39066465 361.84221365 95.3839058 359.16668836 95.37231445 356.49047852 C95.37995819 355.70122482 95.38760193 354.91197113 95.39547729 354.09880066 C95.35171043 349.52436184 95.06460305 346.47281734 92 343 C89.38652467 341.2130171 86.6222136 339.8240669 83.78564453 338.42602539 C82.94753298 337.99937875 82.10942142 337.57273211 81.24591255 337.13315678 C78.50390469 335.74184826 75.75240191 334.37061449 73 333 C71.15637509 332.07024628 69.31325868 331.13948359 67.47064209 330.20773315 C62.52813 327.71437213 57.57610382 325.24052927 52.62075424 322.77279472 C49.33708314 321.13747534 46.05476245 319.49947172 42.7727356 317.8608551 C35.80796307 314.38411717 28.84160758 310.91055913 21.875 307.4375 C13.78085575 303.40231745 5.68740503 299.36575593 -2.4043541 295.32579231 C-5.60533515 293.72849273 -8.80752965 292.13364573 -12.00979614 290.53892517 C-21.53622026 285.78731175 -31.03736644 281.00643147 -40.40696907 275.95081997 C-44.99040437 273.48697211 -49.65155521 271.24449404 -54.375 269.0625 C-60.22006604 266.3617228 -65.93795279 263.49468604 -71.61621094 260.45947266 C-81.5657641 255.18512336 -91.61937324 250.13169157 -101.69959259 245.11262131 C-104.85669763 243.54058928 -108.01244887 241.96586696 -111.16790771 240.39053345 C-117.8607978 237.04973305 -124.55527397 233.71211943 -131.25 230.375 C-139.03530319 226.4942333 -146.81991353 222.61208922 -154.60283661 218.72655106 C-157.68314407 217.18959241 -160.76466273 215.65508272 -163.84625244 214.12069702 C-173.30351652 209.40419698 -182.71375301 204.62959754 -192.00794983 199.59838867 C-196.00431751 197.46348168 -200.0691728 195.51107449 -204.1875 193.625 C-212.83409686 189.6197644 -212.83409686 189.6197644 -216 188 C-216.59167969 188.40992188 -217.18335938 188.81984375 -217.79296875 189.2421875 C-218.58316406 189.78101563 -219.37335938 190.31984375 -220.1875 190.875 C-220.96480469 191.40867187 -221.74210938 191.94234375 -222.54296875 192.4921875 C-229.50731893 196.76601766 -237.53063324 197.84985313 -245.5625 196.4375 C-255.96876866 193.60788849 -262.73886182 187.25915326 -268.09375 178.13671875 C-271.25288711 171.30654732 -271.19952946 162.54736875 -269.30859375 155.37890625 C-266.05558434 147.52540656 -260.7268398 139.88549658 -253 136 C-246.59883568 133.65511263 -239.59292117 131.52963281 -232.87231445 133.68115234 C-227.58473007 135.27203027 -224.45807948 135.22076817 -219.546875 132.58984375 C-217.59657841 131.40145252 -215.66492622 130.1820835 -213.75 128.9375 C-211.61595705 127.62097763 -209.48184094 126.30457384 -207.34765625 124.98828125 C-205.74881592 123.98015381 -205.74881592 123.98015381 -204.11767578 122.95166016 C-199.5300646 120.07982274 -194.8594934 117.35646495 -190.1875 114.625 C-188.37943041 113.55730586 -186.57215468 112.48826635 -184.765625 111.41796875 C-183.83943359 110.86931152 -182.91324219 110.3206543 -181.95898438 109.75537109 C-178.75767976 107.85624731 -175.55841284 105.95372072 -172.359375 104.05078125 C-161.05670047 97.33063019 -149.73045281 90.66139186 -138.29980469 84.16040039 C-126.65033875 77.53354701 -115.07545183 70.80724051 -103.78979492 63.57373047 C-99.27542411 60.70597747 -94.63223153 58.14229535 -89.92675781 55.60205078 C-84.91285413 52.85753661 -79.99190017 49.95522095 -75.0625 47.0625 C-73.05338542 45.88671875 -71.04427083 44.7109375 -69.03515625 43.53515625 C-68.05369629 42.95096924 -67.07223633 42.36678223 -66.06103516 41.76489258 C-63.93574562 40.53952027 -61.77545113 39.37369263 -59.59130859 38.2565918 C-56.54338574 36.65538818 -53.72361459 35.10671633 -51 33 C-49.70878295 29.40767396 -49.70878295 29.40767396 -50.5 25.6875 C-51.22052556 16.66758748 -49.51688233 10.91250494 -44 3.75 C-38.75998845 -1.81751227 -31.81428775 -4.89038902 -24.5625 -7 C-15.27666778 -7 -7.40762936 -5.78113317 0 0 Z M-32.75 14.625 C-35.60687825 18.37233381 -36.80915753 22.30845604 -37 27 C-36.2843649 31.53777709 -34.56343211 34.82851352 -31.125 37.875 C-25.99669099 41.36225013 -22.27572191 42.74457718 -16 42 C-10.48890623 39.59534673 -6.76333929 36.41614501 -4 31 C-2.43836643 26.31509929 -3.19334626 22.71082876 -4.84375 18.1875 C-7.27586922 13.58619336 -11.12020457 10.62659848 -16 9 C-23.21269246 8.52703656 -27.34608522 9.46671771 -32.75 14.625 Z M214 13 C210.93060369 16.86481913 209.09898731 21.05063458 209 26 C209.87664581 30.74568837 211.17269758 34.70396455 214.875 37.9375 C220.13075213 41.4062964 223.4800108 42.48929014 229.71875 41.60546875 C234.50510657 40.33511726 237.66481049 37.4644014 240.9375 33.875 C242.63827863 29.27289311 242.64049425 24.83928988 242 20 C239.54432448 14.99769802 236.0029693 11.50148465 231 9 C224.18144874 8.23961311 219.45421962 8.7457087 214 13 Z M-363.47265625 558.36328125 C-366.64340848 561.94077721 -368.95904037 565.24546479 -369.03125 570.1015625 C-368.67878552 575.37090647 -367.63681274 578.99018082 -364 583 C-358.80531171 586.69732803 -354.28745548 587.70987401 -348 587 C-342.32492775 584.99703332 -338.69324911 581.38649821 -336 576 C-335.23674982 569.15577297 -335.80887077 564.51464372 -340 559 C-346.82328483 552.97012039 -356.42679226 551.8407175 -363.47265625 558.36328125 Z M545.1875 560 C541.66172699 564.83534585 541.3134231 569.18827161 542 575 C543.34886365 578.95409743 545.55363959 581.60554197 548.6875 584.375 C554.24972204 587.10363723 558.77550273 587.63027423 564.75 585.9375 C569.31744091 583.21460254 571.69414662 580.25556494 574.375 575.625 C575.62235055 570.3861277 574.73409731 566.36332358 572.25 561.75 C569.22709904 558.05534327 566.5587509 555.51958363 562 554 C554.89618023 553.53417575 550.06083272 554.40262928 545.1875 560 Z M-237.8125 762 C-241.08821996 766.49241594 -241.68957054 770.55142151 -241 776 C-239.5984517 780.42889261 -237.73069592 783.35233771 -234.25 786.4375 C-228.88711308 789.01581102 -224.45031325 789.72121493 -218.8125 787.9375 C-213.60564315 785.68699213 -211.06650977 782.22997498 -208.625 777.125 C-207.4873071 771.4365355 -208.03768341 767.00367118 -211.1875 762.1875 C-214.21864036 758.40505135 -217.25691624 756.35028588 -222.171875 755.72265625 C-228.75813201 755.44638708 -233.39494335 756.94057614 -237.8125 762 Z M418.0625 760.375 C414.66943326 764.69344858 413.46284602 768.29803648 413.62109375 773.87890625 C414.56381785 779.15621744 417.84401467 782.89906159 421.625 786.5 C426.4686017 788.65271187 430.78221852 788.76983661 436 788 C440.45146251 785.81473658 443.18885145 783.0605479 446 779 C447.66026461 774.01920617 447.59903425 769.69726371 445.875 764.8125 C442.35457781 759.53186672 438.3706797 756.34144419 432.1484375 755.08984375 C426.63910982 754.85945368 422.26145948 756.98009659 418.0625 760.375 Z " fill="#FEFEFE" transform="translate(639,276)"/>
<path d="M0 0 C23.43 0 46.86 0 71 0 C77.59936445 15.5984978 84.17451036 31.19143056 90.5625 46.875 C91.33104061 48.75812882 92.09976303 50.64118345 92.86865234 52.52416992 C94.45594525 56.4118224 96.04248168 60.29978219 97.62841797 64.18798828 C101.45402348 73.56551876 105.28976225 82.93890589 109.125 92.3125 C109.4961795 93.21977844 109.86735901 94.12705688 110.24978638 95.06182861 C112.8325395 101.3748191 115.41594606 107.68754186 118 114 C118.54134583 115.32242706 118.54134583 115.32242706 119.09362793 116.67156982 C121.22130534 121.86865027 123.34994444 127.06533537 125.47991943 132.26147461 C126.1544127 133.90692661 126.82877206 135.55243351 127.50299072 137.19799805 C130.71651724 145.03971107 133.93774694 152.8776449 137.21875 160.69140625 C137.69505859 161.82674805 138.17136719 162.96208984 138.66210938 164.13183594 C139.52452789 166.1821258 140.39017042 168.231064 141.25976562 170.27832031 C141.62779297 171.15198242 141.99582031 172.02564453 142.375 172.92578125 C142.85066406 174.04593628 142.85066406 174.04593628 143.3359375 175.1887207 C144 177 144 177 144 179 C144.99 179 145.98 179 147 179 C147.10691162 178.32372559 147.21382324 177.64745117 147.32397461 176.95068359 C148.13673227 173.40319748 149.43314153 170.1421957 150.81640625 166.7890625 C151.1041391 166.08160889 151.39187195 165.37415527 151.68832397 164.64526367 C152.64210381 162.30340458 153.60224871 159.96421217 154.5625 157.625 C155.24001803 155.96547623 155.91717612 154.30580548 156.59399414 152.64599609 C158.37059158 148.29276683 160.15287737 143.94189182 161.93713379 139.59179688 C162.96514596 137.0849915 163.99206895 134.57774325 165.01855469 132.0703125 C169.00264087 122.33896199 172.99573492 112.6113307 176.99267578 102.88525391 C185.82427806 81.3939329 194.63866439 59.89551306 203.440979 38.3921814 C204.2172669 36.49596044 204.99374928 34.59981909 205.77044678 32.70376587 C206.86058753 30.04233997 207.94992117 27.38058502 209.0390625 24.71875 C209.35099548 23.95761398 209.66292847 23.19647797 209.98431396 22.41227722 C213.03245542 14.95802414 216.00870557 7.47823608 219 0 C242.43 0 265.86 0 290 0 C290 88.11 290 176.22 290 267 C271.52 267 253.04 267 234 267 C233.67 210.24 233.34 153.48 233 95 C207.19718695 159.00480332 207.19718695 159.00480332 181.61328125 223.09765625 C181.31119562 223.85980249 181.00910999 224.62194874 180.69787025 225.40719032 C177.97309874 232.28356856 175.25340156 239.16192789 172.54263973 246.04384136 C171.82223235 247.8720598 171.10067396 249.69982454 170.3790741 251.52757263 C169.52601522 253.68873703 168.67510724 255.85075231 167.82685852 258.0138092 C167.4635997 258.93367111 167.10034088 259.85353302 166.72607422 260.80126953 C166.41386932 261.59550323 166.10166443 262.38973694 165.77999878 263.20803833 C165 265 165 265 164 266 C161.1883662 266.08861992 158.40141745 266.11522355 155.58984375 266.09765625 C154.74780899 266.0962413 153.90577423 266.09482635 153.03822327 266.09336853 C150.33794665 266.08775263 147.63775172 266.07519748 144.9375 266.0625 C143.11132932 266.05748705 141.28515734 266.05292379 139.45898438 266.04882812 C134.97262458 266.03777804 130.48632616 266.02050279 126 266 C120.66716368 252.75810359 115.33695747 239.5151509 110.00948334 226.27109623 C107.53367603 220.11638389 105.05707975 213.9619918 102.57861328 207.80834961 C92.27294643 182.21956593 81.98724116 156.62613773 72.02722168 130.90040588 C68.27515335 121.21400155 64.44787911 111.56868895 60.38806152 102.00584412 C58 96.30992546 58 96.30992546 58 93 C57.34 93 56.68 93 56 93 C56 150.42 56 207.84 56 267 C37.52 267 19.04 267 0 267 C0 178.89 0 90.78 0 0 Z " fill="#FEFFFE" transform="translate(1379,825)"/>
<path d="M0 0 C51 0 51 0 61.1875 10 C62.70383081 13.18606473 64.21910532 16.37787429 65.52880859 19.65429688 C68.09825579 25.49759332 71.85786874 30.53457696 75.5 35.75 C76.76447027 37.65877921 78.02503962 39.57014967 79.28125 41.484375 C82.38636154 46.14675759 85.65033881 50.67169414 88.96435547 55.18701172 C92.52677216 60.10979478 95.91187379 65.15224305 99.3125 70.1875 C100.8104011 72.39897784 102.30958794 74.60958337 103.80859375 76.8203125 C104.52772949 77.8815332 105.24686523 78.94275391 105.98779297 80.03613281 C108.60284533 83.88795709 111.23415716 87.728326 113.875 91.5625 C114.30530518 92.18729248 114.73561035 92.81208496 115.17895508 93.45581055 C116.02634999 94.68567089 116.87392177 95.91540939 117.72167969 97.14501953 C119.98406647 100.42798644 122.24171485 103.71421098 124.5 107 C127.22582007 110.96535493 129.95197324 114.93047901 132.6796875 118.89453125 C137.62983407 126.08951173 142.57010017 133.29112937 147.5 140.5 C149.66637717 143.66686481 151.83309847 146.83349395 154 150 C154.53818359 150.78665039 155.07636719 151.57330078 155.63085938 152.38378906 C157.16941546 154.63165511 158.70947357 156.87848398 160.25 159.125 C160.94899414 160.1469043 160.94899414 160.1469043 161.66210938 161.18945312 C163.656784 164.23428064 163.656784 164.23428064 166 167 C166.33 111.89 166.66 56.78 167 0 C185.81 0 204.62 0 224 0 C224 88.11 224 176.22 224 267 C207.5 267 191 267 174 267 C162.63813585 255.57010073 162.63813585 255.57010073 159.21533203 246.9140625 C157.51342078 242.83330462 155.128162 239.52507817 152.5 236 C151.62757721 234.73928391 150.76051265 233.47484552 149.8984375 232.20703125 C146.33075166 227.01755494 142.72545978 221.85426149 139.125 216.6875 C133.69071041 208.88781607 128.29469874 201.06389694 122.93847656 193.21044922 C117.93755425 185.88756021 112.87058035 178.61124243 107.80078125 171.3359375 C103.58366654 165.28246841 99.38893269 159.21458536 95.21777344 153.12939453 C90.53698819 146.30916822 85.80107885 139.52742339 81.0715332 132.7409668 C76.03118469 125.50099646 71.03379093 118.23277204 66.07275391 110.93823242 C65.5782373 110.21224854 65.0837207 109.48626465 64.57421875 108.73828125 C64.14713623 108.10962158 63.72005371 107.48096191 63.2800293 106.83325195 C61.89937745 104.85588885 60.44700351 102.92933802 59 101 C58.67 155.78 58.34 210.56 58 267 C38.86 267 19.72 267 0 267 C0 178.89 0 90.78 0 0 Z " fill="#FEFFFE" transform="translate(1379,401)"/>
<path d="M0 0 C18.15 0 36.3 0 55 0 C55 33.66 55 67.32 55 102 C55.66 102 56.32 102 57 102 C57.11214844 101.27296875 57.22429688 100.5459375 57.33984375 99.796875 C59.98219317 88.60206919 69.9377026 78.71875988 79.23046875 72.56640625 C96.07079892 63.04176253 117.75620146 60.94305388 136.5 65.5 C154.4409371 70.75823131 167.44877291 81.00076552 177 97 C184.27225207 111.27315146 186.1580217 125.77975241 186.11352539 141.55444336 C186.11324299 142.92491656 186.11340229 144.29538992 186.1139679 145.66586304 C186.1142538 149.36988923 186.10839052 153.07388278 186.10139394 156.77790141 C186.09512595 160.65495686 186.09455388 164.53201314 186.09336853 168.40907288 C186.09026536 175.74349377 186.08206566 183.07789969 186.07201904 190.412314 C186.06082638 198.76539876 186.05533952 207.11848426 186.05032361 215.47157466 C186.03988218 232.64772658 186.02154933 249.82385788 186 267 C167.52 267 149.04 267 130 267 C129.95101562 258.24855469 129.90203125 249.49710938 129.8515625 240.48046875 C129.81165824 234.21816616 129.77053848 227.95588076 129.72766876 221.69359875 C129.67235151 213.58945627 129.619865 205.48532852 129.578125 197.38110352 C129.54505838 190.96268552 129.5051476 184.5443517 129.45720994 178.12602693 C129.43208982 174.73139849 129.4102669 171.33682485 129.39665604 167.94212914 C129.37969117 164.14122959 129.35063119 160.34059557 129.31884766 156.53979492 C129.31668747 155.42920212 129.31452728 154.31860931 129.31230164 153.17436218 C129.18892527 141.56930387 128.01733109 130.13874279 120.28125 120.9609375 C112.29140712 113.26580194 103.02315695 111.39596762 92.27978516 111.52709961 C82.57982139 111.92755683 73.99120117 115.1161199 67 122 C57.28862363 133.49915247 56.8727395 147.36233336 56.79467773 161.76196289 C56.78477814 162.90444489 56.77487854 164.04692688 56.76467896 165.22402954 C56.73327118 168.97355121 56.70838898 172.72308552 56.68359375 176.47265625 C56.6630063 179.08296525 56.64200938 181.69327105 56.62062073 184.30357361 C56.57090307 190.45500303 56.52588751 196.60645733 56.48259836 202.75793499 C56.42817676 210.455193 56.36741258 218.15239933 56.30664062 225.84960938 C56.19837019 239.56636638 56.09962771 253.28317146 56 267 C37.52 267 19.04 267 0 267 C0 178.89 0 90.78 0 0 Z " fill="#FFFFFE" transform="translate(2115,825)"/>
<path d="M0 0 C12.42504974 10.67071229 19.2631147 24.88876174 20.98361015 41.02992058 C21.39764863 46.55357738 21.31661479 52.08721847 21.30102539 57.62329102 C21.30074282 59.00391132 21.30090262 60.38453176 21.3014679 61.76515198 C21.30175313 65.48765418 21.29590082 69.21012372 21.28889394 72.93261838 C21.28261467 76.83235077 21.282053 80.73208402 21.28086853 84.63182068 C21.27776865 92.00513251 21.26957345 99.3784294 21.25951904 106.75173467 C21.24831608 115.15081416 21.24283694 123.54989439 21.23782361 131.9489795 C21.22738964 149.21599644 21.20906095 166.48299282 21.1875 183.75 C3.3675 183.75 -14.4525 183.75 -32.8125 183.75 C-33.3075 170.88 -33.3075 170.88 -33.8125 157.75 C-35.7925 160.72 -37.7725 163.69 -39.8125 166.75 C-45.4624847 173.62160302 -51.78669057 178.02210272 -59.8125 181.75 C-60.6375 182.14058594 -61.4625 182.53117188 -62.3125 182.93359375 C-81.01299558 191.11506057 -105.31001646 189.77529131 -124.0625 182.5 C-138.99279188 175.7462975 -149.84941109 166.30754607 -155.8125 150.75 C-161.01265208 134.40103701 -160.75681517 115.45680855 -153.421875 99.77734375 C-152.00837604 97.31116004 -150.50217503 95.03403308 -148.8125 92.75 C-148.36132812 92.11835937 -147.91015625 91.48671875 -147.4453125 90.8359375 C-134.78160622 74.59491306 -111.54276869 69.03686348 -92.12446594 66.45880127 C-87.06570276 65.83490925 -82.00341681 65.25015621 -76.9375 64.6875 C-56.22120825 63.77863007 -56.22120825 63.77863007 -38.51196289 55.29614258 C-35.50067766 50.78462215 -36.2430726 45.97206593 -36.8125 40.75 C-38.01594155 35.71405998 -40.82964108 31.07064864 -44.8125 27.75 C-54.20572872 22.23696483 -65.72167393 21.64522691 -76.1875 23.97265625 C-85.8640749 26.83818959 -92.70127897 31.96717742 -97.97265625 40.6640625 C-98.89480383 42.41848853 -98.89480383 42.41848853 -99.8125 44.75 C-109.38845301 44.99756117 -118.82913179 44.32477152 -128.36108398 43.52319336 C-130.90103653 43.31031786 -133.44162576 43.1068294 -135.98242188 42.90429688 C-137.60421178 42.77138261 -139.22595839 42.63793883 -140.84765625 42.50390625 C-141.98195824 42.41321617 -141.98195824 42.41321617 -143.13917542 42.32069397 C-146.20820938 42.05837001 -148.8775938 41.72830207 -151.8125 40.75 C-149.2506371 28.07552037 -144.38687779 17.4735212 -135.8125 7.75 C-135.15636719 6.99976563 -134.50023438 6.24953125 -133.82421875 5.4765625 C-101.8842178 -28.74069629 -35.63843009 -27.41417699 0 0 Z M-40.80859375 93.5625 C-49.39412607 96.44847861 -58.19736796 97.6934541 -67.11547852 99.10449219 C-84.05331133 101.50597537 -84.05331133 101.50597537 -98.375 110.1875 C-99.58349609 111.29931641 -99.58349609 111.29931641 -100.81640625 112.43359375 C-105.1374585 117.44804382 -105.25063906 122.35030027 -105.125 128.7421875 C-104.50155046 134.74288936 -102.20990957 138.35259043 -98 142.5625 C-88.38656312 149.15995668 -77.97395831 149.93895319 -66.6484375 148.2890625 C-55.24254274 145.78389182 -46.61821256 140.29057164 -39.8125 130.75 C-36.16566453 124.24911937 -34.67661433 118.24770479 -34.71484375 110.79296875 C-34.71806641 109.68115234 -34.72128906 108.56933594 -34.72460938 107.42382812 C-34.73298828 106.27333984 -34.74136719 105.12285156 -34.75 103.9375 C-34.75451172 102.76767578 -34.75902344 101.59785156 -34.76367188 100.39257812 C-34.7754307 97.51166642 -34.79186574 94.63085956 -34.8125 91.75 C-36.83890942 91.75 -38.93861705 92.88372182 -40.80859375 93.5625 Z " fill="#FFFFFF" transform="translate(2353.8125,484.25)"/>
<path d="M0 0 C2.50516627 2.1953267 4.87648518 4.46062168 7.21484375 6.83203125 C7.86195313 7.46882812 8.5090625 8.105625 9.17578125 8.76171875 C21.28437776 21.50482687 23.69382211 37.791797 23.55541992 54.71020508 C23.55457129 56.15052777 23.55505339 57.59085176 23.55674744 59.03117371 C23.5575996 62.89816624 23.54010191 66.76487313 23.51902556 70.63179994 C23.50012715 74.68898161 23.49849805 78.7461716 23.49494934 82.8033905 C23.4856672 90.46703527 23.46110598 98.1305499 23.43090087 105.79413766 C23.39723674 114.52702359 23.38084081 123.25991611 23.36581457 131.9928509 C23.33455245 149.93933286 23.27958903 167.8856367 23.21484375 185.83203125 C5.72484375 185.83203125 -11.76515625 185.83203125 -29.78515625 185.83203125 C-30.11515625 176.92203125 -30.44515625 168.01203125 -30.78515625 158.83203125 C-32.76515625 161.80203125 -34.74515625 164.77203125 -36.78515625 167.83203125 C-46.91013745 180.58664537 -62.25341588 187.33343312 -78.16015625 189.51953125 C-98.58262459 191.26070084 -120.1152141 188.40930911 -136.703125 175.57421875 C-147.18865509 166.54619149 -153.40509191 155.50683143 -155.78515625 141.83203125 C-157.05273085 122.8096704 -156.12799018 106.54226806 -143.703125 91.2734375 C-125.16586247 71.07612161 -96.1713363 68.90512116 -70.5703125 65.8359375 C-69.17780682 65.66617025 -67.78531004 65.49633004 -66.39282227 65.32641602 C-63.71876428 65.00066907 -61.04497901 64.69595099 -58.36694336 64.40209961 C-49.98330005 63.40390343 -41.88112372 62.14781444 -35.16015625 56.70703125 C-32.68533358 51.53240202 -33.06689585 46.6162991 -34.48046875 41.13671875 C-37.09914793 33.76480678 -40.28801819 30.54992363 -47.34765625 27.08203125 C-57.78679674 23.28598016 -69.4988213 23.68305292 -79.78515625 27.83203125 C-88.13571243 32.06667348 -93.52281158 38.07680858 -96.78515625 46.83203125 C-114.18715164 46.22547131 -131.46512395 44.54757303 -148.78515625 42.83203125 C-147.19636743 26.12235574 -137.50630037 11.49822132 -124.78515625 0.83203125 C-90.92003734 -23.23919081 -33.83173195 -26.33465811 0 0 Z M-39.40625 95.67578125 C-48.03915576 98.35272432 -56.77925717 99.58705622 -65.70117188 100.8984375 C-78.80064512 102.92821735 -89.73224472 105.59351679 -99.16015625 115.26953125 C-103.20393084 121.64625272 -103.20211432 127.65198323 -101.78515625 134.83203125 C-99.68065771 140.91169371 -95.51769859 144.71555669 -90.0078125 147.83984375 C-79.3814944 152.46779624 -66.2863179 151.68116488 -55.6484375 147.640625 C-44.73462053 142.61506562 -38.36310558 135.89377148 -33.78515625 124.83203125 C-32.66603913 121.47467988 -32.67150039 118.94997739 -32.6875 115.4140625 C-32.69072266 114.16044922 -32.69394531 112.90683594 -32.69726562 111.61523438 C-32.70564453 110.30490234 -32.71402344 108.99457031 -32.72265625 107.64453125 C-32.72767308 106.30924644 -32.73223566 104.97395984 -32.73632812 103.63867188 C-32.7481293 100.36974652 -32.76459328 97.10091134 -32.78515625 93.83203125 C-34.98176464 93.83203125 -37.36002856 95.00206148 -39.40625 95.67578125 Z " fill="#FFFEFE" transform="translate(1851.78515625,906.16796875)"/>
<path d="M0 0 C17.9812382 15.29374959 28.16248095 38.73376481 31.16015625 61.84375 C31.27101563 62.66746094 31.381875 63.49117187 31.49609375 64.33984375 C32.69296637 75.48369828 32.16015625 86.62556735 32.16015625 97.84375 C-12.71984375 97.84375 -57.59984375 97.84375 -103.83984375 97.84375 C-101.8480272 112.78237415 -99.58198029 125.70746014 -87.70703125 135.625 C-76.56330452 143.54597649 -63.00969269 145.42268743 -49.64453125 143.34765625 C-38.99873868 140.9380587 -31.27650377 136.79227735 -24.83984375 127.84375 C-23.66446157 125.86525971 -22.74223837 123.96703145 -21.83984375 121.84375 C-10.8714742 121.53860216 -0.0121215 122.47840825 10.91015625 123.34375 C12.78251964 123.48870089 14.65491532 123.63323538 16.52734375 123.77734375 C21.07200086 124.12801522 25.61618451 124.484311 30.16015625 124.84375 C28.14272573 142.28234795 18.50867399 156.74327758 5.16015625 167.84375 C1.05899175 170.91319809 -3.32611136 173.43191796 -7.83984375 175.84375 C-8.69707031 176.31296875 -9.55429688 176.7821875 -10.4375 177.265625 C-36.79514127 190.46481476 -70.96473668 190.37135943 -98.58984375 181.59375 C-121.86522716 173.32518856 -139.06245813 157.23129733 -149.98706055 135.29077148 C-163.40542765 106.88103135 -163.56250278 70.73862508 -153.37988281 41.29785156 C-149.0751524 29.6402885 -143.21671008 19.08932839 -134.83984375 9.84375 C-134.1025 9.01359375 -133.36515625 8.1834375 -132.60546875 7.328125 C-98.90399705 -28.57605727 -38.02960831 -28.87530094 0 0 Z M-94.83984375 36.84375 C-100.48278129 44.35131038 -103.83984375 52.42285943 -103.83984375 61.84375 C-76.44984375 61.84375 -49.05984375 61.84375 -20.83984375 61.84375 C-22.67348312 49.92509408 -24.53247943 39.67920697 -33.734375 31.37109375 C-53.25918689 17.2074547 -78.35407025 19.1368081 -94.83984375 36.84375 Z " fill="#FFFFFF" transform="translate(1790.83984375,485.15625)"/>
<path d="M0 0 C3.50437813 2.8387984 6.76477366 5.86092549 10 9 C10.92039062 9.81017578 10.92039062 9.81017578 11.859375 10.63671875 C28.05332745 25.38212959 34.01788511 48.12519577 37 69 C37 79.56 37 90.12 37 101 C-7.88 101 -52.76 101 -99 101 C-95.30391164 123.78356886 -95.30391164 123.78356886 -80.75 140.3125 C-68.82849796 147.54983682 -55.65006931 149.53184993 -41.9609375 146.87109375 C-36.61620864 145.2986999 -31.85364617 142.68997258 -27 140 C-26.2678125 139.690625 -25.535625 139.38125 -24.78125 139.0625 C-22.48413538 137.69229128 -22.13616539 136.40723724 -21 134 C-20.13264008 132.41246851 -19.25748076 130.8291761 -18.375 129.25 C-17.70597656 128.05117187 -17.70597656 128.05117187 -17.0234375 126.828125 C-16.68570313 126.22484375 -16.34796875 125.6215625 -16 125 C-9.39772856 125.40414319 -2.79580385 125.81362712 3.8059082 126.22680664 C6.05127475 126.36670638 8.29671752 126.50538821 10.54223633 126.64282227 C13.771856 126.84069987 17.00117523 127.04297112 20.23046875 127.24609375 C21.23272995 127.3065538 22.23499115 127.36701385 23.2676239 127.42930603 C24.20822159 127.48929276 25.14881927 127.54927948 26.11791992 127.61108398 C26.94176682 127.66215805 27.76561371 127.71323212 28.61442566 127.76585388 C31.12485277 128.0122544 33.53607442 128.46599501 36 129 C34.50933726 144.5028925 24.92535383 159.32654656 13.38183594 169.4140625 C-10.63227473 189.06324715 -41.84056204 193.34529196 -71.9375 190.375 C-93.93433165 187.18226668 -112.45842925 178.93708976 -128 163 C-128.73734375 162.27167969 -129.4746875 161.54335937 -130.234375 160.79296875 C-148.6259476 141.58161675 -154.22842094 114.29128251 -154.25 88.625 C-154.25067474 87.90724396 -154.25134949 87.18948792 -154.25204468 86.44998169 C-154.2359448 75.68126883 -153.81051368 65.45693148 -151 55 C-150.67128906 53.76378906 -150.34257812 52.52757812 -150.00390625 51.25390625 C-145.5910369 36.57997045 -138.38860192 23.2768467 -128 12 C-127.45085938 11.3709375 -126.90171875 10.741875 -126.3359375 10.09375 C-95.64208407 -23.17052465 -35.91559437 -25.08471811 0 0 Z M-88.83984375 39.875 C-95.11254285 47.53631188 -97.7902215 56.321772 -99 66 C-71.61 66 -44.22 66 -16 66 C-16 54.31655388 -18.76434838 45.4541485 -27 37 C-36.44709509 28.3819357 -46.65980465 25.58588856 -59.23828125 25.73046875 C-71.04113367 26.57615599 -80.58900539 31.46650231 -88.83984375 39.875 Z " fill="#FEFFFF" transform="translate(2792,905)"/>
<path d="M0 0 C18.48 0 36.96 0 56 0 C56.03738281 8.97960937 56.07476563 17.95921875 56.11328125 27.2109375 C56.14741859 33.63236876 56.18341118 40.05376867 56.22207737 46.47517204 C56.27188398 54.78763069 56.31735347 63.10003788 56.34643555 71.41259766 C56.36948024 77.9954743 56.40294989 84.5782033 56.44870156 91.1609627 C56.47254705 94.64333478 56.49133237 98.12556143 56.49761391 101.60801315 C56.5048391 105.50495076 56.53534912 109.40152551 56.56762695 113.29833984 C56.56619186 114.44058014 56.56475677 115.58282043 56.5632782 116.75967407 C56.68995632 127.61003662 58.91075631 137.71110897 66.66796875 145.72265625 C74.81818061 153.04525278 82.64749782 154.36369761 93.3515625 154.28515625 C104.47471869 153.41578751 113.03069668 147.86948991 120.16796875 139.55859375 C127.38014827 129.48614687 127.14091418 117.11904591 127.20532227 105.23803711 C127.21522186 104.09555511 127.22512146 102.95307312 127.23532104 101.77597046 C127.26672882 98.02644879 127.29161102 94.27691448 127.31640625 90.52734375 C127.3369937 87.91703475 127.35799062 85.30672895 127.37937927 82.69642639 C127.42909693 76.54499697 127.47411249 70.39354267 127.51740164 64.24206501 C127.57182324 56.544807 127.63258742 48.84760067 127.69335938 41.15039062 C127.80162981 27.43363362 127.90037229 13.71682854 128 0 C146.48 0 164.96 0 184 0 C184 66 184 132 184 200 C166.18 200 148.36 200 130 200 C130 188.12 130 176.24 130 164 C129.34 164 128.68 164 128 164 C127.79375 164.78375 127.5875 165.5675 127.375 166.375 C121.63717524 181.50199255 110.30692721 191.27372477 96 198 C89.22731811 200.60487765 82.28688681 202.69795288 75 203 C73.91332031 203.0515625 72.82664062 203.103125 71.70703125 203.15625 C52.37739034 203.63698718 35.73436878 198.75169876 21 186 C8.07649803 173.57690299 0.80543252 156.60310667 -0.18027115 138.7315464 C-0.24449749 135.05821747 -0.24755672 131.38990128 -0.22705078 127.71606445 C-0.22648531 126.31544503 -0.22680587 124.91482501 -0.22793579 123.51420593 C-0.22850501 119.74632927 -0.21682133 115.97858232 -0.20278788 112.21073556 C-0.19020788 108.26030415 -0.18910433 104.30986913 -0.18673706 100.35942078 C-0.18054351 92.89407281 -0.16416173 85.42878406 -0.14403808 77.96346205 C-0.12161259 69.45793579 -0.11066899 60.95240656 -0.10064721 52.44685805 C-0.0797934 34.96453173 -0.04314401 17.4822865 0 0 Z " fill="#FFFEFF" transform="translate(1850,468)"/>
<path d="M0 0 C15.18714831 11.77816762 23.61893514 28.99097566 26.37011719 47.83203125 C26.45495279 49.88078743 26.49217356 51.93188027 26.4903717 53.98239136 C26.4924337 55.79959938 26.4924337 55.79959938 26.49453735 57.65351868 C26.49094208 58.96910263 26.4873468 60.28468658 26.48364258 61.64013672 C26.48336028 63.04987079 26.48351927 64.459605 26.48408508 65.86933899 C26.48437139 69.68499066 26.47850154 73.50061075 26.47151113 77.31625509 C26.46524991 81.30809461 26.4646716 85.29993489 26.46348572 89.29177856 C26.46038056 96.84581154 26.45217817 104.39983 26.44213623 111.95385659 C26.43094976 120.5560066 26.42545826 129.15815732 26.42044079 137.7603128 C26.40999487 155.45089551 26.39165953 173.14145833 26.37011719 190.83203125 C7.89011719 190.83203125 -10.58988281 190.83203125 -29.62988281 190.83203125 C-29.66726562 181.78023437 -29.70464844 172.7284375 -29.74316406 163.40234375 C-29.77344801 157.66014107 -29.80447781 151.91795838 -29.83886719 146.17578125 C-29.89328599 137.0660994 -29.94470185 127.95647303 -29.97631836 118.84667969 C-29.99936201 112.21106602 -30.03283052 105.57559884 -30.07858437 98.9401015 C-30.10243125 95.42978392 -30.12121567 91.91961064 -30.12749672 88.40921402 C-30.1347211 84.48114464 -30.16522994 80.55343535 -30.19750977 76.62548828 C-30.19607468 75.47389725 -30.19463959 74.32230621 -30.19316101 73.13581848 C-30.32054738 62.13930493 -32.63563204 52.45483517 -40.15722656 44.14453125 C-47.76420155 36.98502538 -56.15653816 35.23510371 -66.29907227 35.359375 C-76.97918816 35.79592755 -85.59518578 39.7005209 -93.09082031 47.31640625 C-100.21505531 56.03819697 -101.22421149 67.97932705 -101.17578125 78.7824707 C-101.18611893 80.00356537 -101.1964566 81.22466003 -101.20710754 82.48275757 C-101.231305 85.78575533 -101.23837975 89.088221 -101.23738766 92.391289 C-101.24054586 95.85999728 -101.26622355 99.3285428 -101.28936768 102.79716492 C-101.32971103 109.34514235 -101.35021696 115.89302074 -101.36334157 122.44110316 C-101.38085392 130.63856369 -101.42529927 138.83585186 -101.46972656 147.03320312 C-101.5487349 161.63280755 -101.58745986 176.23217303 -101.62988281 190.83203125 C-120.10988281 190.83203125 -138.58988281 190.83203125 -157.62988281 190.83203125 C-157.62988281 124.50203125 -157.62988281 58.17203125 -157.62988281 -10.16796875 C-140.13988281 -10.16796875 -122.64988281 -10.16796875 -104.62988281 -10.16796875 C-104.62988281 1.71203125 -104.62988281 13.59203125 -104.62988281 25.83203125 C-103.96988281 25.83203125 -103.30988281 25.83203125 -102.62988281 25.83203125 C-102.44425781 24.88328125 -102.25863281 23.93453125 -102.06738281 22.95703125 C-98.44749257 10.4885204 -86.77704862 0.37206125 -75.82519531 -5.6640625 C-52.2456332 -16.76202266 -21.40102257 -15.33590353 0 0 Z " fill="#FFFFFE" transform="translate(2584.6298828125,901.16796875)"/>
<path d="M0 0 C2.53746169 2.22122017 4.97558347 4.50600981 7.3828125 6.8671875 C7.94871094 7.40859375 8.51460937 7.95 9.09765625 8.5078125 C17.25704179 17.07841376 23.3828125 31.07708136 23.3828125 42.8671875 C19.31035894 43.7944434 15.33400531 44.14410193 11.16796875 44.40234375 C10.47577744 44.44532089 9.78358612 44.48829803 9.07041931 44.53257751 C7.60556396 44.62249167 6.14059902 44.71063588 4.67553711 44.79711914 C2.48317103 44.92743712 0.29142522 45.06584848 -1.90039062 45.20507812 C-10.82100521 45.75299769 -19.67659992 45.98684442 -28.6171875 45.8671875 C-28.98481201 44.9385791 -28.98481201 44.9385791 -29.35986328 43.99121094 C-32.5830128 36.00379337 -36.48191699 30.4041191 -44.39453125 26.69140625 C-55.42885813 22.59959084 -67.69890152 22.04238155 -78.6171875 26.8671875 C-83.53408119 29.31721501 -87.43790434 31.61126929 -89.6171875 36.8671875 C-91.00150747 41.76555046 -90.62267542 45.18771569 -88.6171875 49.8671875 C-81.83206858 58.13162013 -70.77323006 60.33105278 -60.7734375 62.234375 C-58.70051149 62.64969293 -56.62759513 63.06505908 -54.5546875 63.48046875 C-51.34829761 64.11092224 -48.1411872 64.73751639 -44.93359375 65.36181641 C-20.36754314 70.17102316 5.80407124 75.3318687 21.3828125 96.8671875 C29.050337 108.61850223 29.61230112 123.37750378 27.12109375 136.765625 C23.25470253 153.00855956 12.65285466 166.07797771 -1.30859375 174.94091797 C-29.38297753 191.97836681 -65.18368196 193.52815052 -96.6171875 186.2421875 C-108.94531789 183.12073489 -121.244714 177.55867822 -130.6171875 168.8671875 C-131.44605469 168.12855469 -132.27492188 167.38992188 -133.12890625 166.62890625 C-144.80978245 155.6813586 -150.74169965 142.6003348 -152.6171875 126.8671875 C-145.44567894 126.43787364 -138.2740359 126.01086287 -131.10229492 125.58544922 C-128.66281023 125.44047153 -126.22335676 125.29496761 -123.78393555 125.14892578 C-120.27661086 124.93904313 -116.76917809 124.73105621 -113.26171875 124.5234375 C-112.17196243 124.45781616 -111.08220612 124.39219482 -109.95942688 124.32458496 C-108.93874619 124.26452271 -107.91806549 124.20446045 -106.86645508 124.14257812 C-105.97154861 124.08928345 -105.07664215 124.03598877 -104.15461731 123.9810791 C-101.63830083 123.86813516 -99.13565952 123.84722926 -96.6171875 123.8671875 C-96.37484375 124.60324219 -96.1325 125.33929687 -95.8828125 126.09765625 C-93.12958777 134.11377595 -90.45317148 139.37707346 -82.99609375 143.73046875 C-71.09824285 149.41564873 -56.80955659 149.49357867 -44.28125 145.9140625 C-39.05404818 143.85997146 -35.31494848 140.7771686 -31.6171875 136.6171875 C-29.62431445 131.13678662 -29.76413617 125.9222657 -31.9921875 120.5546875 C-42.51367122 109.78269226 -61.51715882 108.60119644 -75.75582886 105.91748047 C-99.33800896 101.43280829 -124.19559408 96.40385868 -138.9921875 75.4296875 C-147.38864047 61.87167563 -149.03454802 45.41089632 -145.96875 29.84765625 C-141.82419036 15.20000318 -131.9288128 3.12269272 -118.8046875 -4.4453125 C-85.51311349 -22.74304041 -30.951425 -25.22310156 0 0 Z " fill="#FFFFFF" transform="translate(2999.6171875,906.1328125)"/>
<path d="M0 0 C13.50060035 11.49507639 22.1614847 26.22557568 25.97265625 43.56640625 C26.30265625 48.18640625 26.63265625 52.80640625 26.97265625 57.56640625 C9.48265625 57.56640625 -8.00734375 57.56640625 -26.02734375 57.56640625 C-28.00734375 51.62640625 -28.00734375 51.62640625 -30.02734375 45.56640625 C-35.14086918 35.79389099 -40.20561107 29.76278742 -50.8671875 26.2578125 C-60.95813727 24.05002745 -72.12439411 24.52289013 -81.16796875 29.8203125 C-94.26445332 38.99285036 -99.84313658 52.35608145 -102.58984375 67.7109375 C-104.83421938 87.48949773 -104.03282894 110.15032051 -92.15234375 126.94140625 C-86.05086682 134.42464259 -78.65580326 139.703967 -69.02734375 141.56640625 C-57.35335889 142.47355667 -47.06675679 140.95524105 -37.8046875 133.37890625 C-31.22233482 126.66635319 -28.98158571 118.42913213 -26.02734375 109.56640625 C-8.53734375 109.56640625 8.95265625 109.56640625 26.97265625 109.56640625 C25.80299429 124.77201178 25.80299429 124.77201178 23.78515625 131.19140625 C23.56520996 131.90941406 23.34526367 132.62742187 23.11865234 133.3671875 C16.9068567 152.76435737 2.77581595 168.06997142 -15.02734375 177.56640625 C-40.2530297 190.31523675 -72.37657414 190.97909575 -98.96484375 182.25390625 C-123.40421232 173.38351445 -140.71583078 157.36049702 -151.87207031 133.81298828 C-164.75677308 105.39575548 -165.04947476 69.55562252 -154.59765625 40.359375 C-145.12234368 16.65860964 -128.75098762 -1.76217921 -105.15234375 -12.18359375 C-71.45726959 -25.42893499 -28.85292536 -23.19402903 0 0 Z " fill="#FFFEFF" transform="translate(2062.02734375,908.43359375)"/>
<path d="M0 0 C18.81 0 37.62 0 57 0 C57 88.11 57 176.22 57 267 C38.19 267 19.38 267 0 267 C0 178.89 0 90.78 0 0 Z " fill="#FFFFFF" transform="translate(2408,401)"/>
<path d="M0 0 C0 16.5 0 33 0 50 C-4.29 49.34 -8.58 48.68 -13 48 C-16.27190027 47.80605364 -19.42461443 47.66322 -22.6875 47.6875 C-23.50275146 47.69313965 -24.31800293 47.6987793 -25.15795898 47.70458984 C-36.41866741 47.93185162 -45.80245676 51.42221108 -54.265625 59.0390625 C-61.5469277 66.67094644 -65.08101462 75.62413688 -65.15821838 86.15693665 C-65.17290161 87.68179436 -65.17290161 87.68179436 -65.18788147 89.23745728 C-65.19363693 90.34156952 -65.1993924 91.44568176 -65.20532227 92.58325195 C-65.21522186 93.75441055 -65.22512146 94.92556915 -65.23532104 96.13221741 C-65.26689264 100.00088483 -65.29167645 103.86956454 -65.31640625 107.73828125 C-65.33697952 110.42156898 -65.35792893 113.10485113 -65.37937927 115.78813171 C-65.42923067 122.12739894 -65.47419741 128.46669098 -65.51740164 134.80600661 C-65.57169042 142.7333346 -65.63251286 150.66061073 -65.69335938 158.58789062 C-65.80184286 172.72522053 -65.90045575 186.86259805 -66 201 C-84.48 201 -102.96 201 -122 201 C-122 135 -122 69 -122 1 C-104.18 1 -86.36 1 -68 1 C-68 12.55 -68 24.1 -68 36 C-67.34 36 -66.68 36 -66 36 C-65.88785156 35.12988281 -65.77570312 34.25976562 -65.66015625 33.36328125 C-63.34534703 21.57008163 -55.53434056 11.8571348 -45.8125 5.1875 C-31.34443392 -3.3231271 -15.98073534 -3.99518383 0 0 Z " fill="#FFFFFF" transform="translate(2191,467)"/>
<path d="M0 0 C18.48 0 36.96 0 56 0 C56 66.33 56 132.66 56 201 C37.52 201 19.04 201 0 201 C0 134.67 0 68.34 0 0 Z " fill="#FFFFFE" transform="translate(2335,891)"/>
<path d="M0 0 C6.71077125 5.13297159 12.21745558 10.20673062 14.75 18.4375 C15.71095308 28.28726903 14.221578 36.31293364 7.84375 44.14453125 C0.88833157 51.14415785 -7.28956873 53.61685105 -17 54 C-25.57477891 53.60290459 -33.10595167 49.95882917 -39.11328125 43.8515625 C-44.52192892 37.28951792 -46.51000329 31.1006442 -46.31640625 22.62109375 C-45.44591604 15.40999583 -42.23230188 9.00481049 -37 4 C-26.77785286 -3.06408542 -11.40247099 -7.42214231 0 0 Z " fill="#FFFFFF" transform="translate(2379,813)"/>
</svg>
