<?xml version="1.0" encoding="UTF-8"?>
<svg version="1.1" xmlns="http://www.w3.org/2000/svg" width="2789" height="971">
<path d="M0 0 C6.7330987 7.45351255 8.28046276 16.01795659 8.171875 25.71484375 C7.47394049 34.35926115 3.47447901 41.505949 -3.1015625 47.1015625 C-11.52803444 53.20618923 -20.05233454 54.44769257 -30.17041016 53.421875 C-35.57733989 52.52504923 -40.0135579 49.89765189 -44.11328125 46.37109375 C-45.96765319 44.8854603 -45.96765319 44.8854603 -47.90527344 45.34619141 C-50.56104405 46.25959228 -52.80130936 47.50527077 -55.23046875 48.91796875 C-56.25156738 49.50908447 -57.27266602 50.1002002 -58.32470703 50.70922852 C-59.42669434 51.35432373 -60.52868164 51.99941895 -61.6640625 52.6640625 C-62.8264845 53.34006451 -63.98908546 54.01575888 -65.15185547 54.69116211 C-74.50268674 60.13169362 -83.80947601 65.64712224 -93.10913086 71.17456055 C-100.62837109 75.64314694 -108.16776004 80.07524211 -115.7265625 84.4765625 C-116.72534424 85.05817139 -117.72412598 85.63978027 -118.75317383 86.23901367 C-120.66698265 87.35336924 -122.58080061 88.46770913 -124.49462891 89.58203125 C-133.17971451 94.64439994 -141.83606171 99.7552489 -150.48046875 104.88671875 C-152.81242736 106.27095575 -155.14445023 107.65508439 -157.4765625 109.0390625 C-158.06045746 109.38557861 -158.64435242 109.73209473 -159.24594116 110.08911133 C-167.30326151 114.86906916 -175.38377264 119.60598779 -183.4987793 124.28735352 C-188.77393941 127.33060375 -194.03737297 130.3929699 -199.2890625 133.4765625 C-200.29573975 134.06606689 -200.29573975 134.06606689 -201.32275391 134.66748047 C-205.96681226 137.39893691 -210.5454418 140.22599666 -215.1015625 143.1015625 C-214.80435303 143.73433105 -214.50714355 144.36709961 -214.20092773 145.01904297 C-211.02591136 151.77875524 -209.96241404 157.465013 -210.0390625 164.9765625 C-210.04808594 166.12898437 -210.05710938 167.28140625 -210.06640625 168.46875 C-210.08380859 169.77199219 -210.08380859 169.77199219 -210.1015625 171.1015625 C-209.51755645 171.39310463 -208.9335504 171.68464676 -208.33184719 171.9850235 C-194.05512315 179.11229451 -179.77953696 186.24183879 -165.50517941 193.37384796 C-158.60190064 196.82292027 -151.69825312 200.27125047 -144.79370117 203.71777344 C-138.76860783 206.72530232 -132.74424308 209.73428505 -126.72071272 212.74494314 C-123.53773792 214.33578445 -120.35442748 215.92594488 -117.1702404 217.51435852 C-105.52364998 223.3246966 -93.89629501 229.1430972 -82.44061279 235.32235718 C-76.92301118 238.26239859 -71.31920611 241.02550197 -65.71826553 243.8020401 C-60.82108169 246.23410825 -55.93124209 248.68091269 -51.04007661 251.12505507 C-48.39621843 252.44605066 -45.75206509 253.76645489 -43.10791343 255.08686292 C-31.92947893 260.66904517 -20.75233014 266.25380078 -9.57529736 271.83878899 C-1.63790043 275.80491172 6.29987395 279.77027556 14.23852539 283.73388672 C21.21744839 287.21832772 28.19564076 290.70422708 35.17299956 294.19179928 C38.84547104 296.02739104 42.51827424 297.862311 46.1919651 299.69546127 C60.34352617 306.75752893 74.48309243 313.82932261 88.44291687 321.2661438 C89.58323868 321.87183197 90.72356049 322.47752014 91.8984375 323.1015625 C92.59576492 323.51719452 93.29309235 323.93282654 94.0115509 324.36105347 C97.41314084 325.69600814 100.34937841 325.66299777 103.7964592 324.41365051 C106.03578612 323.4025037 108.21843773 322.31250747 110.40380859 321.18945312 C111.23729828 320.77314636 112.07078796 320.3568396 112.92953491 319.92791748 C115.68282381 318.54918452 118.42721219 317.1536278 121.171875 315.7578125 C123.09742274 314.78943503 125.02350808 313.82212588 126.95010376 312.85583496 C132.02920076 310.30483277 137.1009423 307.73953115 142.17126465 305.17114258 C147.2778804 302.58739153 152.39111437 300.01681408 157.50390625 297.4453125 C165.88648329 293.22749917 174.26377144 288.99934832 182.63804436 284.76507568 C188.67228129 281.71593907 194.71533376 278.6848367 200.76743126 275.6713028 C206.01709436 273.05441123 211.21493486 270.34656295 216.3984375 267.6015625 C223.80784629 263.70013321 231.24800866 259.8777456 238.75109863 256.15986633 C242.48997846 254.30575291 246.22384625 252.44171861 249.95581055 250.57373047 C256.49992445 247.29997029 263.04598295 244.03012207 269.59301758 240.76220703 C279.17725644 235.97814818 288.76056249 231.1922248 298.34325123 226.40506172 C304.10143188 223.52857985 309.85998631 220.65285146 315.61938477 217.77880859 C321.24735057 214.97031192 326.87429817 212.15978455 332.50058556 209.34792709 C334.61970465 208.28927919 336.73917076 207.23132557 338.85901833 206.17413712 C350.557241 200.33953341 362.20046082 194.42283679 373.74491882 188.28903198 C379.76639255 185.09842938 385.87249966 182.07865852 391.97998047 179.05712891 C393.97016353 178.0658364 395.95255947 177.06022242 397.93359375 176.05078125 C398.57965576 175.72295654 399.22571777 175.39513184 399.89135742 175.05737305 C401.66305688 174.15761908 403.43314563 173.25469548 405.203125 172.3515625 C407.8984375 171.1015625 407.8984375 171.1015625 409.8984375 171.1015625 C409.5684375 170.4415625 409.2384375 169.7815625 408.8984375 169.1015625 C408.37742646 160.90565806 408.22750018 153.58462704 411.8984375 146.1015625 C412.2903125 145.2765625 412.6821875 144.4515625 413.0859375 143.6015625 C413.3540625 143.1065625 413.6221875 142.6115625 413.8984375 142.1015625 C413.1677002 141.8226416 412.43696289 141.5437207 411.68408203 141.25634766 C409.10628829 140.18772676 406.75554515 138.99582051 404.328125 137.625 C403.44584229 137.12750244 402.56355957 136.63000488 401.65454102 136.11743164 C400.70377686 135.57594482 399.7530127 135.03445801 398.7734375 134.4765625 C397.76788818 133.90607178 396.76233887 133.33558105 395.72631836 132.74780273 C385.6136917 126.98455949 375.61074366 121.03938792 365.609375 115.0859375 C359.28894191 111.32607146 352.9427434 107.61202204 346.5859375 103.9140625 C338.21343468 99.04171961 329.86216072 94.13538442 321.52685547 89.19970703 C314.54875133 85.07026324 307.55565038 80.96678961 300.55810547 76.87042236 C290.09356101 70.74432092 279.64189364 64.59720394 269.2109375 58.4140625 C268.11950439 57.76719482 267.02807129 57.12032715 265.90356445 56.45385742 C264.86675537 55.83873291 263.82994629 55.2236084 262.76171875 54.58984375 C261.77510254 54.00799316 260.78848633 53.42614258 259.77197266 52.82666016 C257.84841432 51.67187144 255.94158315 50.48877518 254.05224609 49.27880859 C253.17004395 48.71887207 252.2878418 48.15893555 251.37890625 47.58203125 C250.60828857 47.07953857 249.8376709 46.5770459 249.04370117 46.05932617 C246.9568529 44.90696977 246.9568529 44.90696977 244.74389648 45.36279297 C242.45502965 46.27906642 240.74038496 47.55477927 238.7734375 49.0390625 C231.5075923 53.97793767 224.17584314 54.69316587 215.56640625 53.63671875 C207.40450559 51.99955859 200.18639727 47.88087803 195.42578125 40.9609375 C190.68638499 32.83625819 188.50730662 24.82366937 190.43359375 15.515625 C193.01261986 6.12966111 198.05898211 -0.18038995 205.8984375 -5.8984375 C211.14251317 -8.63311658 215.41750609 -9.44887212 221.2109375 -9.3984375 C222.32915894 -9.39203247 222.32915894 -9.39203247 223.4699707 -9.38549805 C229.87359948 -9.1887521 234.62366819 -7.61335285 239.8984375 -3.8984375 C240.47851562 -3.51429687 241.05859375 -3.13015625 241.65625 -2.734375 C247.45749376 1.55096587 251.21714706 8.18109933 252.8984375 15.1015625 C252.44977409 17.43677449 251.99075269 19.77001143 251.5234375 22.1015625 C251.43163206 26.35858006 251.43163206 26.35858006 252.8984375 30.1015625 C258.72580324 35.55001881 266.44421496 38.82893271 273.51171875 42.36767578 C278.77095662 45.06022966 283.82161327 48.08322856 288.8984375 51.1015625 C290.89475609 52.26877148 292.89215702 53.43413123 294.890625 54.59765625 C295.88030273 55.17499512 296.86998047 55.75233398 297.88964844 56.34716797 C300.91538149 58.11144237 303.94196221 59.87425456 306.96875 61.63671875 C317.41480443 67.72120247 327.8449009 73.83093708 338.24731445 79.98974609 C346.05621691 84.61058803 353.88177268 89.20267284 361.7109375 93.7890625 C362.34035248 94.15778473 362.96976746 94.52650696 363.61825562 94.90640259 C364.86941008 95.63933838 366.12056466 96.37227397 367.37171936 97.10520935 C368.27633156 97.63514244 368.27633156 97.63514244 369.19921875 98.17578125 C369.7923436 98.52322891 370.38546844 98.87067657 370.99656677 99.22865295 C375.46693212 101.84774834 379.93385039 104.4726336 384.3984375 107.1015625 C386.38225311 108.26851286 388.36617632 109.43528018 390.35009766 110.60205078 C392.34230344 111.77431826 394.33407729 112.9473198 396.32568359 114.12060547 C399.58421261 116.04015898 402.84404384 117.95748788 406.10449219 119.8737793 C407.41236017 120.6429333 408.71982335 121.41277608 410.02685547 122.18334961 C411.87229795 123.27120687 413.71919418 124.35655724 415.56640625 125.44140625 C416.64172607 126.07425537 417.7170459 126.70710449 418.82495117 127.35913086 C424.91590886 131.25278392 424.91590886 131.25278392 431.7734375 131.2890625 C432.45148437 131.08152344 433.12953125 130.87398437 433.828125 130.66015625 C441.89256357 128.48427943 449.91339694 130.80965393 457.0234375 134.7265625 C464.01692152 139.14180356 468.36374579 145.23067772 470.8984375 153.1015625 C472.60355794 162.30921289 472.2591176 170.77987346 467.2109375 178.8515625 C462.27007883 185.61839068 456.16056432 191.0069388 447.8984375 193.1015625 C436.34361431 194.51246723 427.58929246 192.77514403 417.9921875 185.6953125 C415.69533478 184.81131081 415.69533478 184.81131081 412.7890625 186.375 C411.56644566 187.05955889 410.353107 187.76089204 409.1484375 188.4765625 C404.02635107 191.41853892 398.83213129 194.16698457 393.54199219 196.79541016 C392.10307766 197.5125619 390.66417409 198.22973565 389.22528076 198.94692993 C388.50041222 199.30779316 387.77554367 199.66865639 387.02870941 200.04045486 C383.83757393 201.62998821 380.64927731 203.22518113 377.4609375 204.8203125 C376.22006846 205.44078797 374.97918284 206.06123026 373.73828125 206.68164062 C373.1129248 206.99431885 372.48756836 207.30699707 371.84326172 207.62915039 C350.7796224 218.16097005 329.71598307 228.69278971 308.65234375 239.22460938 C308.04149429 239.53003662 307.43064484 239.83546387 306.80128479 240.15014648 C305.46367685 240.81894509 304.1260601 241.48772607 302.78843689 242.15649414 C302.09117996 242.50510498 301.39392303 242.85371582 300.67553711 243.21289062 C300.04763779 243.52681763 299.41973846 243.84074463 298.77281189 244.16418457 C296.8157827 245.14289831 294.8590442 246.1221917 292.90234375 247.1015625 C290.2253501 248.44038619 287.54544522 249.77312917 284.86328125 251.1015625 C277.72654652 254.6422681 270.65339751 258.27195638 263.63885498 262.04903412 C259.4396788 264.30127751 255.20799838 266.47289653 250.94140625 268.59570312 C249.52454304 269.30177141 248.10771595 270.00791217 246.69091797 270.71411133 C245.54052032 271.28695358 245.54052032 271.28695358 244.36688232 271.87136841 C239.77728715 274.15867612 235.19173478 276.45407343 230.60546875 278.74804688 C228.51523462 279.79320524 226.42498349 280.83832961 224.3347168 281.88342285 C222.7162233 282.6926696 222.7162233 282.6926696 221.06503296 283.51826477 C153.4621582 317.31970215 153.4621582 317.31970215 150.28048706 318.91049957 C148.25230901 319.92461365 146.22417052 320.93880685 144.19607544 321.95308685 C139.82118769 324.14093527 135.44587339 326.32790724 131.06860352 328.51098633 C130.33736771 328.87589928 129.6061319 329.24081223 128.85273743 329.61678314 C127.54220684 330.27069183 126.23143375 330.92411491 124.92033386 331.57688141 C115.18581049 335.47571971 115.18581049 335.47571971 107.8984375 342.1015625 C107.73205115 344.92479146 107.62531005 347.72570992 107.56274414 350.55175781 C107.54011002 351.42689026 107.51747589 352.30202271 107.49415588 353.20367432 C107.2964034 361.31010841 107.18136397 369.41811232 107.09093571 377.52638626 C107.02926672 382.96886171 106.94101318 388.40791198 106.78735352 393.84863281 C106.63922868 399.11627872 106.56148797 404.38081711 106.53121758 409.65041351 C106.50804595 411.64886348 106.460705 413.64719863 106.38765144 415.64444733 C105.81173447 427.87228819 105.81173447 427.87228819 111.11056519 438.4720459 C113.55742152 441.04149855 116.1449904 443.34611636 118.88523865 445.59686279 C119.87959427 446.4234137 120.87394989 447.2499646 121.8984375 448.1015625 C121.8984375 448.7615625 121.8984375 449.4215625 121.8984375 450.1015625 C122.5584375 450.1015625 123.2184375 450.1015625 123.8984375 450.1015625 C125.23828125 451.46484375 125.23828125 451.46484375 126.8359375 453.4140625 C130.66739818 457.93342635 134.81749802 462.05782159 139.0546875 466.1953125 C141.21715332 468.35433307 143.23743261 470.60467045 145.23828125 472.9140625 C149.01804998 477.27208328 152.93801858 481.46764011 156.9609375 485.6015625 C157.64220703 486.32859375 158.32347656 487.055625 159.02539062 487.8046875 C162.87280361 491.80126312 162.87280361 491.80126312 167.90234375 493.8203125 C171.93511964 492.85286692 175.18593057 491.1463712 178.7734375 489.1015625 C180.30252138 488.26144629 181.83248865 487.42293617 183.36328125 486.5859375 C184.12882324 486.16376953 184.89436523 485.74160156 185.68310547 485.30664062 C188.86299066 483.5768728 192.09131263 481.95571392 195.3359375 480.3515625 C195.96765869 480.03751465 196.59937988 479.7234668 197.25024414 479.39990234 C198.65118248 478.70372743 200.05249113 478.00829737 201.45410156 477.31347656 C221.57361914 467.34047432 221.57361914 467.34047432 241.49536133 456.98095703 C249.1711236 452.9146839 256.95076015 449.0587349 264.72808838 445.19186401 C273.02179988 441.06615504 281.26173999 436.8554375 289.44140625 432.5078125 C294.86609505 429.62862793 300.33896728 426.86341981 305.84277344 424.13916016 C311.07140331 421.54046084 316.23881768 418.83437468 321.3984375 416.1015625 C329.20747746 411.968058 337.07281095 407.96761287 344.99072266 404.04736328 C348.08912189 402.51124879 351.18105771 400.96224954 354.2734375 399.4140625 C359.18524829 396.95504915 364.10061193 394.5033622 369.01953125 392.05859375 C383.46637343 384.8725243 383.46637343 384.8725243 397.7734375 377.4140625 C407.84952907 372.03938754 418.08792317 366.99021417 428.30993652 361.90093994 C437.64329408 357.25232971 446.94644095 352.56867392 456.14453125 347.65625 C463.77466302 343.59707569 471.52253313 339.77680696 479.26123047 335.92993164 C486.70716688 332.22014792 494.09183956 328.4119874 501.4387207 324.51025391 C508.20136171 320.9227053 515.03133727 317.4847016 521.8984375 314.1015625 C521.84042969 312.91820312 521.78242187 311.73484375 521.72265625 310.515625 C521.40345192 301.26163698 521.28242956 293.90406954 526.8984375 286.1015625 C527.30964844 285.46089844 527.72085938 284.82023437 528.14453125 284.16015625 C532.74949108 277.8334607 540.06272786 274.41306557 547.4765625 272.40234375 C556.32699096 271.07477948 565.80829905 273.51686714 573.15234375 278.5859375 C580.25243692 284.7488819 584.3240139 292.83020034 585.05859375 302.12890625 C585.43112997 311.34512844 582.91841074 318.95085369 577.00390625 326.05078125 C572.9159019 330.03260367 567.76175629 334.1015625 561.8984375 334.1015625 C561.5684375 400.7615625 561.2384375 467.4215625 560.8984375 536.1015625 C562.5484375 536.4315625 564.1984375 536.7615625 565.8984375 537.1015625 C574.40526426 541.19744205 580.55504711 547.17360794 583.8984375 556.1015625 C586.24738956 565.30162473 585.37699585 575.0005396 580.64453125 583.30078125 C574.92782646 591.4786287 567.71888613 596.29292584 557.8984375 598.1015625 C549.15980265 599.21977644 541.41708671 597.20411082 534.15625 592.21875 C526.8752681 586.19087477 522.58119677 579.90194076 521.46484375 570.41796875 C521.14322911 560.74029177 522.62134189 552.97937301 528.6484375 545.2890625 C533.76587069 539.82271341 538.51142976 537.33273046 545.8984375 536.1015625 C545.5684375 469.7715625 545.2384375 403.4415625 544.8984375 335.1015625 C541.9284375 333.7815625 538.9584375 332.4615625 535.8984375 331.1015625 C535.1765625 330.4828125 534.4546875 329.8640625 533.7109375 329.2265625 C533.1128125 328.8553125 532.5146875 328.4840625 531.8984375 328.1015625 C526.02137941 329.51727222 520.81736917 332.65068718 515.5234375 335.4765625 C507.28100028 339.83033464 498.9991378 344.08423772 490.6484375 348.2265625 C482.55918813 352.24445341 474.53454943 356.36231485 466.55541992 360.59423828 C459.066483 364.55986353 451.49203424 368.34135558 443.8984375 372.1015625 C434.30312515 376.85701056 424.72607606 381.62983796 415.2734375 386.6640625 C406.23088219 391.47587784 397.06765022 396.03771383 387.8984375 400.6015625 C374.58248731 407.22276133 374.58248731 407.22276133 361.3984375 414.1015625 C351.90574709 419.17739133 342.25745815 423.93862344 332.62164307 428.73483276 C323.75072371 433.15209912 314.91630486 437.61377771 306.17578125 442.28515625 C297.79318413 446.73794403 289.27800783 450.92722201 280.78070068 455.15530396 C271.85124974 459.60031933 262.96634711 464.10889237 254.15893555 468.79248047 C246.80620208 472.69916677 239.36070225 476.40954834 231.8984375 480.1015625 C223.38410247 484.31514127 214.91832154 488.58633683 206.5559082 493.0949707 C201.9217389 495.5833407 197.23628275 497.95359566 192.5234375 500.2890625 C185.99026519 503.53678931 185.99026519 503.53678931 179.5234375 506.9140625 C178.85570312 507.27113281 178.18796875 507.62820313 177.5 507.99609375 C175.58379557 509.17305793 175.58379557 509.17305793 173.8984375 512.1015625 C173.58589347 514.88270783 173.58589347 514.88270783 173.6211071 518.0929594 C173.61015821 519.35295496 173.59920933 520.61295051 173.58792865 521.91112775 C173.5857761 523.31719098 173.58380675 524.72325451 173.58200073 526.12931824 C173.57287233 527.61684098 173.56287271 529.10435858 173.5520736 530.59187013 C173.52485996 534.68964746 173.51006009 538.78739152 173.49722028 542.88523567 C173.48123463 547.30039689 173.45383142 551.71548865 173.42779541 556.13059998 C173.3842381 563.78347287 173.34795934 571.43635273 173.31658554 579.0892849 C173.27121351 590.15421659 173.21492441 601.21907141 173.15594698 612.28393797 C173.06056398 630.23474961 172.97404409 648.18559264 172.89306641 666.13647461 C172.81437239 683.57692916 172.73152378 701.01735579 172.64306641 718.45776367 C172.63489359 720.06955903 172.63489359 720.06955903 172.62655567 721.71391591 C172.59919697 727.10437 172.57175637 732.49482368 172.54427505 737.88527715 C172.31629655 782.62398075 172.1026887 827.36274471 171.8984375 872.1015625 C172.85129639 872.24432617 173.80415527 872.38708984 174.78588867 872.53417969 C177.76014649 873.0763536 178.9052819 873.56423258 181.2109375 875.3515625 C184.37954732 877.22167338 184.7665913 877.13383735 188.6484375 876.18359375 C195.11371102 873.80569809 201.25746637 870.66015329 207.42434692 867.60839844 C211.09968719 865.79021257 214.78401889 863.99046691 218.46875 862.19140625 C219.19669266 861.8356955 219.92463531 861.47998474 220.67463684 861.11349487 C226.72185419 858.16750123 232.82142267 855.35016925 238.9609375 852.6015625 C245.53505514 849.65280682 252.02568192 846.60171665 258.45141602 843.34301758 C273.65902447 835.64538603 289.07085844 828.34385219 304.5859375 821.2890625 C311.64414976 818.07964752 318.64117309 814.79800712 325.5559082 811.29077148 C342.22615648 802.85139248 359.15029111 794.90665294 376.14599609 787.14746094 C382.46355355 784.25728757 388.70771787 781.25463169 394.8984375 778.1015625 C394.85203125 776.91820312 394.805625 775.73484375 394.7578125 774.515625 C394.43670795 762.93257512 394.89446683 753.52058665 403.1953125 744.6328125 C410.98338099 737.63069588 419.02205365 735.60114199 429.36328125 735.796875 C438.71935597 736.60325492 445.79510166 741.05925192 451.8984375 748.1015625 C457.20947007 756.42936297 459.14263779 764.83041036 457.47265625 774.58984375 C455.06560577 784.08514106 449.45939354 790.88122022 441.1484375 795.94921875 C433.13410307 800.05378239 424.18162998 800.18887561 415.5859375 797.8515625 C411.63676173 796.56808038 409.13611941 794.69170803 405.8984375 792.1015625 C401.24614954 792.46528683 397.22600461 794.66105131 393.0859375 796.6640625 C392.43173828 796.97408203 391.77753906 797.28410156 391.10351562 797.60351562 C386.88313601 799.61752003 382.69955901 801.70101103 378.52249146 803.80323792 C369.49552482 808.34304213 360.39245852 812.70778129 351.25665283 817.02377319 C346.84761026 819.10693984 342.44127666 821.19581748 338.03515625 823.28515625 C337.16028564 823.69995743 336.28541504 824.11475861 335.3840332 824.54212952 C327.91259244 828.0879077 320.46441731 831.67983221 313.0234375 835.2890625 C302.09965728 840.58518438 291.12631928 845.76731118 280.13287354 850.91671753 C268.26481967 856.47911819 256.46764095 862.17799374 244.69046021 867.92993164 C233.87630967 873.20843759 223.0142235 878.35632596 212.06445312 883.34863281 C206.61886261 885.83166225 201.23269891 888.38697395 195.8984375 891.1015625 C195.99382813 891.92398438 196.08921875 892.74640625 196.1875 893.59375 C197.36628647 905.46385561 196.40433516 914.46065395 188.8984375 924.1015625 C182.62744782 930.37255218 174.32697013 934.22267222 165.4609375 934.6015625 C157.41127761 934.28231253 149.01968584 931.38809516 142.8984375 926.1015625 C134.62342179 915.77532468 132.6696368 907.11012276 133.8984375 894.1015625 C135.63311263 886.24062961 141.44326095 879.05579722 148.08984375 874.6484375 C151.12377215 873.06163149 153.44946327 872.1015625 156.8984375 872.1015625 C156.9216437 840.29909579 156.93914338 808.49663165 156.94950283 776.69415836 C156.95075238 772.8724402 156.95204681 769.05072205 156.95336914 765.22900391 C156.95363145 764.46870326 156.95389376 763.70840262 156.95416402 762.92506257 C156.95790196 752.3580438 156.96402953 741.79102893 156.97217612 731.22401267 C157.0029533 691.18294238 156.99795852 651.14212117 156.90311015 611.10113192 C156.89845463 609.10889376 156.89403727 607.11665505 156.88962078 605.12441635 C156.85390981 589.23267616 156.7938183 573.3414093 156.68563652 557.44998932 C156.65653599 553.1007729 156.63630967 548.75166275 156.62416267 544.40236664 C156.60972132 539.41943544 156.5765207 534.43700342 156.52773023 529.45429325 C156.51320118 527.6577447 156.50529783 525.86112801 156.50463367 524.06452084 C156.50258133 521.63458741 156.47614659 519.20611288 156.44334412 516.77642822 C156.45103721 515.73025994 156.45103721 515.73025994 156.45888573 514.66295695 C156.32416068 508.32529928 153.34179382 504.22901812 148.91015625 499.953125 C148.37245605 499.42702637 147.83475586 498.90092773 147.28076172 498.35888672 C146.72146973 497.82021973 146.16217773 497.28155273 145.5859375 496.7265625 C141.43642102 492.65969199 137.46317488 488.55849165 133.703125 484.125 C131.37206452 481.51138674 128.89027327 479.06002361 126.3984375 476.6015625 C123.34527857 473.58924168 120.357714 470.56607421 117.5859375 467.2890625 C112.10643523 460.85132214 105.90892685 455.03702494 99.8984375 449.1015625 C96.12356852 450.85800154 93.70440407 453.05997558 90.7734375 456.0390625 C89.90460938 456.91433594 89.03578125 457.78960937 88.140625 458.69140625 C85.79345857 461.08503836 85.79345857 461.08503836 83.8984375 464.1015625 C83.2384375 464.1015625 82.5784375 464.1015625 81.8984375 464.1015625 C81.68574219 464.64296875 81.47304688 465.184375 81.25390625 465.7421875 C79.40870568 468.95400636 76.86056004 471.30948922 74.2109375 473.8515625 C70.8306023 477.11533441 67.58444395 480.41550974 64.51953125 483.98046875 C60.13147225 489.06278332 55.32451949 493.69355597 50.5078125 498.36523438 C49.8271875 499.03490234 49.1465625 499.70457031 48.4453125 500.39453125 C47.83526367 500.9877417 47.22521484 501.58095215 46.59667969 502.19213867 C42.80128878 506.45949811 41.52337382 509.66502934 41.52929401 515.38590717 C41.52332087 516.66033501 41.51734772 517.93476285 41.51119357 519.24780971 C41.51975222 520.65978108 41.528589 522.07175079 41.53767395 523.48371887 C41.53636575 524.98533834 41.53373906 526.48695715 41.52990645 527.9885723 C41.52319238 532.11613444 41.53520677 536.24346344 41.55024064 540.37099588 C41.56318346 544.82152895 41.55881278 549.27204863 41.55653381 553.72259521 C41.55495997 561.43387281 41.56438079 569.14507432 41.58124733 576.85633278 C41.60561769 588.00553677 41.61344059 599.15470393 41.6172113 610.30393168 C41.62377887 628.39233925 41.64374832 646.48070625 41.67211914 664.5690918 C41.69965181 682.14135536 41.72088927 699.7136079 41.73364258 717.28588867 C41.73443075 718.36885445 41.73521892 719.45182023 41.73603097 720.56760315 C41.73994606 726.00046777 41.74373719 731.43333247 41.74746668 736.86619723 C41.77857209 781.94468042 41.83141621 827.02311937 41.8984375 872.1015625 C43.01210693 872.41150146 44.12577637 872.72144043 45.27319336 873.04077148 C53.55423369 875.46390572 57.78297232 880.71866738 61.8984375 888.1015625 C65.98208742 895.71618792 66.15950972 904.53388665 63.8359375 912.7890625 C60.20058991 922.07939523 53.76669733 927.86147068 44.8984375 932.1015625 C36.17522582 935.46841613 27.40515376 934.86003305 18.8984375 931.1015625 C10.36680631 926.02386587 4.48798507 918.72327594 1.8984375 909.1015625 C1.66796875 905.62890625 1.66796875 905.62890625 1.7109375 902.0390625 C1.71738281 900.85183594 1.72382813 899.66460938 1.73046875 898.44140625 C1.8763689 895.54036843 2.23210653 892.92147515 2.8984375 890.1015625 C1.7640625 889.7715625 0.6296875 889.4415625 -0.5390625 889.1015625 C-11.61977594 885.40220206 -22.05028369 879.65513554 -32.44750977 874.3840332 C-38.92573491 871.13125349 -45.51196129 868.12070063 -52.1015625 865.1015625 C-59.12838278 861.88043861 -66.14532823 858.66250137 -73.0390625 855.1640625 C-88.77858412 847.17782245 -104.72311823 839.59433356 -120.7890625 832.2890625 C-127.84877499 829.07896536 -134.84717869 825.79645921 -141.76342773 822.28857422 C-157.2435327 814.4518809 -172.95397818 807.05868414 -188.67614746 799.72128296 C-189.90997931 799.14525626 -191.14330419 798.56814227 -192.37609863 797.98989868 C-194.09405384 797.1848746 -195.81455353 796.38528734 -197.53515625 795.5859375 C-198.51540771 795.12928711 -199.49565918 794.67263672 -200.50561523 794.20214844 C-202.73198574 793.25824942 -204.71830444 792.48818796 -207.1015625 792.1015625 C-209.03160723 792.99677126 -209.03160723 792.99677126 -210.8515625 794.4140625 C-218.085641 799.22786705 -226.11422904 800.29344226 -234.61328125 798.6015625 C-244.29594023 795.99184124 -250.00378162 791.99388747 -255.65625 783.69921875 C-260.16497561 775.59569839 -260.49906618 766.10447602 -258.4140625 757.1484375 C-254.7901238 747.30340402 -248.40762213 741.67780964 -239.1015625 737.1015625 C-231.11472904 734.37801887 -221.21775853 735.05570204 -213.6640625 738.5390625 C-204.70400631 743.65909461 -199.19211018 750.68962071 -196.4140625 760.5390625 C-195.67638859 766.58798853 -196.19130406 772.10541563 -197.1015625 778.1015625 C-195.9878125 778.58625 -194.8740625 779.0709375 -193.7265625 779.5703125 C-186.33801762 782.80673205 -178.98345022 786.07567918 -171.7890625 789.7265625 C-164.30912721 793.51958617 -156.77746893 797.20228503 -149.2265625 800.8515625 C-148.29553711 801.30166687 -148.29553711 801.30166687 -147.34570312 801.76086426 C-137.28187425 806.62040831 -127.15503255 811.33203368 -116.99414062 815.9855957 C-111.35339256 818.57615183 -105.75587277 821.21866835 -100.2265625 824.0390625 C-93.49563939 827.47108777 -86.65428998 830.63545915 -79.7890625 833.7890625 C-67.17076516 839.59263665 -54.69334458 845.66763811 -42.2265625 851.7890625 C-28.67194484 858.44431955 -15.11804189 865.03756424 -1.27685547 871.08203125 C0.34062923 871.84012509 1.9263607 872.66671704 3.49169922 873.52734375 C4.36713379 874.00558594 5.24256836 874.48382812 6.14453125 874.9765625 C6.93400146 875.42773438 7.72347168 875.87890625 8.53686523 876.34375 C10.9328366 877.35639729 10.9328366 877.35639729 13.50415039 876.3359375 C15.32938238 875.39493894 17.14696139 874.43908044 18.9609375 873.4765625 C21.8984375 872.1015625 21.8984375 872.1015625 25.8984375 872.1015625 C25.79357472 829.43384583 25.68374008 786.7661445 25.56732056 744.09845772 C25.55355246 739.05090876 25.53982514 734.00335969 25.52612305 728.95581055 C25.52339474 727.95101589 25.52066644 726.94622124 25.51785546 725.91097827 C25.47388786 709.68260789 25.43321748 693.45423086 25.39378489 677.22584891 C25.35319123 660.55013474 25.30900955 643.8744328 25.26155895 627.19873673 C25.23243619 616.92495701 25.206048 606.65117798 25.18325853 596.37738223 C25.16732078 589.31381257 25.14786986 582.25025778 25.12576909 575.18670475 C25.11315523 571.12319671 25.1019817 567.05969965 25.09501839 562.99617767 C25.0776896 553.36382826 25.02418953 543.73323316 24.8984375 534.1015625 C24.88427127 532.91384916 24.87010503 531.72613581 24.85550952 530.50243115 C24.80618904 527.25022044 24.72759458 524.00041066 24.63560486 520.74916077 C24.62229081 519.81419563 24.60897676 518.87923049 24.59525925 517.91593307 C24.44028084 512.87738283 24.44028084 512.87738283 21.98832893 508.58139133 C19.82429046 507.04905981 17.719325 505.77488963 15.33959961 504.60302734 C14.44023178 504.15510834 13.54086395 503.70718933 12.61424255 503.24569702 C11.64455032 502.772742 10.67485809 502.29978699 9.67578125 501.8125 C8.66109268 501.30917145 7.64640411 500.8058429 6.60096741 500.28726196 C3.34965675 498.67608301 0.09311491 497.07584312 -3.1640625 495.4765625 C-7.40670156 493.38374624 -11.64710632 491.28643992 -15.88671875 489.1875 C-16.9290567 488.67221741 -17.97139465 488.15693481 -19.0453186 487.6260376 C-26.27162021 484.04233634 -33.42771173 480.34293163 -40.55152893 476.56027222 C-47.07057083 473.10141165 -53.65211869 469.78251523 -60.26629639 466.51004028 C-69.05494975 462.15955603 -77.82485966 457.78252179 -86.4765625 453.1640625 C-94.93823905 448.64808576 -103.51532695 444.37402018 -112.1015625 440.1015625 C-121.41224261 435.46862568 -130.68828974 430.79623918 -139.86328125 425.8984375 C-147.8625475 421.65191344 -155.98181949 417.64565421 -164.08990479 413.61251831 C-172.36935603 409.49221902 -180.60169914 405.30221294 -188.76171875 400.94921875 C-197.33426922 396.4020398 -206.03546728 392.10765267 -214.73242188 387.8046875 C-221.59384768 384.40210472 -228.39706014 380.90726421 -235.1640625 377.3203125 C-245.71913158 371.730853 -256.40382005 366.41141799 -267.1015625 361.1015625 C-280.16035608 354.61979243 -293.1490383 348.03668887 -306.02716064 341.20239258 C-311.01570604 338.55510377 -316.01686509 335.93459808 -321.0390625 333.3515625 C-322.06451172 332.80757813 -323.08996094 332.26359375 -324.14648438 331.703125 C-325.13068359 331.20039063 -326.11488281 330.69765625 -327.12890625 330.1796875 C-327.99249756 329.73012695 -328.85608887 329.28056641 -329.74584961 328.81738281 C-332.08771532 327.84678078 -332.08771532 327.84678078 -334.28515625 328.90698242 C-334.88457031 329.30119385 -335.48398437 329.69540527 -336.1015625 330.1015625 C-337.45521247 330.79007928 -338.80937752 331.47758437 -340.1640625 332.1640625 C-341.17146484 332.67646484 -341.17146484 332.67646484 -342.19921875 333.19921875 C-344.1015625 334.1015625 -344.1015625 334.1015625 -347.1015625 335.1015625 C-347.1015625 401.4315625 -347.1015625 467.7615625 -347.1015625 536.1015625 C-345.4515625 536.4315625 -343.8015625 536.7615625 -342.1015625 537.1015625 C-333.51454754 541.10552709 -328.47740184 547.40283866 -324.86328125 555.98828125 C-321.82931821 564.40558384 -322.8790369 571.90753372 -326.1015625 580.1015625 C-330.73788118 588.29239217 -337.91602589 594.85149629 -347.1015625 597.4140625 C-356.22736354 599.26052808 -364.32522643 597.80514896 -372.4140625 593.2265625 C-378.55090998 588.37417147 -384.73963024 582.13275067 -386.1015625 574.1015625 C-386.86523155 562.64652671 -386.26029163 554.07705955 -378.9140625 544.8515625 C-375.26153274 540.90714592 -371.09080465 538.11272988 -366.1015625 536.1015625 C-365.1115625 536.1015625 -364.1215625 536.1015625 -363.1015625 536.1015625 C-363.1015625 469.4415625 -363.1015625 402.7815625 -363.1015625 334.1015625 C-365.0815625 333.7715625 -367.0615625 333.4415625 -369.1015625 333.1015625 C-376.19233186 329.21728075 -383.07154495 322.45849089 -385.6328125 314.66796875 C-387.13955943 306.41852929 -387.87496001 295.35287018 -383.1015625 288.1015625 C-376.82981962 279.56722884 -369.71740501 273.82258994 -359.1015625 272.1015625 C-349.93006801 271.47976626 -342.09713688 273.55972891 -334.91796875 279.43359375 C-327.27091381 286.45572807 -323.41512005 293.51685386 -322.9140625 304.0390625 C-322.94872144 307.69211463 -323.73815685 310.69304837 -325.1015625 314.1015625 C-324.2765625 314.34519531 -323.4515625 314.58882813 -322.6015625 314.83984375 C-318.52785709 316.30837818 -314.89853772 318.22520141 -311.1015625 320.2890625 C-302.51319981 324.8870123 -293.82469286 329.26726219 -285.1015625 333.6015625 C-276.06420685 338.09555038 -267.06771251 342.64701018 -258.16015625 347.39453125 C-250.52857337 351.44421534 -242.79364528 355.28403073 -235.04785156 359.10986328 C-228.6606433 362.2770656 -222.33901417 365.54612866 -216.0390625 368.8828125 C-206.14066893 374.12042748 -196.13375652 379.12627837 -186.1015625 384.1015625 C-175.34873959 389.43422942 -164.64508735 394.83355476 -154.03930664 400.45373535 C-146.82507613 404.26864325 -139.53769631 407.92563917 -132.22564697 411.54867554 C-121.78581125 416.7235954 -111.37689904 421.93723143 -101.09765625 427.42578125 C-94.16250615 431.11124701 -87.13324842 434.60520689 -80.1015625 438.1015625 C-72.3484873 441.95661352 -64.61513837 445.83548346 -56.9765625 449.9140625 C-47.35993683 455.04525659 -37.59358634 459.87250863 -27.83648682 464.72897339 C-19.46437271 468.89777069 -11.1090585 473.08352377 -2.8515625 477.4765625 C-0.71120339 478.6077632 1.42955274 479.73821009 3.5703125 480.86865234 C5.28050805 481.77432428 6.98853166 482.6841006 8.6953125 483.59619141 C11.67049142 485.17870232 14.65797621 486.73565935 17.6484375 488.2890625 C18.56657227 488.78390137 19.48470703 489.27874023 20.43066406 489.78857422 C25.63433211 492.46163862 29.01915876 493.90352326 34.8984375 492.1015625 C36.88876964 490.47787049 38.26962977 489.04720681 39.8984375 487.1015625 C41.28987856 485.53514981 42.68623662 483.97309886 44.0859375 482.4140625 C45.24802734 481.11275391 45.24802734 481.11275391 46.43359375 479.78515625 C49.70354864 476.22499935 53.13972364 472.8494664 56.578125 469.453125 C58.52956559 467.47540238 60.35447838 465.47005694 62.1484375 463.3515625 C66.09314766 458.73061631 70.44476462 454.52949193 74.76000977 450.25952148 C78.52500052 446.51885041 82.14958818 442.7182671 85.56640625 438.65234375 C86.8984375 437.1015625 86.8984375 437.1015625 88.51171875 435.58203125 C91.79652905 432.07514927 91.05325524 427.34444946 91.05957031 422.85400391 C91.06453522 422.01303665 91.06950012 421.1720694 91.07461548 420.30561829 C91.08922973 417.52144556 91.09603762 414.73732979 91.1015625 411.953125 C91.10731423 410.01882933 91.11307196 408.08453367 91.11883545 406.15023804 C91.12934311 402.09332005 91.13518742 398.03642187 91.13867188 393.97949219 C91.14415835 388.7818659 91.16819069 383.58450134 91.19664383 378.38695717 C91.21526926 374.39095291 91.22047574 370.39501174 91.22200775 366.39896774 C91.22503465 364.48281802 91.23306442 362.56666942 91.24619293 360.65056229 C91.2632526 357.96947565 91.2613735 355.28902908 91.25488281 352.60791016 C91.2640976 351.81708542 91.27331238 351.02626068 91.2828064 350.21147156 C91.24830531 345.66079096 90.84043294 342.64202594 87.8984375 339.1015625 C85.66612887 337.48803923 85.66612887 337.48803923 83.02246094 336.27416992 C81.53380524 335.53265938 81.53380524 335.53265938 80.01507568 334.77616882 C78.40273041 333.99944572 78.40273041 333.99944572 76.7578125 333.20703125 C75.08625092 332.38045769 75.08625092 332.38045769 73.38092041 331.53718567 C70.41251599 330.07200439 67.43879648 328.61897364 64.46154785 327.17193604 C60.32403746 325.15722224 56.19781823 323.11942882 52.0692749 321.08642578 C49.78906411 319.96379567 47.5080242 318.84284793 45.22613525 317.72363281 C38.00709863 314.1746152 30.88332355 310.49272019 23.81152344 306.66040039 C20.79525061 305.04634558 17.75334153 303.54378356 14.63882828 302.1305027 C8.04823788 299.13737207 1.60320828 295.94130227 -4.78027344 292.52978516 C-14.46554071 287.39584976 -24.24764833 282.46951826 -34.0603714 277.58457565 C-37.08305999 276.07976003 -40.10438872 274.57224273 -43.12542725 273.06411743 C-49.53299689 269.8659733 -55.94215392 266.67101926 -62.3515625 263.4765625 C-69.8064439 259.76101223 -77.26062918 256.04407845 -84.71312714 252.32374954 C-87.66047873 250.85326589 -90.60904206 249.38523355 -93.55767822 247.91732788 C-102.81902847 243.2990484 -112.02758554 238.61241515 -121.13024902 233.68786621 C-124.81116152 231.72272682 -128.5492311 229.94105454 -132.3515625 228.2265625 C-138.0904417 225.5850677 -143.70651001 222.7746867 -149.27734375 219.796875 C-160.83036624 213.67667038 -172.46783211 207.72416189 -184.13959694 201.83428383 C-187.45219364 200.16242934 -190.76121101 198.48416362 -194.06323242 196.79150391 C-197.31360931 195.12549982 -200.57146235 193.47511095 -203.83532906 191.83570099 C-205.06571085 191.21439497 -206.29333175 190.58758891 -207.51801872 189.95513153 C-209.21269993 189.08123643 -210.91850713 188.22901861 -212.62475586 187.37792969 C-214.07101601 186.6437381 -214.07101601 186.6437381 -215.54649353 185.89471436 C-218.05323898 184.83739549 -218.05323898 184.83739549 -220.30519104 185.88092041 C-221.19439491 186.48513824 -221.19439491 186.48513824 -222.1015625 187.1015625 C-222.83375 187.51535156 -223.5659375 187.92914063 -224.3203125 188.35546875 C-225.84227108 189.22851006 -227.36310526 190.1035144 -228.8828125 190.98046875 C-235.73011657 194.44028613 -244.72766706 194.17462485 -252.03125 192.3828125 C-261.96836894 188.63751539 -267.24744063 182.40863914 -272.1015625 173.1015625 C-274.43026502 164.68343674 -274.10526746 155.30595609 -270.41796875 147.37890625 C-266.03673198 139.79949665 -260.02966166 134.785197 -252.1015625 131.1015625 C-248.64650241 130.1914757 -245.41664309 129.96613829 -241.8515625 129.9765625 C-240.54445312 129.97269531 -240.54445312 129.97269531 -239.2109375 129.96875 C-236.1015625 130.1015625 -236.1015625 130.1015625 -234.21313477 130.59887695 C-227.3824187 132.15320455 -222.94419933 129.36715587 -217.21777344 125.85571289 C-215.9913684 125.08376303 -214.76513535 124.31153986 -213.5390625 123.5390625 C-212.25572178 122.75463717 -210.9708672 121.97268359 -209.68457031 121.19311523 C-207.07181598 119.60694436 -204.4659701 118.01027748 -201.86474609 116.40527344 C-196.41964784 113.05677004 -190.8849738 109.8637182 -185.3515625 106.6640625 C-183.39011244 105.52171296 -181.4291583 104.37851141 -179.46875 103.234375 C-178.09734863 102.43435059 -178.09734863 102.43435059 -176.69824219 101.61816406 C-168.45333161 96.80268978 -160.2285194 91.95309845 -152.01171875 87.08984375 C-142.39219247 81.39720448 -132.76087833 75.72647782 -123.1015625 70.1015625 C-112.66343149 64.0225254 -102.25688443 57.89161425 -91.86328125 51.73681641 C-88.02441747 49.46376924 -84.18499773 47.19167925 -80.34277344 44.92431641 C-78.45658528 43.80706322 -76.5742921 42.68320367 -74.69628906 41.55224609 C-70.87956178 39.26318587 -67.12177888 37.03839578 -63.0546875 35.22265625 C-58.69782972 33.18925253 -58.69782972 33.18925253 -55.1015625 30.1015625 C-54.48264468 26.50551442 -54.66709717 23.38017534 -54.9921875 19.75 C-55.20295417 12.71942601 -52.13061481 6.62416808 -47.7890625 1.2265625 C-46.9021875 0.5253125 -46.0153125 -0.1759375 -45.1015625 -0.8984375 C-44.46863281 -1.41019531 -43.83570313 -1.92195313 -43.18359375 -2.44921875 C-29.56901329 -13.15186267 -12.79644166 -11.52170034 0 0 Z M-36.9140625 12.1015625 C-40.24635915 16.67156933 -40.51295177 20.59111154 -40.1015625 26.1015625 C-38.94571251 30.61988518 -36.64042512 33.11318962 -33.1015625 36.1015625 C-28.51955058 38.69515415 -25.12588213 39.60030243 -20.01953125 38.671875 C-15.52211668 37.33455824 -12.75781977 34.88197655 -9.7890625 31.3515625 C-7.02756292 26.03311886 -6.46925954 22.17411109 -8.2265625 16.4140625 C-10.93617027 11.62708877 -13.99614296 8.23432556 -19.1015625 6.1015625 C-26.33490206 5.08889496 -32.00878132 6.48354816 -36.9140625 12.1015625 Z M208.6484375 11.4765625 C205.28705189 16.51864091 204.50061913 19.92139975 205.36328125 25.890625 C206.51957187 30.66770887 209.02406511 33.39826297 212.7734375 36.4140625 C217.67051233 39.05848291 221.05646451 39.54219508 226.3984375 38.1015625 C231.88224361 36.10997751 235.31777148 32.26289454 237.8984375 27.1015625 C238.44204196 22.14674156 238.46280824 18.23030398 236.2109375 13.7265625 C233.06029565 10.15015824 229.6862585 6.36229396 224.7265625 5.8984375 C217.97462813 5.77567506 213.49837315 6.35718598 208.6484375 11.4765625 Z M-367.8515625 555.9765625 C-371.4076752 560.91560792 -372.64308293 563.92368636 -371.640625 570.11328125 C-370.17793177 575.50828743 -366.57370102 579.0054666 -362.1015625 582.1015625 C-357.28282901 583.707807 -353.3082322 584.13181701 -348.68359375 581.97265625 C-344.0290421 579.06451061 -340.70157727 576.54161271 -339.1015625 571.1015625 C-338.39159103 565.39092243 -338.80802279 560.9850869 -342.1015625 556.1015625 C-346.24737629 552.17394943 -349.85355167 550.30592712 -355.5390625 549.7890625 C-361.09901175 550.27677735 -364.0081458 551.95844504 -367.8515625 555.9765625 Z M539.5234375 556.6640625 C536.45683611 561.26396459 536.26465798 565.73675279 536.8984375 571.1015625 C538.24730115 575.05565993 540.45207709 577.70710447 543.5859375 580.4765625 C549.14815954 583.20519973 553.67394023 583.73183673 559.6484375 582.0390625 C564.21587841 579.31616504 566.59258412 576.35712744 569.2734375 571.7265625 C570.48895702 566.62138053 569.57461383 561.9737529 567.2734375 557.3515625 C564.89289126 553.6228933 562.09569732 551.49515171 557.8984375 550.1015625 C550.18353802 548.77705763 544.85267371 550.91409712 539.5234375 556.6640625 Z M-241.5390625 757.7265625 C-244.81056264 762.69924271 -244.69785215 767.24632945 -244.1015625 773.1015625 C-241.91629908 777.55302501 -239.1621104 780.29041395 -235.1015625 783.1015625 C-230.12076867 784.76182711 -225.79882621 784.70059675 -220.9140625 782.9765625 C-217.02959572 780.38691798 -214.21499229 777.32842209 -212.1015625 773.1015625 C-211.54386346 767.13847277 -211.59999802 762.17279382 -215.1015625 757.1015625 C-218.99873549 753.40950387 -222.59067685 751.43634725 -227.9140625 750.7265625 C-233.51405739 751.38538543 -237.71176908 753.6048619 -241.5390625 757.7265625 Z M413.0859375 757.1640625 C409.38313132 762.13640223 409.2493128 766.00344739 409.8984375 772.1015625 C411.21297069 776.09023177 413.43733079 778.69407285 416.5859375 781.4765625 C422.14815954 784.20519973 426.67394023 784.73183673 432.6484375 783.0390625 C436.91649551 780.4946433 439.64584514 777.60674722 441.8984375 773.1015625 C442.43073337 767.76115144 442.58358893 763.42461354 440.0859375 758.6015625 C439.3640625 757.7765625 438.6421875 756.9515625 437.8984375 756.1015625 C437.4240625 755.5240625 436.9496875 754.9465625 436.4609375 754.3515625 C432.63072914 751.28739581 428.74212173 750.70019007 423.8828125 750.85546875 C419.15400401 751.44191547 416.09671443 753.6457546 413.0859375 757.1640625 Z " fill="#FFFEFE" transform="translate(386.1015625,22.8984375)"/>
<path d="M0 0 C23.43 0 46.86 0 71 0 C73.95609317 5.91218634 76.78611626 11.59738633 79.20703125 17.69921875 C79.48910431 18.39959763 79.77117737 19.0999765 80.0617981 19.82157898 C80.6668374 21.32497536 81.27004801 22.82910881 81.87155151 24.33392334 C83.51768286 28.45136055 85.17818355 32.56301323 86.8359375 36.67578125 C87.35096077 37.95527649 87.35096077 37.95527649 87.87638855 39.26062012 C91.52323457 48.31527001 95.22680035 57.34637151 98.9375 66.375 C99.60720738 68.0054403 100.27688499 69.63589282 100.9465332 71.26635742 C102.29200292 74.54195886 103.63784252 77.81740804 104.98388672 81.09277344 C107.99384178 88.41782892 110.99874094 95.74495852 114.00402832 103.07192993 C114.99442149 105.4864002 115.98497354 107.90080522 116.97558594 110.31518555 C120.07847829 117.87777392 123.1808537 125.44057341 126.28170776 133.0039978 C127.73410211 136.54651795 129.18674419 140.08893648 130.6394043 143.63134766 C131.3267021 145.30756663 132.01388076 146.98383446 132.70092773 148.66015625 C133.34845412 150.24003714 133.99616412 151.81984278 134.64407349 153.39956665 C135.25475958 154.88888415 135.86486551 156.37843971 136.47433472 157.86825562 C138.64778705 163.17260043 140.88316016 168.44877077 143.16333008 173.70825195 C144 176 144 176 144 179 C145.32 179 146.64 179 148 179 C148.13002914 178.26671478 148.26005829 177.53342957 148.39402771 176.77792358 C148.95571139 174.20302969 149.69620452 171.98504828 150.69555664 169.55322266 C151.04488754 168.69691757 151.39421844 167.84061249 151.75413513 166.95835876 C152.1356221 166.036241 152.51710907 165.11412323 152.91015625 164.1640625 C153.30900528 163.18993912 153.70785431 162.21581573 154.11878967 161.21217346 C155.42915355 158.01470499 156.74580713 154.81986683 158.0625 151.625 C158.97876257 149.39250209 159.8946113 147.15983429 160.81005859 144.92700195 C163.1104818 139.31869585 165.41576288 133.71240126 167.72235107 128.10662842 C169.56944522 123.61538277 171.41206215 119.12230694 173.25390625 114.62890625 C175.51171995 109.12138957 177.7706224 103.61432402 180.03157043 98.10809326 C184.31571905 87.67410653 188.58776267 77.2351916 192.85687256 66.79504395 C193.98898317 64.0269371 195.12159878 61.25903746 196.25439453 58.49121094 C199.66739197 50.15149047 203.07834883 41.81097292 206.47827148 33.46591187 C207.96330321 29.82229626 209.4508981 26.1797305 210.93896484 22.53735352 C211.64100781 20.81713826 212.34187276 19.09644172 213.04150391 17.37524414 C214.00384155 15.00804253 214.97019744 12.64252 215.9375 10.27734375 C216.21996582 9.57955307 216.50243164 8.88176239 216.79345703 8.16282654 C218.00466186 5.21169832 219.22250318 2.66624523 221 0 C244.1 0 267.2 0 291 0 C291 88.44 291 176.88 291 268 C272.85 268 254.7 268 236 268 C236 210.58 236 153.16 236 94 C235.34 94 234.68 94 234 94 C233.82913281 94.53294111 233.65826563 95.06588223 233.48222065 95.61497307 C231.55462148 101.52331346 229.37054585 107.29447035 227.0612793 113.06298828 C226.67639658 114.03028523 226.29151386 114.99758219 225.89496803 115.99419117 C224.62378308 119.1871929 223.34902014 122.3787531 222.07421875 125.5703125 C221.17305996 127.83174772 220.27211936 130.09326989 219.37138367 132.35487366 C216.97336356 138.37401415 214.57220711 144.39189857 212.17028046 150.40948105 C209.70438877 156.58780355 207.24139683 162.76728261 204.77783203 168.9465332 C200.92342811 178.6133154 197.06714907 188.27934753 193.20947266 197.94482422 C189.46887761 207.31699687 185.73179331 216.690558 181.99842834 226.06561279 C179.91382412 231.30025678 177.82671566 236.53390028 175.73892212 241.76727295 C174.83301013 244.03897502 173.92787317 246.31098631 173.02352905 248.58331299 C171.81760929 251.61251428 170.60855006 254.64044051 169.3984375 257.66796875 C169.05890549 258.52294449 168.71937347 259.37792023 168.36955261 260.25880432 C166.11448826 265.88551174 166.11448826 265.88551174 165 267 C162.1883662 267.08861992 159.40141745 267.11522355 156.58984375 267.09765625 C155.74780899 267.0962413 154.90577423 267.09482635 154.03822327 267.09336853 C151.33794665 267.08775263 148.63775172 267.07519748 145.9375 267.0625 C144.11132932 267.05748705 142.28515734 267.05292379 140.45898438 267.04882812 C135.97262458 267.03777804 131.48632616 267.02050279 127 267 C121.90780281 256.37293848 117.69313455 245.3812599 113.3515625 234.43359375 C112.50135525 232.29550132 111.65091161 230.15750287 110.80024719 228.01959229 C108.53772872 222.33136188 106.27854129 216.64181439 104.02018356 210.951931 C101.69415732 205.09273157 99.36559719 199.23453927 97.03735352 193.3762207 C93.81307568 185.26251148 90.58997018 177.14833819 87.36821842 169.0336256 C82.935028 157.8678456 78.4951074 146.70478265 74.04677582 135.54502678 C72.40932231 131.43604228 70.77375163 127.3263082 69.13848114 123.21645451 C67.92366878 120.16359936 66.70748287 117.11130355 65.48931885 114.05978394 C64.18635513 110.79500035 62.88751002 107.52861073 61.58984375 104.26171875 C61.21692703 103.33039124 60.84401031 102.39906372 60.45979309 101.43951416 C60.13009018 100.60700134 59.80038727 99.77448853 59.46069336 98.91674805 C59.17576523 98.2014946 58.8908371 97.48624115 58.59727478 96.74931335 C58 95 58 95 58 93 C57.34 93 56.68 93 56 93 C56 150.75 56 208.5 56 268 C37.52 268 19.04 268 0 268 C0 179.56 0 91.12 0 0 Z " fill="#FEFFFE" transform="translate(1131,565)"/>
<path d="M0 0 C16.83 0 33.66 0 51 0 C58.86495611 10.11208643 58.86495611 10.11208643 61.83203125 14.63671875 C62.47986572 15.61850098 63.1277002 16.6002832 63.79516602 17.61181641 C64.46088623 18.62679199 65.12660645 19.64176758 65.8125 20.6875 C70.87434279 28.34475916 76.00691641 35.9056287 81.390625 43.33984375 C86.79521908 50.85788251 91.92030516 58.57766319 97.12158203 66.23681641 C99.98931598 70.4553 102.86870395 74.66577219 105.75 78.875 C106.28197998 79.65230469 106.81395996 80.42960937 107.36206055 81.23046875 C112.11754922 88.1763421 116.88540181 95.11368291 121.65722656 102.04833984 C124.39931496 106.0338407 127.13939657 110.02072162 129.87988281 114.00732422 C132.14585064 117.30349641 134.41224691 120.59937197 136.6796875 123.89453125 C141.68895353 131.17511329 146.69215143 138.45986138 151.6875 145.75 C152.23623779 146.55010498 152.78497559 147.35020996 153.3503418 148.17456055 C157.14469541 153.71812891 160.8631322 159.30445707 164.51171875 164.9453125 C165.84041424 167.11271741 165.84041424 167.11271741 168 168 C168 112.56 168 57.12 168 0 C186.81 0 205.62 0 225 0 C225 88.44 225 176.88 225 268 C208.5 268 192 268 175 268 C160.05208333 246.64583333 160.05208333 246.64583333 152.96875 236.3125 C149.37917009 231.0867856 145.74985718 225.88877242 142.125 220.6875 C136.69067181 212.88784318 131.29469849 205.06389657 125.93847656 197.21044922 C120.94110623 189.8927614 115.87752187 182.62176373 110.81176758 175.35131836 C104.74494566 166.64177149 98.72847241 157.89856183 92.72753906 149.14355469 C85.46175847 138.5464718 78.13849986 127.98998682 70.796875 117.4453125 C70.17103516 116.54458008 69.54519531 115.64384766 68.90039062 114.71582031 C67.5972385 112.85350477 66.28282033 110.9990368 64.95898438 109.15136719 C64.31767578 108.25321289 63.67636719 107.35505859 63.015625 106.4296875 C62.14599121 105.2228833 62.14599121 105.2228833 61.25878906 103.99169922 C60 102 60 102 60 100 C59.34 100 58.68 100 58 100 C58 155.44 58 210.88 58 268 C38.86 268 19.72 268 0 268 C0 179.56 0 91.12 0 0 Z " fill="#FFFFFE" transform="translate(1131,142)"/>
<path d="M0 0 C18.15 0 36.3 0 55 0 C55 33.66 55 67.32 55 102 C55.66 102 56.32 102 57 102 C57.26683594 101.11957031 57.53367187 100.23914063 57.80859375 99.33203125 C63.15377521 84.38304836 75.07354253 74.59102942 89 68 C92.63067624 66.69168899 96.21068064 65.71641819 100 65 C101.31871094 64.72929688 101.31871094 64.72929688 102.6640625 64.453125 C122.18137098 61.80206202 141.15762807 64.51984436 158 75 C161.61019718 77.76390434 164.84030375 80.73498055 168 84 C168.57234375 84.57492187 169.1446875 85.14984375 169.734375 85.7421875 C174.18751057 90.53963768 177.12437743 96.15914623 180 102 C180.38285156 102.76957031 180.76570313 103.53914062 181.16015625 104.33203125 C188.78656884 121.3537202 187.409309 140.59068751 187.30418181 158.79184079 C187.28520081 162.64213008 187.28364795 166.49242932 187.28010559 170.34275818 C187.27084715 177.60607318 187.24631909 184.86924984 187.21605712 192.1325044 C187.18231784 200.41325349 187.16597844 208.69400981 187.15097082 216.97481072 C187.11976258 233.98330049 187.06483 250.9916001 187 268 C168.19 268 149.38 268 130 268 C129.96132812 254.24054688 129.96132812 254.24054688 129.921875 240.203125 C129.89669751 234.37888513 129.8705194 228.55467797 129.83984375 222.73046875 C129.79137918 213.49365494 129.74690602 204.25694992 129.72900391 195.02001953 C129.71594418 188.29133477 129.6888703 181.56287254 129.64538693 174.83431315 C129.62286844 171.27582171 129.60708348 167.71760374 129.60811615 164.15903473 C129.60900883 160.17374614 129.57859562 156.18925633 129.54589844 152.20410156 C129.5509288 151.0409996 129.55595917 149.87789764 129.56114197 148.67955017 C129.41360997 136.99472794 126.67947676 127.52162524 118.44140625 119.06640625 C109.6626089 111.63603217 99.03290533 111.34816533 88 112 C78.54896305 113.54462931 70.26498316 118.52814605 64.28125 126.0078125 C59.92156165 132.78659622 57.89807725 140.34473304 57.84178162 148.34675598 C57.82709839 149.93471985 57.82709839 149.93471985 57.81211853 151.55476379 C57.80636307 152.70562973 57.8006076 153.85649567 57.79467773 155.04223633 C57.78477814 156.26216278 57.77487854 157.48208923 57.76467896 158.73898315 C57.73854141 162.07535224 57.71665876 165.41169805 57.69667697 168.74810624 C57.67476586 172.23815844 57.64740231 175.72816782 57.62062073 179.21818542 C57.570763 185.82307335 57.52579859 192.42798513 57.48259836 199.03291959 C57.42831583 207.29216071 57.36749067 215.55135198 57.30664062 223.81054688 C57.19814708 238.54032625 57.09954031 253.27015136 57 268 C38.19 268 19.38 268 0 268 C0 179.56 0 91.12 0 0 Z " fill="#FFFFFE" transform="translate(1871,565)"/>
<path d="M0 0 C1.10843262 0.29801514 1.10843262 0.29801514 2.23925781 0.60205078 C21.47720049 5.98174359 37.71034301 15.8609444 48.0859375 33.36328125 C54.67655117 45.29478505 55.15051613 57.74820991 55.11352539 71.01342773 C55.11324301 72.4331614 55.11340225 73.85289521 55.1139679 75.27262878 C55.11425389 79.11094774 55.10838923 82.94923521 55.10139394 86.78754687 C55.09512736 90.80473847 55.09455399 94.82193085 55.09336853 98.83912659 C55.09026494 106.43916698 55.08206469 114.03919293 55.07201904 121.63922697 C55.06082767 130.29460353 55.05533984 138.94998078 55.05032361 147.60536277 C55.03988124 165.40358503 55.02154787 183.20178749 55 201 C37.18 201 19.36 201 1 201 C0.505 188.13 0.505 188.13 0 175 C-1.134375 176.65 -2.26875 178.3 -3.4375 180 C-13.01843164 193.04210589 -26.04829952 200.99460716 -42 204 C-62.54027238 206.97928363 -85.45052614 205.36474591 -102.875 193.125 C-115.77745343 183.08767774 -123.21895921 171.43442923 -125.75 155 C-125.86117337 153.66869887 -125.9412268 152.3346415 -126 151 C-126.0515625 150.06027344 -126.103125 149.12054687 -126.15625 148.15234375 C-126.61689902 132.35592125 -123.10508312 117.9133948 -112.8125 105.6875 C-95.03864636 87.10980373 -68.35227668 83.90047262 -44.12890625 81.06640625 C-42.71475957 80.89846107 -41.30061572 80.7304921 -39.88647461 80.5625 C-37.11140092 80.23349458 -34.33512556 79.92204003 -31.55688477 79.62109375 C-16.92949024 78.42464129 -16.92949024 78.42464129 -4.67236328 71.53833008 C-1.6779521 66.99338219 -2.34783605 62.23727584 -3 57 C-4.6847399 50.68695781 -7.45873014 46.62313798 -13 43 C-23.6369748 37.9368 -34.76243654 38.09627922 -46 41 C-56.5424559 44.93754377 -61.07505854 51.20187475 -66 61 C-75.93745373 61.22122957 -85.72607858 60.64026407 -95.62402344 59.828125 C-98.15490379 59.62257127 -100.68665288 59.43209478 -103.21875 59.2421875 C-104.83601012 59.11288424 -106.45320079 58.98270878 -108.0703125 58.8515625 C-108.82337677 58.79626373 -109.57644104 58.74096497 -110.35232544 58.68399048 C-113.99049786 58.3719763 -115.89948316 58.06701123 -119 56 C-112.8450553 35.23769807 -101.9930627 18.50155516 -82.55688477 7.8503418 C-58.15900884 -4.845872 -26.40921257 -7.13087181 0 0 Z M-9.17578125 110.84375 C-18.01850416 113.40731596 -26.95082903 114.73262527 -36.05273438 116.06640625 C-48.68963755 118.02652169 -60.39082755 120.81504751 -68.73828125 131.15625 C-72.28067478 136.33275077 -72.33539615 141.58582634 -71.52734375 147.578125 C-70.08106195 154.22030806 -66.55924283 157.77505337 -61.1953125 161.73828125 C-52.25164136 166.87850505 -40.86233339 166.79495078 -30.98828125 164.859375 C-20.23757983 161.76767002 -11.33232833 156.16337069 -5.40991211 146.61328125 C-0.9267716 138.3037512 -0.59171582 129.55712978 -0.8125 120.3125 C-0.82603516 119.21744141 -0.83957031 118.12238281 -0.85351562 116.99414062 C-0.88843163 114.32888586 -0.93746283 111.66472496 -1 109 C-3.91412488 109 -6.39070373 109.99122751 -9.17578125 110.84375 Z " fill="#FFFFFF" transform="translate(1575,632)"/>
<path d="M0 0 C11.36009179 10.12589105 18.74086687 23.94700913 20.09057617 39.17456055 C20.23322831 43.87607053 20.21712435 48.57663166 20.20410156 53.27978516 C20.20381919 54.70937091 20.20397841 56.13895681 20.20454407 57.56854248 C20.20483007 61.43371999 20.19896516 65.29886624 20.19197011 69.16403651 C20.1857038 73.20925534 20.18513018 77.25447494 20.1839447 81.29969788 C20.18084104 88.95286217 20.17264067 96.60601212 20.16259521 104.25917011 C20.15140409 112.97500502 20.14591607 121.69084063 20.14089978 130.40668094 C20.13045724 148.32931725 20.11212377 166.25193391 20.09057617 184.17456055 C2.27057617 184.17456055 -15.54942383 184.17456055 -33.90942383 184.17456055 C-34.40442383 171.30456055 -34.40442383 171.30456055 -34.90942383 158.17456055 C-36.88942383 161.14456055 -38.86942383 164.11456055 -40.90942383 167.17456055 C-45.96719765 173.33747786 -51.8961473 177.48046049 -58.90942383 181.17456055 C-59.95356445 181.7449707 -59.95356445 181.7449707 -61.01879883 182.3269043 C-79.50267502 191.53409826 -103.13062554 189.92981482 -122.33129883 184.14331055 C-135.78858055 179.46801079 -147.51560342 170.50621945 -154.55786133 158.0222168 C-161.97453566 142.39575556 -162.90777588 123.45940769 -157.94067383 106.95581055 C-152.38118897 92.38094484 -142.52184782 82.1002894 -128.47192383 75.36206055 C-110.04380603 67.70122872 -90.51898055 65.60469468 -70.87475586 63.37231445 C-54.02602416 61.99308814 -54.02602416 61.99308814 -38.90942383 55.17456055 C-36.35283331 50.06137951 -37.18749169 42.10827204 -38.52270508 36.68237305 C-41.26032061 30.48354317 -46.45282362 26.66105136 -52.56176758 24.03393555 C-63.18058133 21.30798569 -77.34759283 21.54315403 -86.90942383 27.17456055 C-93.74810453 31.9861025 -97.79573568 37.39034018 -100.90942383 45.17456055 C-118.06942383 43.85456055 -135.22942383 42.53456055 -152.90942383 41.17456055 C-151.52977134 28.75768818 -147.58741588 19.92899071 -139.90942383 10.17456055 C-139.32547852 9.41401367 -138.7415332 8.6534668 -138.13989258 7.86987305 C-124.72820572 -8.45003223 -103.1026627 -16.88049651 -82.54223633 -19.4465332 C-54.33235246 -22.15171646 -22.5312977 -18.83000069 0 0 Z M-43.59301758 94.01831055 C-52.20245158 96.70853666 -60.92219458 97.93232969 -69.82543945 99.2409668 C-82.86579631 101.26158648 -94.24112659 103.82233538 -103.34692383 113.86206055 C-107.20008073 119.56473276 -106.54675185 126.56686087 -105.90942383 133.17456055 C-104.1307551 138.3271166 -100.60782258 142.20661168 -96.05395508 145.14331055 C-84.72871184 150.58932915 -72.25043436 150.40201934 -60.55786133 146.36206055 C-50.44845358 142.19323261 -42.64936914 135.55496844 -38.09692383 125.48706055 C-36.35259068 120.62128913 -35.78529662 116.37936548 -35.81176758 111.2175293 C-35.81499023 110.10571289 -35.81821289 108.99389648 -35.8215332 107.84838867 C-35.82991211 106.69790039 -35.83829102 105.54741211 -35.84692383 104.36206055 C-35.85143555 103.19223633 -35.85594727 102.02241211 -35.8605957 100.81713867 C-35.87235453 97.93622697 -35.88878957 95.05542011 -35.90942383 92.17456055 C-38.70116675 92.17456055 -40.942763 93.13604751 -43.59301758 94.01831055 Z " fill="#FEFEFE" transform="translate(2111.909423828125,225.825439453125)"/>
<path d="M0 0 C14.56119757 12.16883652 24.17947673 27.52532375 29.625 45.6875 C29.91141357 46.63411499 29.91141357 46.63411499 30.20361328 47.59985352 C34.9569461 64.71486828 33.75 81.23618621 33.75 99.0625 C-11.46 99.0625 -56.67 99.0625 -103.25 99.0625 C-102.92 99.7225 -102.59 100.3825 -102.25 101.0625 C-101.98101027 103.1851798 -101.7347395 105.31076015 -101.5 107.4375 C-99.63191108 120.58131986 -94.64949701 130.26446351 -84.2421875 138.6875 C-74.06417458 145.61019705 -61.02599651 147.09504058 -49.0625 145.375 C-39.54355796 143.46870331 -31.84144876 140.37504334 -25.25 133.0625 C-24.12590537 131.34431579 -23.04746747 129.59543132 -22.015625 127.8203125 C-21.49258789 126.92715332 -20.96955078 126.03399414 -20.43066406 125.11376953 C-20.04104492 124.43685059 -19.65142578 123.75993164 -19.25 123.0625 C-12.32623497 123.46573414 -5.40286554 123.87530052 1.52026367 124.28930664 C3.87629674 124.42944425 6.23241705 124.56812298 8.58862305 124.70532227 C11.97208172 124.9025898 15.35519369 125.10507292 18.73828125 125.30859375 C19.79461258 125.3690538 20.85094391 125.42951385 21.93928528 125.49180603 C22.92007553 125.55179276 23.90086578 125.61177948 24.91137695 125.67358398 C25.77519485 125.72465805 26.63901276 125.77573212 27.52900696 125.82835388 C29.75 126.0625 29.75 126.0625 32.75 127.0625 C29.72231085 142.80648357 22.99085615 154.0778457 11.75 165.0625 C10.67105469 166.17238281 10.67105469 166.17238281 9.5703125 167.3046875 C-8.90264664 185.21997241 -36.65009628 189.58838042 -61.32568359 189.41601562 C-85.69260269 188.86905897 -108.71890049 182.63183816 -127.25 166.0625 C-128.08273438 165.32386719 -128.91546875 164.58523438 -129.7734375 163.82421875 C-147.06585242 147.56934873 -157.29561412 122.95980018 -158.42700195 99.37231445 C-158.97396968 64.1462855 -155.1071895 33.0727228 -129.6171875 6.296875 C-95.72351468 -25.91693648 -37.02806938 -28.85520722 0 0 Z M-92.625 37.3125 C-99.29317438 45.28144762 -102.25 53.79200483 -102.25 64.0625 C-74.86 64.0625 -47.47 64.0625 -19.25 64.0625 C-20.49413238 50.37704385 -23.54805969 41.27156336 -33.375 31.875 C-51.30345799 17.26071131 -77.30516766 21.33405805 -92.625 37.3125 Z " fill="#FEFFFE" transform="translate(2555.25,647.9375)"/>
<path d="M0 0 C20.70092758 17.82579875 28.822508 41.142564 32.125 67.5625 C32.125 77.4625 32.125 87.3625 32.125 97.5625 C-13.085 97.5625 -58.295 97.5625 -104.875 97.5625 C-102.07810448 114.44410063 -102.07810448 114.44410063 -94.875 128.5625 C-94.49730469 129.14902344 -94.11960937 129.73554688 -93.73046875 130.33984375 C-87.78691085 138.59361851 -76.96126333 142.36698399 -67.375 144.25 C-54.36706879 145.41142243 -41.43254297 143.87997389 -30.875 135.5625 C-27.48868461 132.37408615 -25.07681078 128.96520589 -22.79052734 124.93725586 C-22.15840332 123.82358643 -21.5262793 122.70991699 -20.875 121.5625 C-14.43347909 121.9671332 -7.99227624 122.37656978 -1.55126953 122.78930664 C0.63876469 122.92907883 2.82886872 123.06776166 5.01904297 123.20532227 C8.17174067 123.40352864 11.32416444 123.60568405 14.4765625 123.80859375 C15.45178864 123.8690538 16.42701477 123.92951385 17.43179321 123.99180603 C22.05542129 124.29311606 26.56722919 124.67830581 31.125 125.5625 C27.47737369 144.53015681 17.55452936 160.05232255 1.72265625 171.24609375 C-23.38804964 187.94711494 -56.56767798 191.43745796 -85.76000977 186.04296875 C-109.06013693 181.09794822 -130.45783477 168.32194251 -143.76220703 148.328125 C-161.09234325 120.83107692 -164.41284414 86.03652961 -157.90625 54.6171875 C-154.3513143 39.13173134 -148.03886296 24.85593424 -137.875 12.5625 C-137.18792969 11.71300781 -136.50085937 10.86351562 -135.79296875 9.98828125 C-123.1089243 -4.93546835 -105.85218967 -14.21045893 -86.875 -18.4375 C-85.39580078 -18.77394531 -85.39580078 -18.77394531 -83.88671875 -19.1171875 C-54.66689037 -24.65038457 -23.438495 -18.49897746 0 0 Z M-93.609375 35.02734375 C-100.78510126 43.056734 -103.56315782 52.06776254 -104.875 62.5625 C-77.155 62.5625 -49.435 62.5625 -20.875 62.5625 C-22.09041829 49.19289876 -24.68212775 39.62283089 -34.875 30.5625 C-52.9407147 16.23560278 -77.58578296 19.93594181 -93.609375 35.02734375 Z " fill="#FEFEFE" transform="translate(1544.875,226.4375)"/>
<path d="M0 0 C2.46110178 2.15859913 4.75079072 4.39182276 7.01171875 6.7578125 C7.64335937 7.37011719 8.275 7.98242188 8.92578125 8.61328125 C23.04977334 23.20392506 26.17913915 44.10881656 26.12524414 63.49584961 C26.12496175 64.886027 26.12512102 66.27620453 26.12568665 67.66638184 C26.12597259 71.42412513 26.12010875 75.18183625 26.11311269 78.9395721 C26.10684528 82.87268201 26.10627267 86.80579272 26.10508728 90.73890686 C26.10198394 98.17957555 26.09378401 105.62022948 26.08373779 113.06089169 C26.07254566 121.53489317 26.0670584 130.00889537 26.06204236 138.48290241 C26.05160055 155.9078825 26.03326748 173.33284236 26.01171875 190.7578125 C7.53171875 190.7578125 -10.94828125 190.7578125 -29.98828125 190.7578125 C-30.03726563 182.09015625 -30.08625 173.4225 -30.13671875 164.4921875 C-30.17662812 158.28628039 -30.21774896 152.08039052 -30.26061249 145.87450409 C-30.31590825 137.84539528 -30.3683922 129.8163012 -30.41015625 121.78710938 C-30.44324435 115.42764513 -30.48316644 109.06826548 -30.53107131 102.70889497 C-30.55617055 99.34607542 -30.57697916 95.98336675 -30.59162521 92.62047577 C-30.60861315 88.8533074 -30.63767817 85.08640493 -30.66943359 81.31933594 C-30.67159378 80.22168915 -30.67375397 79.12404236 -30.67597961 77.99313354 C-30.81428076 65.07142756 -32.18780286 52.77324248 -41.23828125 42.8828125 C-48.9246225 35.767073 -58.31823594 34.38481322 -68.43359375 34.4765625 C-78.00871714 35.23415468 -87.22923385 38.24794452 -93.59765625 45.62109375 C-100.84247609 55.43029289 -102.58755618 66.80176704 -102.53417969 78.70825195 C-102.54451736 79.92934662 -102.55485504 81.15044128 -102.56550598 82.40853882 C-102.58970343 85.71153658 -102.59677819 89.01400225 -102.59578609 92.31707025 C-102.5989443 95.78577853 -102.62462199 99.25432405 -102.64776611 102.72294617 C-102.68810946 109.2709236 -102.70861539 115.81880199 -102.72174001 122.36688441 C-102.73925236 130.56434494 -102.78369771 138.76163311 -102.828125 146.95898438 C-102.90713334 161.5585888 -102.9458583 176.15795428 -102.98828125 190.7578125 C-121.79828125 190.7578125 -140.60828125 190.7578125 -159.98828125 190.7578125 C-159.98828125 124.0978125 -159.98828125 57.4378125 -159.98828125 -11.2421875 C-142.16828125 -11.2421875 -124.34828125 -11.2421875 -105.98828125 -11.2421875 C-105.98828125 0.6378125 -105.98828125 12.5178125 -105.98828125 24.7578125 C-105.32828125 24.7578125 -104.66828125 24.7578125 -103.98828125 24.7578125 C-103.58996094 23.43910156 -103.58996094 23.43910156 -103.18359375 22.09375 C-98.17746858 8.12240722 -87.64915211 -0.89845651 -74.77539062 -7.40087891 C-51.26970252 -18.46653481 -20.75820886 -15.57544037 0 0 Z " fill="#FFFFFF" transform="translate(2343.98828125,642.2421875)"/>
<path d="M0 0 C18.81 0 37.62 0 57 0 C57.02578125 9.11238281 57.0515625 18.22476563 57.078125 27.61328125 C57.1033003 33.39650568 57.12947649 39.1796971 57.16015625 44.96289062 C57.20863495 54.13614653 57.2531026 63.30929263 57.27099609 72.48266602 C57.28404911 79.16483036 57.3111061 85.84677035 57.35461307 92.5288083 C57.37714651 96.06323518 57.39291561 99.59738618 57.39188385 103.13189125 C57.39099232 107.08856358 57.42138204 111.0446771 57.45410156 115.0012207 C57.4490712 116.1585672 57.44404083 117.3159137 57.43885803 118.5083313 C57.57569096 129.24949366 60.28823558 139.18564004 68 147 C76.8990284 154.41310529 85.60756418 155.92849089 97 155 C107.00974293 153.26108116 115.07306429 148.0011018 121.49609375 140.20703125 C128.01120437 130.64589489 128.14731531 120.2475688 128.20532227 109.09790039 C128.21522186 107.91669617 128.22512146 106.73549194 128.23532104 105.51849365 C128.26139531 102.29794904 128.28330369 99.07740915 128.30332303 95.85682225 C128.32528457 92.48422872 128.35262321 89.11167877 128.37937927 85.73912048 C128.42916936 79.36096181 128.47415858 72.98277877 128.51740164 66.60457271 C128.57175116 58.62632315 128.63254703 50.64812435 128.69335938 42.66992188 C128.80174522 28.44665368 128.90041756 14.2233386 129 0 C147.48 0 165.96 0 185 0 C185 66.33 185 132.66 185 201 C167.18 201 149.36 201 131 201 C131 189.12 131 177.24 131 165 C130.34 165 129.68 165 129 165 C128.89558594 165.71800781 128.79117187 166.43601562 128.68359375 167.17578125 C125.95433875 178.45150332 115.49378262 188.43752487 105.96362305 194.33886719 C96.83024631 199.66698414 86.65656306 203.55827718 76 204 C74.91332031 204.0515625 73.82664062 204.103125 72.70703125 204.15625 C52.06704884 204.66957599 34.46860761 198.82148524 19.25 184.6875 C3.68731157 168.23126008 -0.17551733 146.17779014 -0.11352539 124.42382812 C-0.1132429 123.06305951 -0.11340247 121.70229074 -0.1139679 120.34152222 C-0.11425344 116.66854584 -0.10839614 112.99560248 -0.10139394 109.32263374 C-0.0951198 105.47628067 -0.0945534 101.62992674 -0.09336853 97.78356934 C-0.09026715 90.50938882 -0.08206991 83.23522343 -0.07201904 75.96104956 C-0.06082076 67.67565497 -0.05533811 59.39025963 -0.05032361 51.10485935 C-0.03988625 34.069896 -0.02155568 17.03495347 0 0 Z " fill="#FFFEFF" transform="translate(1604,209)"/>
<path d="M0 0 C1.31274902 0.00418945 2.62549805 0.00837891 3.97802734 0.01269531 C28.75017708 0.29957249 51.29078739 6.18673843 69.6875 23.5546875 C79.35371347 33.51480611 86.3125 47.26299405 86.3125 61.3125 C60.5725 62.7975 60.5725 62.7975 34.3125 64.3125 C32.9925 61.0125 31.6725 57.7125 30.3125 54.3125 C24.15689901 46.97312959 16.9165484 42.66072863 7.3125 41.3125 C-3.81652641 40.42280224 -14.85559608 42.01838641 -23.6875 49.3125 C-27.47158028 53.47498831 -28.25682206 56.7429078 -28.02734375 62.1953125 C-27.56995063 65.04481908 -26.37003447 66.9990151 -24.6875 69.3125 C-24.6875 69.9725 -24.6875 70.6325 -24.6875 71.3125 C-15.00446583 76.21367174 -5.41625644 78.64195728 5.16653442 80.74740601 C9.42410458 81.59621934 13.67453605 82.47952714 17.92578125 83.359375 C19.16517708 83.61487373 19.16517708 83.61487373 20.42961121 83.87553406 C70.3792657 94.2062487 70.3792657 94.2062487 84.1875 114.6875 C91.96879848 127.83645344 92.77886567 142.85210231 89.375 157.52734375 C84.74071063 174.03699962 73.11668842 186.86867482 58.45800781 195.390625 C30.56078114 210.81302773 -6.45021734 212.66208823 -36.83203125 204.2109375 C-55.85717213 198.46432681 -72.67220933 187.66042181 -83.1171875 170.4140625 C-87.11635751 162.51520431 -89.62892872 154.09638936 -90.6875 145.3125 C-72.02670633 143.97569445 -53.38986205 142.90038411 -34.6875 142.3125 C-34.36934326 143.13234375 -34.05118652 143.9521875 -33.72338867 144.796875 C-33.2926001 145.87453125 -32.86181152 146.9521875 -32.41796875 148.0625 C-31.99668701 149.12984375 -31.57540527 150.1971875 -31.14135742 151.296875 C-27.62751831 158.58536212 -21.41567115 161.8609986 -14.08203125 164.5859375 C-2.33156792 168.15133094 11.91004945 167.64801101 22.87890625 161.98828125 C27.51989505 159.15005214 30.69531661 156.7031113 32.3125 151.3125 C33.01450943 146.15425681 32.34157358 142.60368757 29.3125 138.3125 C29.3125 137.6525 29.3125 136.9925 29.3125 136.3125 C28.72694336 136.02125244 28.14138672 135.73000488 27.53808594 135.42993164 C26.21422503 134.76524193 24.89681996 134.08699535 23.59472656 133.38061523 C16.32958777 129.74335744 8.49562716 128.44659822 0.59185791 126.87814331 C-2.83051795 126.19735966 -6.24716693 125.48972086 -9.66439819 124.78364563 C-12.16869928 124.26653424 -14.67362077 123.7525314 -17.17871094 123.23925781 C-62.42884237 113.94962068 -62.42884237 113.94962068 -76.2265625 94.6328125 C-84.98333994 80.7249895 -87.43959806 64.47517234 -83.96484375 48.3046875 C-83.05413553 45.18541967 -82.00327231 42.2816441 -80.6875 39.3125 C-80.336875 38.51070312 -79.98625 37.70890625 -79.625 36.8828125 C-71.87005189 21.31906248 -56.66466079 11.33135262 -40.70214844 5.59960938 C-27.42530962 1.36446585 -13.88596646 -0.06081706 0 0 Z " fill="#FEFFFE" transform="translate(2697.6875,628.6875)"/>
<path d="M0 0 C12.97315976 11.07464858 22.26091485 26.81690075 25.25 43.6875 C25.58 48.3075 25.91 52.9275 26.25 57.6875 C8.76 57.6875 -8.73 57.6875 -26.75 57.6875 C-27.74 54.7175 -28.73 51.7475 -29.75 48.6875 C-33.56515558 39.14961105 -38.18582073 31.61600583 -47.83203125 27.3125 C-59.75392321 23.23954047 -70.14870235 23.71761584 -81.75 28.6875 C-93.5482936 35.49488614 -99.25656737 47.53161538 -102.7265625 60.2734375 C-107.54486484 82.47365296 -106.10720116 106.95835895 -93.875 126.5625 C-88.43714835 134.21423528 -81.52289689 139.03018428 -72.35546875 141.2734375 C-61.73090013 142.96189968 -51.39110312 141.93780599 -42.2109375 136.0625 C-33.5896909 129.14243584 -30.36771754 120.15837016 -27.75 109.6875 C-9.93 109.6875 7.89 109.6875 26.25 109.6875 C24.38007863 132.12655649 17.76797783 150.13700373 1.25 165.6875 C0.47140625 166.42355469 -0.3071875 167.15960937 -1.109375 167.91796875 C-11.74166835 177.14094805 -25.13732238 182.64824178 -38.75 185.6875 C-40.19439453 186.02394531 -40.19439453 186.02394531 -41.66796875 186.3671875 C-68.2521474 191.49438708 -98.5882294 187.40401703 -121.47509766 172.56933594 C-143.91117122 157.12239238 -156.48067163 133.96165373 -161.75 107.6875 C-163.00572853 100.07345348 -162.99374484 92.50422135 -163 84.8125 C-163.00067474 84.0710675 -163.00134949 83.32963501 -163.00204468 82.56573486 C-162.98624948 71.65937079 -162.62846098 61.27280812 -159.75 50.6875 C-159.4096875 49.429375 -159.069375 48.17125 -158.71875 46.875 C-154.77868093 33.88342089 -148.62846066 21.98967818 -139.75 11.6875 C-139.18152344 10.96433594 -138.61304688 10.24117187 -138.02734375 9.49609375 C-105.70538535 -29.96277267 -38.21819147 -29.77768553 0 0 Z " fill="#FEFFFE" transform="translate(1818.75,649.3125)"/>
<path d="M0 0 C18.48 0 36.96 0 56 0 C56 88.44 56 176.88 56 268 C37.52 268 19.04 268 0 268 C0 179.56 0 91.12 0 0 Z " fill="#FEFEFE" transform="translate(2166,142)"/>
<path d="M0 0 C0.87269531 -0.01224609 1.74539063 -0.02449219 2.64453125 -0.03710938 C3.50175781 -0.03904297 4.35898438 -0.04097656 5.2421875 -0.04296875 C6.01159668 -0.04707764 6.78100586 -0.05118652 7.57373047 -0.05541992 C10.125 0.1875 10.125 0.1875 17.125 2.1875 C17.125 18.6875 17.125 35.1875 17.125 52.1875 C12.505 51.5275 7.885 50.8675 3.125 50.1875 C-10.85557757 49.17287581 -23.22938016 50.50370835 -34.72265625 59.27734375 C-42.1542178 65.87268604 -46.19240993 74.45970954 -47.875 84.1875 C-47.97065071 85.90462573 -48.02061295 87.62469511 -48.03321838 89.34443665 C-48.04790161 90.86929436 -48.04790161 90.86929436 -48.06288147 92.42495728 C-48.06863693 93.52906952 -48.0743924 94.63318176 -48.08032227 95.77075195 C-48.09022186 96.94191055 -48.10012146 98.11306915 -48.11032104 99.31971741 C-48.14189264 103.18838483 -48.16667645 107.05706454 -48.19140625 110.92578125 C-48.21197952 113.60906898 -48.23292893 116.29235113 -48.25437927 118.97563171 C-48.30423067 125.31489894 -48.34919741 131.65419098 -48.39240164 137.99350661 C-48.44669042 145.9208346 -48.50751286 153.84811073 -48.56835938 161.77539062 C-48.67684286 175.91272053 -48.77545575 190.05009805 -48.875 204.1875 C-67.355 204.1875 -85.835 204.1875 -104.875 204.1875 C-104.875 137.8575 -104.875 71.5275 -104.875 3.1875 C-87.055 3.1875 -69.235 3.1875 -50.875 3.1875 C-50.875 14.7375 -50.875 26.2875 -50.875 38.1875 C-50.215 38.1875 -49.555 38.1875 -48.875 38.1875 C-48.77574219 37.33027344 -48.67648437 36.47304687 -48.57421875 35.58984375 C-46.06242686 23.36766087 -37.61441108 13.52682946 -27.53515625 6.76171875 C-18.56905274 1.45578671 -10.25030891 0.00750389 0 0 Z " fill="#FFFFFE" transform="translate(1929.875,205.8125)"/>
<path d="M0 0 C18.48 0 36.96 0 56 0 C56 66.66 56 133.32 56 202 C37.19 202 18.38 202 -1 202 C-1.02254429 175.81012484 -1.04097757 149.62025749 -1.05181217 123.4303751 C-1.05697582 111.27088131 -1.06401983 99.11139396 -1.07543945 86.9519043 C-1.08538419 76.35784032 -1.09185292 65.763781 -1.09408849 55.16971248 C-1.09539596 49.55650597 -1.09848406 43.9433128 -1.10573006 38.33011055 C-1.11248696 33.05333464 -1.11461764 27.77657765 -1.11310768 22.49979782 C-1.11338416 20.55708527 -1.11539123 18.61437212 -1.11920547 16.67166328 C-1.12413758 14.03141574 -1.12300009 11.39124084 -1.12025452 8.75099182 C-1.12316736 7.97182406 -1.1260802 7.19265629 -1.12908131 6.38987738 C-1.11412121 1.11412121 -1.11412121 1.11412121 0 0 Z " fill="#FFFFFF" transform="translate(2093,631)"/>
<path d="M0 0 C6.18356669 4.4284566 12.01454803 10.0164904 13.765625 17.67578125 C14.76404409 26.68349634 14.28686217 34.26705137 8.765625 41.67578125 C2.68933629 48.43363086 -2.88455839 52.23043298 -11.94140625 52.984375 C-21.44377403 53.39565465 -28.82379668 51.99590885 -36.984375 46.98828125 C-43.56328478 40.22662397 -46.55479406 33.67874622 -47.609375 24.36328125 C-46.76194353 16.03020516 -43.72140171 8.17253176 -37.234375 2.67578125 C-25.80481574 -5.14554124 -12.29613901 -7.28739707 0 0 Z " fill="#FFFFFF" transform="translate(2137.234375,553.32421875)"/>
</svg>
